<svg width="40" height="40" viewBox="0 0 40 40" fill="none" xmlns="http://www.w3.org/2000/svg">
<g id="button_&#209;&#128;&#208;&#176;&#209;&#129;&#209;&#129;&#208;&#186;&#209;&#128;&#209;&#139;&#209;&#130;&#209;&#140;">
<rect width="40" height="40" fill=""/>
<circle id="Ellipse 3205" opacity="0.4" cx="20" cy="20" r="19.5" stroke="#F4A32A"/>
<path id="Vector" d="M27.8499 16.8789L20.3951 23.8472C20.2903 23.945 20.1482 24 20 24C19.8518 24 19.7097 23.945 19.6049 23.8472L12.1501 16.8789C12.0513 16.7798 11.9975 16.6488 12.0001 16.5134C12.0026 16.378 12.0613 16.2488 12.1638 16.1531C12.2662 16.0573 12.4044 16.0025 12.5492 16.0001C12.6941 15.9977 12.8343 16.048 12.9403 16.1403L20 22.7383L27.0597 16.1403C27.1657 16.048 27.3059 15.9977 27.4508 16.0001C27.5956 16.0025 27.7338 16.0573 27.8362 16.1531C27.9387 16.2488 27.9974 16.378 27.9999 16.5134C28.0025 16.6488 27.9487 16.7798 27.8499 16.8789Z" fill="#F4A32A"/>
</g>
</svg>
