<svg width="40" height="40" viewBox="0 0 40 40" fill="none" xmlns="http://www.w3.org/2000/svg">
<circle cx="20" cy="20" r="19.5" stroke="#F4A32A"/>
<path d="M27.8683 15.7937L17.4034 25.862C17.3114 25.9504 17.1867 26 17.0567 26C16.9267 26 16.8021 25.9504 16.7101 25.862L12.1317 21.4571C12.045 21.3676 11.9978 21.2493 12.0001 21.127C12.0023 21.0048 12.0538 20.8881 12.1437 20.8016C12.2336 20.7152 12.3548 20.6656 12.4819 20.6635C12.609 20.6613 12.732 20.7067 12.825 20.7901L17.0567 24.8607L27.175 15.1267C27.268 15.0433 27.391 14.9979 27.5181 15.0001C27.6452 15.0022 27.7664 15.0518 27.8563 15.1382C27.9462 15.2247 27.9977 15.3414 27.9999 15.4636C28.0022 15.5859 27.955 15.7042 27.8683 15.7937Z" fill="#F4A32A"/>
</svg>
