<svg width="135" height="40" viewBox="0 0 135 40" fill="none" xmlns="http://www.w3.org/2000/svg">
<path d="M133.373 10.855C131.9 12.5366 130.407 14.2015 128.956 15.9029C125.029 20.5087 121.034 24.9058 116.933 29.5563C116.933 29.5563 116.028 29.6009 115.516 29.2911C115.248 29.5453 115.084 29.6861 114.855 29.9607C112.642 32.604 110.422 35.3264 108.241 37.9959C107.712 38.6437 106.942 38.682 106.047 38.6649C103.159 38.6098 100.27 38.6486 97.3805 38.6386C97.0331 38.6374 96.6859 38.559 96.3359 38.516C96.3359 26.0467 96.3359 13.6822 96.3359 1.32821C96.5544 1.2594 96.6816 1.18431 96.809 1.1842C108.686 1.17391 120.563 1.16887 132.44 1.16797C132.667 1.16795 132.893 1.21749 133.119 1.25261C133.119 1.25261 133.188 1.30833 133.221 1.33918C133.221 1.33918 133.287 1.40301 133.373 1.4871C133.373 4.57603 133.373 7.71553 133.373 10.855Z" fill="#F4A32A"/>
<path d="M132.981 11.3925C132.966 8.23944 132.966 5.21439 132.966 2.23806L132.973 1.94069L132.718 1.92729L132.058 1.93056C120.49 1.93144 108.923 1.93629 97.3554 1.9462L96.8947 1.95408C96.8947 13.8578 96.821 25.9765 96.821 37.9912L97.9121 38.0353C100.726 38.0449 104.854 37.9381 107.667 37.9912L108.333 37.3216L113 31.9648L115.462 28.6985L116.947 29.5373C115.98 30.8521 114.943 32.1798 113.863 33.4715C112.238 35.4147 110.565 37.3181 108.953 39.2725C108.581 39.7235 108.235 39.9755 107.627 39.9721C103.608 39.9495 95.5712 39.9559 95.5712 39.9559L95 39.9471C95 26.6631 95 13.3377 95 0.0775714L115 0.0387857L135 0C135 13.2438 135 26.4988 135 39.7592L121.667 40L121.534 37.9853H127.223C129.096 37.9853 132.995 37.9853 132.995 37.9853C132.995 29.1236 132.995 20.3221 132.981 11.3925Z" fill="white"/>
<path d="M1.112 18V9.36H8.192V18H6.768V10.712H2.536V18H1.112ZM14.4005 18.24C13.5898 18.24 12.9072 18.04 12.3525 17.64C11.7978 17.2347 11.3765 16.688 11.0885 16C10.8058 15.3067 10.6645 14.5307 10.6645 13.672C10.6645 12.8027 10.8058 12.024 11.0885 11.336C11.3765 10.648 11.7978 10.1067 12.3525 9.712C12.9125 9.31733 13.5978 9.12 14.4085 9.12C15.2085 9.12 15.8965 9.32 16.4725 9.72C17.0538 10.1147 17.4992 10.656 17.8085 11.344C18.1178 12.032 18.2725 12.808 18.2725 13.672C18.2725 14.536 18.1178 15.312 17.8085 16C17.4992 16.688 17.0538 17.2347 16.4725 17.64C15.8965 18.04 15.2058 18.24 14.4005 18.24ZM10.4245 21.84V9.36H11.6965V15.72H11.8565V21.84H10.4245ZM14.2245 16.936C14.7952 16.936 15.2672 16.792 15.6405 16.504C16.0138 16.216 16.2938 15.8267 16.4805 15.336C16.6672 14.84 16.7605 14.2853 16.7605 13.672C16.7605 13.064 16.6672 12.5147 16.4805 12.024C16.2992 11.5333 16.0165 11.144 15.6325 10.856C15.2538 10.568 14.7712 10.424 14.1845 10.424C13.6245 10.424 13.1605 10.5627 12.7925 10.84C12.4245 11.112 12.1498 11.4933 11.9685 11.984C11.7872 12.4693 11.6965 13.032 11.6965 13.672C11.6965 14.3013 11.7845 14.864 11.9605 15.36C12.1418 15.8507 12.4192 16.2373 12.7925 16.52C13.1658 16.7973 13.6432 16.936 14.2245 16.936ZM23.7063 18.24C22.8476 18.24 22.1063 18.0453 21.4823 17.656C20.8636 17.2667 20.3863 16.728 20.0503 16.04C19.7143 15.352 19.5463 14.5627 19.5463 13.672C19.5463 12.7653 19.7169 11.9707 20.0583 11.288C20.3996 10.6053 20.8823 10.0747 21.5063 9.696C22.1303 9.312 22.8636 9.12 23.7063 9.12C24.5703 9.12 25.3143 9.31467 25.9383 9.704C26.5623 10.088 27.0396 10.624 27.3703 11.312C27.7063 11.9947 27.8743 12.7813 27.8743 13.672C27.8743 14.5733 27.7063 15.368 27.3703 16.056C27.0343 16.7387 26.5543 17.2747 25.9303 17.664C25.3063 18.048 24.5649 18.24 23.7063 18.24ZM23.7063 16.888C24.6023 16.888 25.2689 16.5893 25.7063 15.992C26.1436 15.3947 26.3623 14.6213 26.3623 13.672C26.3623 12.696 26.1409 11.92 25.6983 11.344C25.2556 10.7627 24.5916 10.472 23.7063 10.472C23.1036 10.472 22.6076 10.608 22.2183 10.88C21.8289 11.152 21.5383 11.528 21.3463 12.008C21.1543 12.488 21.0583 13.0427 21.0583 13.672C21.0583 14.6427 21.2823 15.4213 21.7303 16.008C22.1783 16.5947 22.8369 16.888 23.7063 16.888ZM33.3796 18.24C32.5316 18.24 31.7903 18.0533 31.1556 17.68C30.5263 17.3013 30.0356 16.776 29.6836 16.104C29.3316 15.4267 29.1556 14.6373 29.1556 13.736C29.1556 12.792 29.329 11.976 29.6756 11.288C30.0223 10.5947 30.505 10.0613 31.1236 9.688C31.7476 9.30933 32.4783 9.12 33.3156 9.12C34.185 9.12 34.9236 9.32 35.5316 9.72C36.145 10.12 36.6036 10.6907 36.9076 11.432C37.217 12.1733 37.3503 13.056 37.3076 14.08H35.8676V13.568C35.8516 12.5067 35.6356 11.7147 35.2196 11.192C34.8036 10.664 34.185 10.4 33.3636 10.4C32.4836 10.4 31.8143 10.6827 31.3556 11.248C30.897 11.8133 30.6676 12.624 30.6676 13.68C30.6676 14.6987 30.897 15.488 31.3556 16.048C31.8143 16.608 32.4676 16.888 33.3156 16.888C33.8863 16.888 34.3823 16.7573 34.8036 16.496C35.225 16.2347 35.5556 15.8587 35.7956 15.368L37.1636 15.84C36.8276 16.6027 36.321 17.1947 35.6436 17.616C34.9716 18.032 34.217 18.24 33.3796 18.24ZM30.1876 14.08V12.936H36.5716V14.08H30.1876ZM39.0808 18L39.0888 9.36H40.5288V13.52L44.1528 9.36H46.0008L42.1848 13.68L46.4488 18H44.4568L40.5288 13.84V18H39.0808ZM49.533 18V10.656H46.525V9.36H53.965V10.656H50.957V18H49.533ZM55.4714 18V9.36H56.8954V13H61.4394V9.36H62.8634V18H61.4394V14.352H56.8954V18H55.4714ZM65.1044 18L65.0964 9.36H66.5284V12.488H67.8484C68.099 12.488 68.355 12.4933 68.6164 12.504C68.8777 12.5147 69.1044 12.5387 69.2964 12.576C69.7444 12.6667 70.1364 12.8187 70.4724 13.032C70.8084 13.2453 71.0697 13.5333 71.2564 13.896C71.443 14.2587 71.5364 14.7093 71.5364 15.248C71.5364 15.9947 71.3417 16.5867 70.9524 17.024C70.5684 17.456 70.0644 17.744 69.4404 17.888C69.227 17.936 68.9817 17.968 68.7044 17.984C68.4324 17.9947 68.1737 18 67.9284 18H65.1044ZM66.5284 16.824H67.9524C68.1124 16.824 68.291 16.8187 68.4884 16.808C68.6857 16.7973 68.8617 16.7707 69.0164 16.728C69.2884 16.648 69.531 16.4907 69.7444 16.256C69.963 16.0213 70.0724 15.6853 70.0724 15.248C70.0724 14.8053 69.9657 14.464 69.7524 14.224C69.5444 13.984 69.2697 13.8267 68.9284 13.752C68.7737 13.7147 68.611 13.6907 68.4404 13.68C68.2697 13.6693 68.107 13.664 67.9524 13.664H66.5284V16.824ZM72.5284 18V9.36H73.9524V18H72.5284ZM79.9181 8.352C79.5181 8.352 79.1528 8.25333 78.8221 8.056C78.4915 7.85867 78.2275 7.59733 78.0301 7.272C77.8328 6.94133 77.7341 6.57333 77.7341 6.168H78.8861C78.8861 6.45067 78.9875 6.69333 79.1901 6.896C79.3928 7.09867 79.6355 7.2 79.9181 7.2C80.2061 7.2 80.4488 7.09867 80.6461 6.896C80.8488 6.69333 80.9501 6.45067 80.9501 6.168H82.1021C82.1021 6.57333 82.0035 6.94133 81.8061 7.272C81.6141 7.59733 81.3501 7.85867 81.0141 8.056C80.6835 8.25333 80.3181 8.352 79.9181 8.352ZM83.2701 9.36V18H81.8941V11.632L77.3661 18H76.1901V9.36H77.5661V15.64L82.1021 9.36H83.2701ZM8.48 35.6V34H1.112V25.36H2.536V32.648H6.768V25.36H8.192V32.704H9.904V35.6H8.48ZM14.9265 34.24C14.0785 34.24 13.3372 34.0533 12.7025 33.68C12.0732 33.3013 11.5825 32.776 11.2305 32.104C10.8785 31.4267 10.7025 30.6373 10.7025 29.736C10.7025 28.792 10.8758 27.976 11.2225 27.288C11.5692 26.5947 12.0518 26.0613 12.6705 25.688C13.2945 25.3093 14.0252 25.12 14.8625 25.12C15.7318 25.12 16.4705 25.32 17.0785 25.72C17.6918 26.12 18.1505 26.6907 18.4545 27.432C18.7638 28.1733 18.8972 29.056 18.8545 30.08H17.4145V29.568C17.3985 28.5067 17.1825 27.7147 16.7665 27.192C16.3505 26.664 15.7318 26.4 14.9105 26.4C14.0305 26.4 13.3612 26.6827 12.9025 27.248C12.4438 27.8133 12.2145 28.624 12.2145 29.68C12.2145 30.6987 12.4438 31.488 12.9025 32.048C13.3612 32.608 14.0145 32.888 14.8625 32.888C15.4332 32.888 15.9292 32.7573 16.3505 32.496C16.7718 32.2347 17.1025 31.8587 17.3425 31.368L18.7105 31.84C18.3745 32.6027 17.8678 33.1947 17.1905 33.616C16.5185 34.032 15.7638 34.24 14.9265 34.24ZM11.7345 30.08V28.936H18.1185V30.08H11.7345ZM20.6276 34V25.36H22.0516V29H26.5956V25.36H28.0196V34H26.5956V30.352H22.0516V34H20.6276ZM32.5486 34V26.656H29.5406V25.36H36.9806V26.656H33.9726V34H32.5486ZM42.463 34.24C41.6523 34.24 40.9697 34.04 40.415 33.64C39.8603 33.2347 39.439 32.688 39.151 32C38.8683 31.3067 38.727 30.5307 38.727 29.672C38.727 28.8027 38.8683 28.024 39.151 27.336C39.439 26.648 39.8603 26.1067 40.415 25.712C40.975 25.3173 41.6603 25.12 42.471 25.12C43.271 25.12 43.959 25.32 44.535 25.72C45.1163 26.1147 45.5617 26.656 45.871 27.344C46.1803 28.032 46.335 28.808 46.335 29.672C46.335 30.536 46.1803 31.312 45.871 32C45.5617 32.688 45.1163 33.2347 44.535 33.64C43.959 34.04 43.2683 34.24 42.463 34.24ZM38.487 37.84V25.36H39.759V31.72H39.919V37.84H38.487ZM42.287 32.936C42.8577 32.936 43.3297 32.792 43.703 32.504C44.0763 32.216 44.3563 31.8267 44.543 31.336C44.7297 30.84 44.823 30.2853 44.823 29.672C44.823 29.064 44.7297 28.5147 44.543 28.024C44.3617 27.5333 44.079 27.144 43.695 26.856C43.3163 26.568 42.8337 26.424 42.247 26.424C41.687 26.424 41.223 26.5627 40.855 26.84C40.487 27.112 40.2123 27.4933 40.031 27.984C39.8497 28.4693 39.759 29.032 39.759 29.672C39.759 30.3013 39.847 30.864 40.023 31.36C40.2043 31.8507 40.4817 32.2373 40.855 32.52C41.2283 32.7973 41.7057 32.936 42.287 32.936Z" fill="white"/>
</svg>
