<svg width="30" height="30" viewBox="0 0 30 30" fill="none" xmlns="http://www.w3.org/2000/svg">
<g id="button">
<rect x="0.5" y="0.5" width="29" height="29" rx="5.5" fill="#222220"/>
<rect x="0.5" y="0.5" width="29" height="29" rx="5.5" stroke="white"/>
<path id="Vector" d="M8.16667 9H21.8333C22.4773 9 23 9.5376 23 10.2V19.8C23 20.1183 22.8771 20.4235 22.6583 20.6485C22.4395 20.8736 22.1428 21 21.8333 21H8.16667C7.85725 21 7.5605 20.8736 7.34171 20.6485C7.12292 20.4235 7 20.1183 7 19.8V10.2C7 9.5376 7.52267 9 8.16667 9ZM8 12.0254V19.8C8 19.8946 8.07467 19.9714 8.16667 19.9714H21.8333C21.8775 19.9714 21.9199 19.9534 21.9512 19.9212C21.9824 19.8891 22 19.8455 22 19.8V12.0254L15.6533 16.4366C15.2587 16.7109 14.7413 16.7109 14.3467 16.4366L8 12.0254ZM8 10.2V10.7842L14.9067 15.5842C14.9342 15.6034 14.9667 15.6136 15 15.6136C15.0333 15.6136 15.0658 15.6034 15.0933 15.5842L22 10.7842V10.2C22 10.1545 21.9824 10.1109 21.9512 10.0788C21.9199 10.0466 21.8775 10.0286 21.8333 10.0286H8.16667C8.12246 10.0286 8.08007 10.0466 8.04882 10.0788C8.01756 10.1109 8 10.1545 8 10.2Z" fill="white"/>
</g>
</svg>
