<svg width="30" height="30" viewBox="0 0 30 30" fill="none" xmlns="http://www.w3.org/2000/svg">
<rect x="0.5" y="0.5" width="29" height="29" rx="5.5" fill="#222220"/>
<rect x="0.5" y="0.5" width="29" height="29" rx="5.5" stroke="white"/>
<path d="M15 7C10.584 7 7 10.584 7 15C7 19.416 10.584 23 15 23C19.416 23 23 19.416 23 15C23 10.584 19.416 7 15 7ZM18.712 12.44C18.592 13.704 18.072 16.776 17.808 18.192C17.696 18.792 17.472 18.992 17.264 19.016C16.8 19.056 16.448 18.712 16 18.416C15.296 17.952 14.896 17.664 14.216 17.216C13.424 16.696 13.936 16.408 14.392 15.944C14.512 15.824 16.56 13.96 16.6 13.792C16.6056 13.7666 16.6048 13.7401 16.5978 13.715C16.5909 13.6899 16.5779 13.6669 16.56 13.648C16.512 13.608 16.448 13.624 16.392 13.632C16.32 13.648 15.2 14.392 13.016 15.864C12.696 16.08 12.408 16.192 12.152 16.184C11.864 16.176 11.32 16.024 10.912 15.888C10.408 15.728 10.016 15.64 10.048 15.36C10.064 15.216 10.264 15.072 10.64 14.92C12.976 13.904 14.528 13.232 15.304 12.912C17.528 11.984 17.984 11.824 18.288 11.824C18.352 11.824 18.504 11.84 18.6 11.92C18.68 11.984 18.704 12.072 18.712 12.136C18.704 12.184 18.72 12.328 18.712 12.44Z" fill="white"/>
</svg>
