<svg width="30" height="30" viewBox="0 0 30 30" fill="none" xmlns="http://www.w3.org/2000/svg">
<g id="button">
<rect x="0.5" y="0.5" width="29" height="29" rx="5.5" fill="#222220"/>
<rect x="0.5" y="0.5" width="29" height="29" rx="5.5" stroke="#FFF2F2"/>
<g id="Group 2085662908">
<path id="Vector" d="M18.5964 16.5691C18.4018 16.4691 17.4321 15.9941 17.2518 15.9298C17.0714 15.8619 16.9393 15.8298 16.8089 16.0298C16.6768 16.228 16.3018 16.6691 16.1839 16.803C16.0696 16.9352 15.9536 16.9512 15.7589 16.853C14.6018 16.2744 13.8429 15.8209 13.0804 14.5119C12.8786 14.1637 13.2821 14.1887 13.6589 13.4369C13.7232 13.3048 13.6911 13.1923 13.6411 13.0923C13.5911 12.9923 13.1982 12.0244 13.0339 11.6298C12.875 11.2459 12.7107 11.2994 12.5911 11.2923C12.4768 11.2852 12.3464 11.2852 12.2143 11.2852C12.0821 11.2852 11.8696 11.3352 11.6893 11.5298C11.5089 11.728 11 12.2048 11 13.1727C11 14.1405 11.7054 15.078 11.8018 15.2102C11.9018 15.3423 13.1893 17.328 15.1661 18.1834C16.4161 18.7227 16.9054 18.7691 17.5304 18.6762C17.9107 18.6191 18.6946 18.2012 18.8571 17.7387C19.0196 17.278 19.0196 16.8834 18.9714 16.8012C18.9232 16.7137 18.7911 16.6637 18.5964 16.5691Z" fill="white"/>
<path id="Vector_2" d="M22.3787 11.9C21.9751 10.9411 21.3965 10.0804 20.659 9.34107C19.9215 8.60357 19.0608 8.02321 18.1001 7.62143C17.118 7.20893 16.0751 7 15.0001 7H14.9644C13.8822 7.00536 12.834 7.21964 11.8483 7.64107C10.8965 8.04821 10.043 8.62679 9.3126 9.36429C8.58224 10.1018 8.00903 10.9589 7.6126 11.9143C7.20189 12.9036 6.99474 13.9554 7.0001 15.0375C7.00546 16.2768 7.30189 17.5071 7.85724 18.6071V21.3214C7.85724 21.775 8.2251 22.1429 8.67867 22.1429H11.3947C12.4947 22.6982 13.7251 22.9946 14.9644 23H15.0019C16.0715 23 17.109 22.7929 18.0858 22.3875C19.0412 21.9893 19.9001 21.4179 20.6358 20.6875C21.3733 19.9571 21.9537 19.1036 22.359 18.1518C22.7805 17.1661 22.9947 16.1179 23.0001 15.0357C23.0055 13.9482 22.7947 12.8929 22.3787 11.9ZM19.6805 19.7214C18.4287 20.9607 16.768 21.6429 15.0001 21.6429H14.9697C13.893 21.6375 12.8233 21.3696 11.8787 20.8661L11.7287 20.7857H9.21439V18.2714L9.13403 18.1214C8.63046 17.1768 8.3626 16.1071 8.35724 15.0304C8.3501 13.25 9.03046 11.5786 10.2787 10.3196C11.5251 9.06071 13.1912 8.36429 14.9715 8.35714H15.0019C15.8947 8.35714 16.7608 8.53036 17.5769 8.87321C18.3733 9.20714 19.0876 9.6875 19.7019 10.3018C20.3144 10.9143 20.7965 11.6304 21.1305 12.4268C21.4769 13.2518 21.6501 14.1268 21.6465 15.0304C21.6358 16.8089 20.9376 18.475 19.6805 19.7214Z" fill="white"/>
</g>
</g>
</svg>
