<svg width="30" height="30" viewBox="0 0 30 30" fill="none" xmlns="http://www.w3.org/2000/svg">
<path d="M28.7799 8.23543C27.6747 9.49108 26.5551 10.7343 25.467 12.0048C22.5216 15.444 19.5258 18.7274 16.45 22.2C16.45 22.2 15.7709 22.2333 15.387 22.002C15.1859 22.1918 15.0633 22.2969 14.8909 22.502C13.2316 24.4757 11.5664 26.5086 9.93058 28.502C9.53364 28.9856 8.95622 29.0143 8.28552 29.0015C6.11949 28.9604 3.95218 28.9893 1.7854 28.9819C1.5248 28.981 1.2644 28.9224 1.00195 28.8904C1.00195 19.5793 1.00195 10.3466 1.00195 1.12161C1.16577 1.07023 1.26122 1.01415 1.35672 1.01407C10.2646 1.00639 19.1724 1.00263 28.0803 1.00195C28.25 1.00194 28.42 1.03893 28.5889 1.06515C28.5889 1.06515 28.6411 1.10677 28.6661 1.1298C28.6661 1.1298 28.7154 1.17746 28.7799 1.24025C28.7799 3.5468 28.7799 5.89112 28.7799 8.23543Z" fill="#F4A32A"/>
<path d="M28.4855 8.63786C28.4747 6.28338 28.4747 4.02452 28.4747 1.80205L28.48 1.58L28.2886 1.57L27.7933 1.57244C19.1177 1.57309 10.4421 1.57672 1.76656 1.58412L1.42104 1.59C1.42104 10.4787 1.36575 19.5279 1.36575 28.4995L2.18406 28.5324C4.29435 28.5396 7.39045 28.4598 9.5 28.4995L10 27.9995L13.5 23.9995L15.3465 21.5605L16.4605 22.1869C15.7352 23.1686 14.9574 24.16 14.1472 25.1246C12.9284 26.5756 11.6734 27.9969 10.465 29.4562C10.1861 29.7931 9.92648 29.9812 9.47017 29.9787C6.45632 29.9618 0.428378 29.9666 0.428378 29.9666L0 29.96C0 20.0406 0 10.0904 0 0.188783L15 0.159821L30 0.130859C30 10.0202 30 19.9179 30 29.8197L20 29.9995L19.9007 28.4951H24.1671C25.5722 28.4951 28.4963 28.4951 28.4963 28.4951C28.4963 21.878 28.4963 15.3057 28.4855 8.63786Z" fill="#222220"/>
</svg>
