<svg width="200" height="188" viewBox="0 0 200 188" fill="none" xmlns="http://www.w3.org/2000/svg">
<g id="style=bulk">
<g id="check">
<path id="rectangle" d="M0 52.4651C0 23.4894 24.9887 0 55.8139 0H144.186C175.011 0 200 23.4894 200 52.4651V135.535C200 164.51 175.011 188 144.186 188H55.8139C24.9887 188 0 164.51 0 135.535V52.4651Z" fill="#E2E2E2"/>
<path id="vector (Stroke)" fill-rule="evenodd" clip-rule="evenodd" d="M135.951 70.0978C137.35 71.5616 137.35 73.9348 135.951 75.3985L98.1437 114.975C93.0167 120.342 84.7038 120.342 79.5766 114.975L64.0487 98.7205C62.6504 97.2568 62.6504 94.8837 64.0487 93.4199C65.4471 91.9562 67.7142 91.9562 69.1125 93.4199L84.6404 109.674C86.971 112.114 90.7496 112.114 93.08 109.674L130.888 70.0978C132.286 68.6341 134.553 68.6341 135.951 70.0978Z" fill="#222220"/>
</g>
</g>
</svg>
