<svg width="125" height="34" viewBox="0 0 125 34" fill="none" xmlns="http://www.w3.org/2000/svg">
<path d="M28.7799 9.23543C27.6747 10.4911 26.5551 11.7343 25.467 13.0048C22.5216 16.444 19.5258 19.7274 16.45 23.2C16.45 23.2 15.7709 23.2333 15.387 23.002C15.1859 23.1918 15.0633 23.2969 14.8909 23.502C13.2316 25.4757 11.5664 27.5086 9.93058 29.502C9.53364 29.9856 8.95622 30.0143 8.28552 30.0015C6.11949 29.9604 3.95218 29.9893 1.7854 29.9819C1.5248 29.981 1.2644 29.9224 1.00195 29.8904C1.00195 20.5793 1.00195 11.3466 1.00195 2.12161C1.16577 2.07023 1.26122 2.01415 1.35672 2.01407C10.2646 2.00639 19.1724 2.00263 28.0803 2.00195C28.25 2.00194 28.42 2.03893 28.5889 2.06515C28.5889 2.06515 28.6411 2.10677 28.6661 2.1298C28.6661 2.1298 28.7154 2.17746 28.7799 2.24025C28.7799 4.5468 28.7799 6.89112 28.7799 9.23543Z" fill="#F4A32A"/>
<path d="M28.4855 9.63786C28.4747 7.28338 28.4747 5.02452 28.4747 2.80205L28.48 2.58L28.2886 2.57L27.7933 2.57244C19.1177 2.57309 10.4421 2.57672 1.76656 2.58412L1.42104 2.59C1.42104 11.4787 1.36575 20.5279 1.36575 29.4995L2.18406 29.5324C4.29435 29.5396 7.39045 29.4598 9.5 29.4995L10 28.9995L13.5 24.9995L15.3465 22.5605L16.4605 23.1869C15.7352 24.1686 14.9574 25.16 14.1472 26.1246C12.9284 27.5756 11.6734 28.9969 10.465 30.4562C10.1861 30.7931 9.92648 30.9812 9.47017 30.9787C6.45632 30.9618 0.428378 30.9666 0.428378 30.9666L0 30.96C0 21.0406 0 11.0904 0 1.18878L15 1.15982L30 1.13086C30 11.0202 30 20.9179 30 30.8197L20 30.9995L19.9007 29.4951H24.1671C25.5722 29.4951 28.4963 29.4951 28.4963 29.4951C28.4963 22.878 28.4963 16.3057 28.4855 9.63786Z" fill="#222220"/>
<path d="M41.112 14V5.36H48.192V14H46.768V6.712H42.536V14H41.112ZM54.4005 14.24C53.5898 14.24 52.9072 14.04 52.3525 13.64C51.7978 13.2347 51.3765 12.688 51.0885 12C50.8058 11.3067 50.6645 10.5307 50.6645 9.672C50.6645 8.80267 50.8058 8.024 51.0885 7.336C51.3765 6.648 51.7978 6.10667 52.3525 5.712C52.9125 5.31733 53.5978 5.12 54.4085 5.12C55.2085 5.12 55.8965 5.32 56.4725 5.72C57.0538 6.11467 57.4992 6.656 57.8085 7.344C58.1178 8.032 58.2725 8.808 58.2725 9.672C58.2725 10.536 58.1178 11.312 57.8085 12C57.4992 12.688 57.0538 13.2347 56.4725 13.64C55.8965 14.04 55.2058 14.24 54.4005 14.24ZM50.4245 17.84V5.36H51.6965V11.72H51.8565V17.84H50.4245ZM54.2245 12.936C54.7952 12.936 55.2672 12.792 55.6405 12.504C56.0138 12.216 56.2938 11.8267 56.4805 11.336C56.6672 10.84 56.7605 10.2853 56.7605 9.672C56.7605 9.064 56.6672 8.51467 56.4805 8.024C56.2992 7.53333 56.0165 7.144 55.6325 6.856C55.2538 6.568 54.7712 6.424 54.1845 6.424C53.6245 6.424 53.1605 6.56267 52.7925 6.84C52.4245 7.112 52.1498 7.49333 51.9685 7.984C51.7872 8.46933 51.6965 9.032 51.6965 9.672C51.6965 10.3013 51.7845 10.864 51.9605 11.36C52.1418 11.8507 52.4192 12.2373 52.7925 12.52C53.1658 12.7973 53.6432 12.936 54.2245 12.936ZM63.7063 14.24C62.8476 14.24 62.1063 14.0453 61.4823 13.656C60.8636 13.2667 60.3863 12.728 60.0503 12.04C59.7143 11.352 59.5463 10.5627 59.5463 9.672C59.5463 8.76533 59.7169 7.97067 60.0583 7.288C60.3996 6.60533 60.8823 6.07467 61.5063 5.696C62.1303 5.312 62.8636 5.12 63.7063 5.12C64.5703 5.12 65.3143 5.31467 65.9383 5.704C66.5623 6.088 67.0396 6.624 67.3703 7.312C67.7063 7.99467 67.8743 8.78133 67.8743 9.672C67.8743 10.5733 67.7063 11.368 67.3703 12.056C67.0343 12.7387 66.5543 13.2747 65.9303 13.664C65.3063 14.048 64.5649 14.24 63.7063 14.24ZM63.7063 12.888C64.6023 12.888 65.2689 12.5893 65.7063 11.992C66.1436 11.3947 66.3623 10.6213 66.3623 9.672C66.3623 8.696 66.1409 7.92 65.6983 7.344C65.2556 6.76267 64.5916 6.472 63.7063 6.472C63.1036 6.472 62.6076 6.608 62.2183 6.88C61.8289 7.152 61.5383 7.528 61.3463 8.008C61.1543 8.488 61.0583 9.04267 61.0583 9.672C61.0583 10.6427 61.2823 11.4213 61.7303 12.008C62.1783 12.5947 62.8369 12.888 63.7063 12.888ZM73.3796 14.24C72.5316 14.24 71.7903 14.0533 71.1556 13.68C70.5263 13.3013 70.0356 12.776 69.6836 12.104C69.3316 11.4267 69.1556 10.6373 69.1556 9.736C69.1556 8.792 69.329 7.976 69.6756 7.288C70.0223 6.59467 70.505 6.06133 71.1236 5.688C71.7476 5.30933 72.4783 5.12 73.3156 5.12C74.185 5.12 74.9236 5.32 75.5316 5.72C76.145 6.12 76.6036 6.69067 76.9076 7.432C77.217 8.17333 77.3503 9.056 77.3076 10.08H75.8676V9.568C75.8516 8.50667 75.6356 7.71467 75.2196 7.192C74.8036 6.664 74.185 6.4 73.3636 6.4C72.4836 6.4 71.8143 6.68267 71.3556 7.248C70.897 7.81333 70.6676 8.624 70.6676 9.68C70.6676 10.6987 70.897 11.488 71.3556 12.048C71.8143 12.608 72.4676 12.888 73.3156 12.888C73.8863 12.888 74.3823 12.7573 74.8036 12.496C75.225 12.2347 75.5556 11.8587 75.7956 11.368L77.1636 11.84C76.8276 12.6027 76.321 13.1947 75.6436 13.616C74.9716 14.032 74.217 14.24 73.3796 14.24ZM70.1876 10.08V8.936H76.5716V10.08H70.1876ZM79.0808 14L79.0888 5.36H80.5288V9.52L84.1528 5.36H86.0008L82.1848 9.68L86.4488 14H84.4568L80.5288 9.84V14H79.0808ZM89.533 14V6.656H86.525V5.36H93.965V6.656H90.957V14H89.533ZM95.4714 14V5.36H96.8954V9H101.439V5.36H102.863V14H101.439V10.352H96.8954V14H95.4714ZM105.104 14L105.096 5.36H106.528V8.488H107.848C108.099 8.488 108.355 8.49333 108.616 8.504C108.878 8.51467 109.104 8.53867 109.296 8.576C109.744 8.66667 110.136 8.81867 110.472 9.032C110.808 9.24533 111.07 9.53333 111.256 9.896C111.443 10.2587 111.536 10.7093 111.536 11.248C111.536 11.9947 111.342 12.5867 110.952 13.024C110.568 13.456 110.064 13.744 109.44 13.888C109.227 13.936 108.982 13.968 108.704 13.984C108.432 13.9947 108.174 14 107.928 14H105.104ZM106.528 12.824H107.952C108.112 12.824 108.291 12.8187 108.488 12.808C108.686 12.7973 108.862 12.7707 109.016 12.728C109.288 12.648 109.531 12.4907 109.744 12.256C109.963 12.0213 110.072 11.6853 110.072 11.248C110.072 10.8053 109.966 10.464 109.752 10.224C109.544 9.984 109.27 9.82667 108.928 9.752C108.774 9.71467 108.611 9.69067 108.44 9.68C108.27 9.66933 108.107 9.664 107.952 9.664H106.528V12.824ZM112.528 14V5.36H113.952V14H112.528ZM119.918 4.352C119.518 4.352 119.153 4.25333 118.822 4.056C118.491 3.85867 118.227 3.59733 118.03 3.272C117.833 2.94133 117.734 2.57333 117.734 2.168H118.886C118.886 2.45067 118.987 2.69333 119.19 2.896C119.393 3.09867 119.635 3.2 119.918 3.2C120.206 3.2 120.449 3.09867 120.646 2.896C120.849 2.69333 120.95 2.45067 120.95 2.168H122.102C122.102 2.57333 122.003 2.94133 121.806 3.272C121.614 3.59733 121.35 3.85867 121.014 4.056C120.683 4.25333 120.318 4.352 119.918 4.352ZM123.27 5.36V14H121.894V7.632L117.366 14H116.19V5.36H117.566V11.64L122.102 5.36H123.27ZM48.48 31.6V30H41.112V21.36H42.536V28.648H46.768V21.36H48.192V28.704H49.904V31.6H48.48ZM54.9265 30.24C54.0785 30.24 53.3372 30.0533 52.7025 29.68C52.0732 29.3013 51.5825 28.776 51.2305 28.104C50.8785 27.4267 50.7025 26.6373 50.7025 25.736C50.7025 24.792 50.8758 23.976 51.2225 23.288C51.5692 22.5947 52.0518 22.0613 52.6705 21.688C53.2945 21.3093 54.0252 21.12 54.8625 21.12C55.7318 21.12 56.4705 21.32 57.0785 21.72C57.6918 22.12 58.1505 22.6907 58.4545 23.432C58.7638 24.1733 58.8972 25.056 58.8545 26.08H57.4145V25.568C57.3985 24.5067 57.1825 23.7147 56.7665 23.192C56.3505 22.664 55.7318 22.4 54.9105 22.4C54.0305 22.4 53.3612 22.6827 52.9025 23.248C52.4438 23.8133 52.2145 24.624 52.2145 25.68C52.2145 26.6987 52.4438 27.488 52.9025 28.048C53.3612 28.608 54.0145 28.888 54.8625 28.888C55.4332 28.888 55.9292 28.7573 56.3505 28.496C56.7718 28.2347 57.1025 27.8587 57.3425 27.368L58.7105 27.84C58.3745 28.6027 57.8678 29.1947 57.1905 29.616C56.5185 30.032 55.7638 30.24 54.9265 30.24ZM51.7345 26.08V24.936H58.1185V26.08H51.7345ZM60.6276 30V21.36H62.0516V25H66.5956V21.36H68.0196V30H66.5956V26.352H62.0516V30H60.6276ZM72.5486 30V22.656H69.5406V21.36H76.9806V22.656H73.9726V30H72.5486ZM82.463 30.24C81.6523 30.24 80.9697 30.04 80.415 29.64C79.8603 29.2347 79.439 28.688 79.151 28C78.8683 27.3067 78.727 26.5307 78.727 25.672C78.727 24.8027 78.8683 24.024 79.151 23.336C79.439 22.648 79.8603 22.1067 80.415 21.712C80.975 21.3173 81.6603 21.12 82.471 21.12C83.271 21.12 83.959 21.32 84.535 21.72C85.1163 22.1147 85.5617 22.656 85.871 23.344C86.1803 24.032 86.335 24.808 86.335 25.672C86.335 26.536 86.1803 27.312 85.871 28C85.5617 28.688 85.1163 29.2347 84.535 29.64C83.959 30.04 83.2683 30.24 82.463 30.24ZM78.487 33.84V21.36H79.759V27.72H79.919V33.84H78.487ZM82.287 28.936C82.8577 28.936 83.3297 28.792 83.703 28.504C84.0763 28.216 84.3563 27.8267 84.543 27.336C84.7297 26.84 84.823 26.2853 84.823 25.672C84.823 25.064 84.7297 24.5147 84.543 24.024C84.3617 23.5333 84.079 23.144 83.695 22.856C83.3163 22.568 82.8337 22.424 82.247 22.424C81.687 22.424 81.223 22.5627 80.855 22.84C80.487 23.112 80.2123 23.4933 80.031 23.984C79.8497 24.4693 79.759 25.032 79.759 25.672C79.759 26.3013 79.847 26.864 80.023 27.36C80.2043 27.8507 80.4817 28.2373 80.855 28.52C81.2283 28.7973 81.7057 28.936 82.287 28.936Z" fill="#222220"/>
</svg>
