<svg width="104" height="32" viewBox="0 0 104 32" fill="none" xmlns="http://www.w3.org/2000/svg">
<path d="M28.7799 9.27164C27.6747 10.5328 26.5551 11.7815 25.467 13.0576C22.5216 16.5119 19.5258 19.8097 16.45 23.2976C16.45 23.2976 15.7709 23.331 15.387 23.0987C15.1859 23.2893 15.0633 23.3949 14.8909 23.6009C13.2316 25.5833 11.5664 27.6252 9.93058 29.6273C9.53364 30.1131 8.95622 30.1419 8.28552 30.1291C6.11949 30.0877 3.95218 30.1168 1.7854 30.1093C1.5248 30.1084 1.2644 30.0496 1.00195 30.0174C1.00195 20.6654 1.00195 11.3921 1.00195 2.12653C1.16577 2.07492 1.26122 2.0186 1.35672 2.01852C10.2646 2.0108 19.1724 2.00703 28.0803 2.00635C28.25 2.00633 28.42 2.04349 28.5889 2.06983C28.5889 2.06983 28.6411 2.11162 28.6661 2.13476C28.6661 2.13476 28.7154 2.18263 28.7799 2.24569C28.7799 4.56239 28.7799 6.91702 28.7799 9.27164Z" fill="#F4A32A"/>
<path d="M28.4855 9.54441C28.4747 7.17958 28.4747 4.91079 28.4747 2.67855L28.48 2.45551L28.2886 2.44547L27.7933 2.44792C19.1177 2.44858 10.4421 2.45222 1.76656 2.45965L1.42104 2.46556C1.42104 11.3933 1.36575 20.4823 1.36575 29.4934L2.18406 29.5264C4.29435 29.5337 7.39045 29.4536 9.5 29.4934L10 28.9912L13.5 24.9736L15.3465 22.5239L16.4605 23.153C15.7352 24.1391 14.9574 25.1349 14.1472 26.1036C12.9284 27.561 11.6734 28.9886 10.465 30.4543C10.1861 30.7927 9.92648 30.9816 9.47017 30.9791C6.45632 30.9621 0.428378 30.9669 0.428378 30.9669L0 30.9603C0 20.9973 0 11.0033 0 1.05818L15 1.02909L30 1C30 10.9329 30 20.8741 30 30.8194L20 31L19.9007 29.489H24.1671C25.5722 29.489 28.4963 29.489 28.4963 29.489C28.4963 22.8427 28.4963 16.2416 28.4855 9.54441Z" fill="#222220"/>
<path d="M40.834 13V6.52H46.144V13H45.076V7.534H41.902V13H40.834ZM50.8004 13.18C50.1924 13.18 49.6804 13.03 49.2644 12.73C48.8484 12.426 48.5324 12.016 48.3164 11.5C48.1044 10.98 47.9984 10.398 47.9984 9.754C47.9984 9.102 48.1044 8.518 48.3164 8.002C48.5324 7.486 48.8484 7.08 49.2644 6.784C49.6844 6.488 50.1984 6.34 50.8064 6.34C51.4064 6.34 51.9224 6.49 52.3544 6.79C52.7904 7.086 53.1244 7.492 53.3564 8.008C53.5884 8.524 53.7044 9.106 53.7044 9.754C53.7044 10.402 53.5884 10.984 53.3564 11.5C53.1244 12.016 52.7904 12.426 52.3544 12.73C51.9224 13.03 51.4044 13.18 50.8004 13.18ZM47.8184 15.88V6.52H48.7724V11.29H48.8924V15.88H47.8184ZM50.6684 12.202C51.0964 12.202 51.4504 12.094 51.7304 11.878C52.0104 11.662 52.2204 11.37 52.3604 11.002C52.5004 10.63 52.5704 10.214 52.5704 9.754C52.5704 9.298 52.5004 8.886 52.3604 8.518C52.2244 8.15 52.0124 7.858 51.7244 7.642C51.4404 7.426 51.0784 7.318 50.6384 7.318C50.2184 7.318 49.8704 7.422 49.5944 7.63C49.3184 7.834 49.1124 8.12 48.9764 8.488C48.8404 8.852 48.7724 9.274 48.7724 9.754C48.7724 10.226 48.8384 10.648 48.9704 11.02C49.1064 11.388 49.3144 11.678 49.5944 11.89C49.8744 12.098 50.2324 12.202 50.6684 12.202ZM57.7797 13.18C57.1357 13.18 56.5797 13.034 56.1117 12.742C55.6477 12.45 55.2897 12.046 55.0377 11.53C54.7857 11.014 54.6597 10.422 54.6597 9.754C54.6597 9.074 54.7877 8.478 55.0437 7.966C55.2997 7.454 55.6617 7.056 56.1297 6.772C56.5977 6.484 57.1477 6.34 57.7797 6.34C58.4277 6.34 58.9857 6.486 59.4537 6.778C59.9217 7.066 60.2797 7.468 60.5277 7.984C60.7797 8.496 60.9057 9.086 60.9057 9.754C60.9057 10.43 60.7797 11.026 60.5277 11.542C60.2757 12.054 59.9157 12.456 59.4477 12.748C58.9797 13.036 58.4237 13.18 57.7797 13.18ZM57.7797 12.166C58.4517 12.166 58.9517 11.942 59.2797 11.494C59.6077 11.046 59.7717 10.466 59.7717 9.754C59.7717 9.022 59.6057 8.44 59.2737 8.008C58.9417 7.572 58.4437 7.354 57.7797 7.354C57.3277 7.354 56.9557 7.456 56.6637 7.66C56.3717 7.864 56.1537 8.146 56.0097 8.506C55.8657 8.866 55.7937 9.282 55.7937 9.754C55.7937 10.482 55.9617 11.066 56.2977 11.506C56.6337 11.946 57.1277 12.166 57.7797 12.166ZM65.0347 13.18C64.3987 13.18 63.8427 13.04 63.3667 12.76C62.8947 12.476 62.5267 12.082 62.2627 11.578C61.9987 11.07 61.8667 10.478 61.8667 9.802C61.8667 9.094 61.9967 8.482 62.2567 7.966C62.5167 7.446 62.8787 7.046 63.3427 6.766C63.8107 6.482 64.3587 6.34 64.9867 6.34C65.6387 6.34 66.1927 6.49 66.6487 6.79C67.1087 7.09 67.4527 7.518 67.6807 8.074C67.9127 8.63 68.0127 9.292 67.9807 10.06H66.9007V9.676C66.8887 8.88 66.7267 8.286 66.4147 7.894C66.1027 7.498 65.6387 7.3 65.0227 7.3C64.3627 7.3 63.8607 7.512 63.5167 7.936C63.1727 8.36 63.0007 8.968 63.0007 9.76C63.0007 10.524 63.1727 11.116 63.5167 11.536C63.8607 11.956 64.3507 12.166 64.9867 12.166C65.4147 12.166 65.7867 12.068 66.1027 11.872C66.4187 11.676 66.6667 11.394 66.8467 11.026L67.8727 11.38C67.6207 11.952 67.2407 12.396 66.7327 12.712C66.2287 13.024 65.6627 13.18 65.0347 13.18ZM62.6407 10.06V9.202H67.4287V10.06H62.6407ZM69.3106 13L69.3166 6.52H70.3966V9.64L73.1146 6.52H74.5006L71.6386 9.76L74.8366 13H73.3426L70.3966 9.88V13H69.3106ZM77.1498 13V7.492H74.8938V6.52H80.4738V7.492H78.2178V13H77.1498ZM81.6035 13V6.52H82.6715V9.25H86.0795V6.52H87.1475V13H86.0795V10.264H82.6715V13H81.6035ZM88.8283 13L88.8223 6.52H89.8963V8.866H90.8863C91.0743 8.866 91.2663 8.87 91.4623 8.878C91.6583 8.886 91.8283 8.904 91.9723 8.932C92.3083 9 92.6023 9.114 92.8543 9.274C93.1063 9.434 93.3023 9.65 93.4423 9.922C93.5823 10.194 93.6523 10.532 93.6523 10.936C93.6523 11.496 93.5063 11.94 93.2143 12.268C92.9263 12.592 92.5483 12.808 92.0803 12.916C91.9203 12.952 91.7363 12.976 91.5283 12.988C91.3243 12.996 91.1303 13 90.9463 13H88.8283ZM89.8963 12.118H90.9643C91.0843 12.118 91.2183 12.114 91.3663 12.106C91.5143 12.098 91.6463 12.078 91.7623 12.046C91.9663 11.986 92.1483 11.868 92.3083 11.692C92.4723 11.516 92.5543 11.264 92.5543 10.936C92.5543 10.604 92.4743 10.348 92.3143 10.168C92.1583 9.988 91.9523 9.87 91.6963 9.814C91.5803 9.786 91.4583 9.768 91.3303 9.76C91.2023 9.752 91.0803 9.748 90.9643 9.748H89.8963V12.118ZM94.3963 13V6.52H95.4643V13H94.3963ZM99.9386 5.764C99.6386 5.764 99.3646 5.69 99.1166 5.542C98.8686 5.394 98.6706 5.198 98.5226 4.954C98.3746 4.706 98.3006 4.43 98.3006 4.126H99.1646C99.1646 4.338 99.2406 4.52 99.3926 4.672C99.5446 4.824 99.7266 4.9 99.9386 4.9C100.155 4.9 100.337 4.824 100.485 4.672C100.637 4.52 100.713 4.338 100.713 4.126H101.577C101.577 4.43 101.503 4.706 101.355 4.954C101.211 5.198 101.013 5.394 100.761 5.542C100.513 5.69 100.239 5.764 99.9386 5.764ZM102.453 6.52V13H101.421V8.224L98.0246 13H97.1426V6.52H98.1746V11.23L101.577 6.52H102.453ZM46.36 30.2V29H40.834V22.52H41.902V27.986H45.076V22.52H46.144V28.028H47.428V30.2H46.36ZM51.1949 29.18C50.5589 29.18 50.0029 29.04 49.5269 28.76C49.0549 28.476 48.6869 28.082 48.4229 27.578C48.1589 27.07 48.0269 26.478 48.0269 25.802C48.0269 25.094 48.1569 24.482 48.4169 23.966C48.6769 23.446 49.0389 23.046 49.5029 22.766C49.9709 22.482 50.5189 22.34 51.1469 22.34C51.7989 22.34 52.3529 22.49 52.8089 22.79C53.2689 23.09 53.6129 23.518 53.8409 24.074C54.0729 24.63 54.1729 25.292 54.1409 26.06H53.0609V25.676C53.0489 24.88 52.8869 24.286 52.5749 23.894C52.2629 23.498 51.7989 23.3 51.1829 23.3C50.5229 23.3 50.0209 23.512 49.6769 23.936C49.3329 24.36 49.1609 24.968 49.1609 25.76C49.1609 26.524 49.3329 27.116 49.6769 27.536C50.0209 27.956 50.5109 28.166 51.1469 28.166C51.5749 28.166 51.9469 28.068 52.2629 27.872C52.5789 27.676 52.8269 27.394 53.0069 27.026L54.0329 27.38C53.7809 27.952 53.4009 28.396 52.8929 28.712C52.3889 29.024 51.8229 29.18 51.1949 29.18ZM48.8009 26.06V25.202H53.5889V26.06H48.8009ZM55.4707 29V22.52H56.5387V25.25H59.9467V22.52H61.0147V29H59.9467V26.264H56.5387V29H55.4707ZM64.4115 29V23.492H62.1555V22.52H67.7355V23.492H65.4795V29H64.4115ZM71.8473 29.18C71.2393 29.18 70.7273 29.03 70.3113 28.73C69.8953 28.426 69.5793 28.016 69.3633 27.5C69.1513 26.98 69.0453 26.398 69.0453 25.754C69.0453 25.102 69.1513 24.518 69.3633 24.002C69.5793 23.486 69.8953 23.08 70.3113 22.784C70.7313 22.488 71.2453 22.34 71.8533 22.34C72.4533 22.34 72.9693 22.49 73.4013 22.79C73.8373 23.086 74.1713 23.492 74.4033 24.008C74.6353 24.524 74.7513 25.106 74.7513 25.754C74.7513 26.402 74.6353 26.984 74.4033 27.5C74.1713 28.016 73.8373 28.426 73.4013 28.73C72.9693 29.03 72.4513 29.18 71.8473 29.18ZM68.8653 31.88V22.52H69.8193V27.29H69.9393V31.88H68.8653ZM71.7153 28.202C72.1433 28.202 72.4973 28.094 72.7773 27.878C73.0573 27.662 73.2673 27.37 73.4073 27.002C73.5473 26.63 73.6173 26.214 73.6173 25.754C73.6173 25.298 73.5473 24.886 73.4073 24.518C73.2713 24.15 73.0593 23.858 72.7713 23.642C72.4873 23.426 72.1253 23.318 71.6853 23.318C71.2653 23.318 70.9173 23.422 70.6413 23.63C70.3653 23.834 70.1593 24.12 70.0233 24.488C69.8873 24.852 69.8193 25.274 69.8193 25.754C69.8193 26.226 69.8853 26.648 70.0173 27.02C70.1533 27.388 70.3613 27.678 70.6413 27.89C70.9213 28.098 71.2793 28.202 71.7153 28.202Z" fill="#222220"/>
</svg>
