<svg width="24" height="24" viewBox="0 0 24 24" fill="none" xmlns="http://www.w3.org/2000/svg">
<g id="checkbox">
<rect width="24" height="24" fill="white"/>
<rect id="Rectangle 240648356" width="24" height="24" rx="5" fill="#222220"/>
<path id="Vector" d="M19.7062 7.89653C19.8996 7.68275 20.0048 7.4 19.9998 7.10784C19.9948 6.81568 19.8799 6.53693 19.6794 6.33031C19.4788 6.12369 19.2083 6.00533 18.9247 6.00018C18.6411 5.99502 18.3666 6.10347 18.1591 6.30267L9.44586 15.2794L5.84087 11.5654C5.63336 11.3662 5.35891 11.2578 5.07532 11.2629C4.79174 11.2681 4.52117 11.3864 4.32061 11.593C4.12005 11.7997 4.00517 12.0784 4.00017 12.3706C3.99517 12.6627 4.10043 12.9455 4.29379 13.1593L8.67232 17.6702C8.87756 17.8814 9.15578 18 9.44586 18C9.73594 18 10.0142 17.8814 10.2194 17.6702L19.7062 7.89653Z" fill="white"/>
</g>
</svg>
