<svg width="60" height="60" viewBox="0 0 60 60" fill="none" xmlns="http://www.w3.org/2000/svg">
<g id="icon">
<circle id="Ellipse 3207" cx="30" cy="30" r="30" fill="white"/>
<g id="Group">
<path id="Vector" d="M36 44.4V13.2C36 12.5364 35.4636 12 34.8 12H13.2C12.5364 12 12 12.5364 12 13.2V48H20.4V40.8H27.6V48H48V20.4C48 20.4 48 19.2 46.8 19.2H39.6M30 18V20.4M42 25.2V27.6M42 32.4V34.8M24 18V20.4M18 18V20.4M30 25.2V27.6M24 25.2V27.6M18 25.2V27.6M30 32.4V34.8M24 32.4V34.8M18 32.4V34.8" stroke="#222220" stroke-linecap="round" stroke-linejoin="round"/>
</g>
</g>
</svg>
