<svg width="30" height="30" viewBox="0 0 30 30" fill="none" xmlns="http://www.w3.org/2000/svg">
<g id="icon_calendar">
<path id="Vector" d="M21.9746 17.4978C22.3446 17.4978 22.6996 17.3473 22.9613 17.0793C23.2229 16.8114 23.37 16.4481 23.37 16.0692C23.37 15.6903 23.2229 15.327 22.9613 15.059C22.6996 14.7911 22.3446 14.6406 21.9746 14.6406C21.6045 14.6406 21.2495 14.7911 20.9878 15.059C20.7262 15.327 20.5791 15.6903 20.5791 16.0692C20.5791 16.4481 20.7262 16.8114 20.9878 17.0793C21.2495 17.3473 21.6045 17.4978 21.9746 17.4978ZM21.9746 23.2121C22.3446 23.2121 22.6996 23.0615 22.9613 22.7936C23.2229 22.5257 23.37 22.1624 23.37 21.7835C23.37 21.4046 23.2229 21.0412 22.9613 20.7733C22.6996 20.5054 22.3446 20.3549 21.9746 20.3549C21.6045 20.3549 21.2495 20.5054 20.9878 20.7733C20.7262 21.0412 20.5791 21.4046 20.5791 21.7835C20.5791 22.1624 20.7262 22.5257 20.9878 22.7936C21.2495 23.0615 21.6045 23.2121 21.9746 23.2121ZM16.3929 16.0692C16.3929 16.4481 16.2459 16.8114 15.9842 17.0793C15.7225 17.3473 15.3676 17.4978 14.9975 17.4978C14.6274 17.4978 14.2725 17.3473 14.0108 17.0793C13.7491 16.8114 13.6021 16.4481 13.6021 16.0692C13.6021 15.6903 13.7491 15.327 14.0108 15.059C14.2725 14.7911 14.6274 14.6406 14.9975 14.6406C15.3676 14.6406 15.7225 14.7911 15.9842 15.059C16.2459 15.327 16.3929 15.6903 16.3929 16.0692ZM16.3929 21.7835C16.3929 22.1624 16.2459 22.5257 15.9842 22.7936C15.7225 23.0615 15.3676 23.2121 14.9975 23.2121C14.6274 23.2121 14.2725 23.0615 14.0108 22.7936C13.7491 22.5257 13.6021 22.1624 13.6021 21.7835C13.6021 21.4046 13.7491 21.0412 14.0108 20.7733C14.2725 20.5054 14.6274 20.3549 14.9975 20.3549C15.3676 20.3549 15.7225 20.5054 15.9842 20.7733C16.2459 21.0412 16.3929 21.4046 16.3929 21.7835ZM8.02041 17.4978C8.3905 17.4978 8.74543 17.3473 9.00712 17.0793C9.26881 16.8114 9.41583 16.4481 9.41583 16.0692C9.41583 15.6903 9.26881 15.327 9.00712 15.059C8.74543 14.7911 8.3905 14.6406 8.02041 14.6406C7.65033 14.6406 7.2954 14.7911 7.03371 15.059C6.77202 15.327 6.625 15.6903 6.625 16.0692C6.625 16.4481 6.77202 16.8114 7.03371 17.0793C7.2954 17.3473 7.65033 17.4978 8.02041 17.4978ZM8.02041 23.2121C8.3905 23.2121 8.74543 23.0615 9.00712 22.7936C9.26881 22.5257 9.41583 22.1624 9.41583 21.7835C9.41583 21.4046 9.26881 21.0412 9.00712 20.7733C8.74543 20.5054 8.3905 20.3549 8.02041 20.3549C7.65033 20.3549 7.2954 20.5054 7.03371 20.7733C6.77202 21.0412 6.625 21.4046 6.625 21.7835C6.625 22.1624 6.77202 22.5257 7.03371 22.7936C7.2954 23.0615 7.65033 23.2121 8.02041 23.2121Z" fill="#222220"/>
<path id="Vector_2" fill-rule="evenodd" clip-rule="evenodd" d="M8.02223 0C8.2998 0 8.566 0.112882 8.76226 0.313814C8.95853 0.514746 9.06879 0.787268 9.06879 1.07143V2.16143C9.99256 2.14286 11.0098 2.14286 12.1289 2.14286H17.8683C18.9888 2.14286 20.006 2.14286 20.9298 2.16143V1.07143C20.9298 0.787268 21.0401 0.514746 21.2363 0.313814C21.4326 0.112882 21.6988 0 21.9764 0C22.2539 0 22.5201 0.112882 22.7164 0.313814C22.9127 0.514746 23.0229 0.787268 23.0229 1.07143V2.25286C23.3857 2.28143 23.729 2.31714 24.0541 2.36143C25.6896 2.58714 27.0138 3.06143 28.059 4.13C29.1027 5.2 29.566 6.55571 29.7865 8.23C30 9.85857 30 11.9371 30 14.5629V17.58C30 20.2057 30 22.2857 29.7865 23.9129C29.566 25.5871 29.1027 26.9429 28.059 28.0129C27.0138 29.0814 25.6896 29.5557 24.0541 29.7814C22.4634 30 20.433 30 17.8683 30H12.1317C9.56696 30 7.53523 30 5.94586 29.7814C4.31043 29.5557 2.98619 29.0814 1.94102 28.0129C0.897251 26.9429 0.433974 25.5871 0.213498 23.9129C0 22.2843 0 20.2057 0 17.58V14.5629C0 11.9371 0 9.85714 0.213498 8.23C0.433974 6.55571 0.897251 5.2 1.94102 4.13C2.98619 3.06143 4.31043 2.58714 5.94586 2.36143C6.27099 2.31714 6.61566 2.28143 6.97707 2.25286V1.07143C6.97707 0.787515 7.08714 0.51521 7.28311 0.314319C7.47907 0.113428 7.74491 0.000378551 8.02223 0ZM6.22215 4.48571C4.81976 4.67857 4.01042 5.04143 3.42016 5.64571C2.8299 6.25 2.47546 7.07857 2.28708 8.51571C2.25499 8.75857 2.22848 9.01571 2.20615 9.28571H27.7925C27.7701 9.01429 27.7436 8.75857 27.7115 8.51429C27.5231 7.07857 27.1687 6.25 26.5784 5.64571C25.9882 5.04143 25.1788 4.67857 23.7751 4.48571C22.342 4.28857 20.4512 4.28571 17.7901 4.28571H12.2085C9.54742 4.28571 7.65803 4.28857 6.22215 4.48571ZM2.09173 14.6429C2.09173 13.4229 2.09173 12.3614 2.10987 11.4286H27.8887C27.9069 12.3614 27.9069 13.4229 27.9069 14.6429V17.5C27.9069 20.2243 27.9041 22.16 27.7115 23.6286C27.5231 25.0643 27.1687 25.8929 26.5784 26.4971C25.9882 27.1014 25.1788 27.4643 23.7751 27.6571C22.342 27.8543 20.4512 27.8571 17.7901 27.8571H12.2085C9.54742 27.8571 7.65803 27.8543 6.22215 27.6571C4.81976 27.4643 4.01042 27.1014 3.42016 26.4971C2.8299 25.8929 2.47546 25.0643 2.28708 23.6271C2.09452 22.16 2.09173 20.2243 2.09173 17.5V14.6429Z" fill="#222220"/>
</g>
</svg>
