<svg width="60" height="60" viewBox="0 0 60 60" fill="none" xmlns="http://www.w3.org/2000/svg">
<circle cx="30" cy="30" r="30" fill="white"/>
<path d="M48.5795 25.9596L43.1971 24.2434V20.0818C43.1971 19.8451 43.0685 19.6295 42.864 19.5254L28.3287 12.0598C28.3271 12.059 28.3239 12.059 28.3174 12.059C28.29 12.0439 28.1816 11.9919 28.0239 12.0011C27.8598 12.0103 27.7402 12.0925 27.7175 12.1111L17.3512 19.783C17.1935 19.8997 17.0997 20.0876 17.0997 20.2883V25.6449L15.1737 25.4065C15.1729 25.4065 15.1672 25.4073 15.1567 25.409C15.1317 25.4073 15.0734 25.4048 15.0185 25.4124C14.9489 25.4216 14.8891 25.4452 14.8665 25.4544C14.8632 25.4552 14.8609 25.456 14.8609 25.456L11.3558 27.0673C11.1391 27.1663 11 27.3896 11 27.6346V38.013C11 38.2404 11.1197 38.4494 11.3105 38.5568L14.8236 40.5558C14.8236 40.5558 14.9158 40.6112 15.0265 40.6254C15.1252 40.6388 15.1972 40.6254 15.1972 40.6254L17.0988 40.3384V41.4823C17.0988 41.7097 17.2185 41.9178 17.4093 42.0269L27.774 47.9222C27.774 47.9222 27.8896 47.9919 28.0409 47.9995C28.1565 48.0053 28.2697 47.9617 28.2697 47.9617V47.9583C28.2713 47.9583 28.2729 47.9583 28.2729 47.9583L42.8089 42.2224L48.6143 39.9313C48.8463 39.8399 49 39.6092 49 39.3515V26.5537C49.0024 26.2802 48.8309 26.0393 48.5795 25.9596ZM12.668 35.4333C12.668 35.4979 12.6389 35.5592 12.5887 35.5977C12.5531 35.6254 12.5111 35.6405 12.4683 35.6405C12.4504 35.6405 12.4327 35.638 12.4149 35.633L11.7495 35.4408C11.663 35.4156 11.6032 35.3342 11.6032 35.2411V33.316C11.6032 33.258 11.6266 33.2018 11.6686 33.1624C11.7099 33.123 11.7657 33.1045 11.8214 33.1103L12.4868 33.1775C12.5887 33.1884 12.6671 33.2765 12.6671 33.3831V35.4332H12.668V35.4333ZM12.668 31.3338C12.668 31.442 12.588 31.531 12.4844 31.5402L11.819 31.5973C11.8142 31.5973 11.8085 31.5973 11.8029 31.5973C11.7535 31.5973 11.705 31.5788 11.6678 31.5436C11.6266 31.5041 11.6032 31.4496 11.6032 31.3908V29.4657C11.6032 29.3717 11.6646 29.2895 11.7519 29.266L12.4174 29.0839C12.4772 29.068 12.5403 29.0814 12.5896 29.1209C12.639 29.1595 12.6672 29.2199 12.6672 29.2837V31.3338H12.668V31.3338ZM14.6134 35.9947C14.6134 36.0593 14.5843 36.1197 14.5349 36.1591C14.4993 36.1868 14.4573 36.2011 14.4144 36.2011C14.3967 36.2011 14.3788 36.1985 14.3611 36.1935L13.449 35.93C13.3625 35.9057 13.3027 35.8234 13.3027 35.7311V33.4879C13.3027 33.4301 13.3261 33.3738 13.3682 33.3344C13.4094 33.295 13.4652 33.2765 13.5218 33.2824L14.4339 33.3747C14.5366 33.3847 14.6141 33.4737 14.6141 33.5803V35.9947H14.6134ZM14.6134 31.1676C14.6134 31.275 14.5333 31.3648 14.4307 31.3741L13.5178 31.4521C13.5122 31.4521 13.5073 31.4521 13.5017 31.4521C13.4515 31.4521 13.403 31.4328 13.3666 31.3976C13.3254 31.3582 13.302 31.3036 13.302 31.2448V29.0025C13.302 28.9085 13.3635 28.8263 13.4507 28.802L14.3636 28.5536C14.4234 28.5368 14.4864 28.5502 14.5358 28.5896C14.5843 28.6291 14.6134 28.6895 14.6134 28.7533V31.1676ZM19.6062 37.4331C19.6062 37.4977 19.577 37.559 19.5277 37.5975C19.4929 37.6252 19.4501 37.6403 19.4072 37.6403C19.3886 37.6403 19.3708 37.6379 19.3538 37.6328L18.1774 37.2938C18.0909 37.2686 18.031 37.1872 18.031 37.0949V33.9672C18.031 33.9085 18.0545 33.853 18.0966 33.8136C18.1378 33.7742 18.1936 33.7557 18.2493 33.7599L19.4258 33.88C19.5284 33.89 19.606 33.979 19.606 34.0855V37.4331H19.6062ZM19.6062 30.7396C19.6062 30.847 19.5269 30.9369 19.4235 30.9452L18.247 31.0459C18.2421 31.0468 18.2365 31.0468 18.2308 31.0468C18.1806 31.0468 18.1322 31.0275 18.0958 30.9923C18.0545 30.9528 18.0311 30.8974 18.0311 30.8395V27.7118C18.0311 27.6178 18.0925 27.5356 18.1799 27.5121L19.3563 27.1907C19.4161 27.1748 19.48 27.1882 19.5285 27.2276C19.577 27.2662 19.6061 27.3266 19.6061 27.3905V30.7396H19.6062ZM19.6062 24.0445C19.6062 24.1267 19.5601 24.2014 19.4881 24.2342L18.3117 24.7746C18.2858 24.7864 18.2583 24.7931 18.2309 24.7931C18.1929 24.7931 18.1549 24.7813 18.1217 24.7595C18.0651 24.7209 18.0312 24.6554 18.0312 24.5857V21.4581C18.0312 21.3867 18.0668 21.3204 18.125 21.2826L19.3014 20.5223C19.3629 20.4821 19.4404 20.4804 19.5035 20.5165C19.5666 20.5535 19.6062 20.6222 19.6062 20.6978L19.6062 24.0445ZM22.5371 38.2782C22.5371 38.3427 22.508 38.404 22.4587 38.4426C22.4239 38.4703 22.381 38.4854 22.3382 38.4854C22.3204 38.4854 22.3026 38.4829 22.2848 38.4779L20.7089 38.023C20.6224 37.9987 20.5626 37.9164 20.5626 37.8241V34.2232C20.5626 34.1652 20.5861 34.109 20.6281 34.0696C20.6694 34.0311 20.7251 34.0126 20.7809 34.0176L22.3575 34.177C22.4594 34.1879 22.537 34.276 22.537 34.3826V38.2782H22.5371ZM22.5371 30.4878C22.5371 30.5961 22.4579 30.6851 22.3544 30.6943L20.7786 30.8294C20.7729 30.8294 20.7673 30.8303 20.7616 30.8303C20.7114 30.8303 20.6637 30.8102 20.6266 30.7749C20.5853 30.7355 20.5619 30.6809 20.5619 30.6222V27.022C20.5619 26.928 20.6233 26.8458 20.7107 26.8222L22.2865 26.3917C22.3463 26.3749 22.4102 26.3884 22.4587 26.4278C22.508 26.4672 22.5363 26.5276 22.5363 26.5915V30.4878H22.5371ZM22.5371 22.6976C22.5371 22.7799 22.491 22.8545 22.4191 22.8873L20.8432 23.6115C20.8173 23.6242 20.7899 23.6292 20.7624 23.6292C20.7244 23.6292 20.6864 23.6174 20.654 23.5956C20.5975 23.5579 20.5635 23.4924 20.5635 23.4219V19.8217C20.5635 19.7503 20.5991 19.6841 20.6573 19.6463L22.2331 18.6267C22.2945 18.5864 22.3721 18.5847 22.4352 18.6208C22.4983 18.6577 22.5379 18.7265 22.5379 18.802V22.6976H22.5371ZM26.6154 39.4539C26.6154 39.5152 26.5927 39.5739 26.5507 39.6159C26.4779 39.6922 26.3801 39.6922 26.3461 39.6922C26.3461 39.6922 26.3461 39.6922 26.3454 39.6922C25.9524 39.6922 24.4275 39.1224 24.1267 39.0091C24.0475 38.9797 23.9957 38.9017 23.9957 38.8144V34.5713C23.9957 34.5135 24.0191 34.4573 24.0604 34.4178C24.1024 34.3784 24.1582 34.3599 24.214 34.3658L26.4351 34.5907C26.5369 34.6016 26.6153 34.6905 26.6153 34.7962C26.6154 34.8416 26.6138 39.255 26.6154 39.4539ZM26.6154 30.1387C26.6154 30.2461 26.5354 30.336 26.4319 30.3443L24.2108 30.5348C24.2052 30.5348 24.1995 30.5357 24.1946 30.5357C24.1445 30.5357 24.096 30.5155 24.0596 30.4802C24.0183 30.4408 23.9949 30.3863 23.9949 30.3275V26.0845C23.9949 25.9913 24.0555 25.9083 24.1437 25.8848L26.3647 25.2789C26.4246 25.2621 26.4876 25.2755 26.5369 25.315C26.5862 25.3544 26.6145 25.4149 26.6145 25.4786V30.1387H26.6154V30.1387ZM26.6154 20.8228C26.6154 20.905 26.5685 20.9789 26.4966 21.0117L24.2755 22.033C24.2496 22.0456 24.2221 22.0506 24.1947 22.0506C24.1567 22.0506 24.1187 22.0389 24.0855 22.0171C24.0289 21.9785 23.995 21.9138 23.995 21.8433V17.6011C23.995 17.529 24.0306 17.4626 24.0888 17.4249L26.3099 15.9891C26.3713 15.9488 26.4489 15.9471 26.512 15.9832C26.5751 16.0201 26.6147 16.0889 26.6147 16.1645V20.8228H26.6154ZM35.4447 18.5008C35.4447 18.4311 35.4787 18.3665 35.5345 18.3279C35.5902 18.2893 35.6614 18.2834 35.7229 18.3103L38.0936 19.3744C38.1663 19.4072 38.214 19.4818 38.214 19.5649V23.2397C38.214 23.3052 38.1841 23.3673 38.1331 23.4059C38.0984 23.4327 38.0572 23.447 38.0151 23.447C37.9957 23.447 37.9754 23.4436 37.9569 23.4377L35.5862 22.6816C35.5021 22.6548 35.4455 22.5743 35.4455 22.4844V18.5008H35.4447ZM35.4447 26.4656C35.4447 26.4043 35.4706 26.3457 35.5159 26.3071C35.5612 26.2676 35.6218 26.2517 35.6792 26.2626L38.0507 26.7107C38.1453 26.7292 38.214 26.8139 38.214 26.9138V30.623C38.214 30.68 38.1913 30.7355 38.1501 30.7749C38.113 30.811 38.0644 30.8303 38.0143 30.8303C38.0094 30.8303 38.0046 30.8294 38.0005 30.8294L35.6299 30.654C35.5256 30.6465 35.4446 30.5567 35.4446 30.4484V26.4656H35.4447ZM29.2731 15.7314C29.2731 15.6618 29.307 15.5972 29.3629 15.5586C29.4186 15.5208 29.4898 15.5141 29.5513 15.5418L32.9189 17.0532C32.9917 17.0859 33.0393 17.1606 33.0393 17.2437V21.5899C33.0393 21.6554 33.0094 21.7175 32.9584 21.7561C32.9237 21.783 32.8816 21.7972 32.8404 21.7972C32.821 21.7972 32.8008 21.7939 32.7813 21.788L29.4138 20.7138C29.3297 20.6878 29.2731 20.6072 29.2731 20.5166V15.7314ZM29.2731 30.0817V25.2982C29.2731 25.2369 29.299 25.1783 29.3442 25.1397C29.3895 25.1002 29.4493 25.0843 29.5076 25.0952L32.8751 25.7322C32.9697 25.7506 33.0392 25.8362 33.0392 25.9361V30.2822C33.0392 30.3393 33.0166 30.3938 32.9762 30.4333C32.939 30.4693 32.8897 30.4895 32.8396 30.4895C32.8355 30.4895 32.8315 30.4895 32.8282 30.4887L29.4607 30.2889C29.3556 30.2814 29.2731 30.1917 29.2731 30.0817ZM35.8433 44.3876C35.8433 44.474 35.7916 44.5495 35.7148 44.5806L31.3074 46.3194C31.2847 46.3286 31.2605 46.3328 31.2371 46.3328C31.1974 46.3328 31.1571 46.3202 31.1239 46.2967C31.0697 46.2581 31.0381 46.1943 31.0381 46.1264V34.7401C31.0381 34.631 31.1191 34.5412 31.2241 34.5336L35.6315 34.2239C35.6873 34.2198 35.7407 34.2407 35.7811 34.2794C35.8215 34.3179 35.8442 34.3725 35.8442 34.4304V44.3876H35.8433ZM41.1547 42.2912C41.1547 42.3776 41.1037 42.454 41.0261 42.4842L38.0854 43.6448C38.062 43.654 38.0385 43.6591 38.0143 43.6591C37.9746 43.6591 37.935 43.6457 37.9011 43.6222C37.8477 43.5836 37.8153 43.5198 37.8153 43.4519V34.2642C37.8153 34.1552 37.8962 34.0654 38.0013 34.0578L40.9419 33.8513C40.9978 33.8471 41.0511 33.8673 41.0916 33.9059C41.132 33.9445 41.1547 33.9999 41.1547 34.0569V42.2912ZM42.0044 30.8143C42.0044 30.8714 41.9818 30.926 41.9413 30.9654C41.9041 31.0014 41.8548 31.0216 41.8047 31.0216C41.8006 31.0216 41.7967 31.0216 41.7934 31.0216L40.034 30.9167C39.9289 30.91 39.8464 30.8202 39.8464 30.7103V27.2981C39.8464 27.2368 39.8731 27.1781 39.9175 27.1386C39.9636 27.0992 40.0235 27.0841 40.0816 27.0942L41.8402 27.4273C41.9349 27.4449 42.0044 27.5305 42.0044 27.6304V30.8143H42.0044ZM42.0044 24.4481C42.0044 24.5136 41.9745 24.5757 41.9235 24.6143C41.8888 24.6412 41.8467 24.6555 41.8055 24.6555C41.7861 24.6555 41.7658 24.6521 41.7464 24.6454L39.9878 24.0848C39.9038 24.0579 39.8472 23.9774 39.8472 23.8876V20.4754C39.8472 20.4058 39.8811 20.3412 39.9369 20.3026C39.9926 20.264 40.0638 20.2581 40.1253 20.2858L41.8847 21.0747C41.9575 21.1074 42.0051 21.182 42.0051 21.2651V24.4482H42.0044V24.4481ZM45.5199 36.4781C45.5199 36.5771 45.4521 36.6627 45.3583 36.6811L44.0799 36.9371C44.067 36.9396 44.0548 36.9404 44.0428 36.9404C43.9967 36.9404 43.9514 36.9237 43.9158 36.8926C43.8698 36.854 43.8439 36.7953 43.8439 36.7341V33.8414C43.8439 33.7323 43.9247 33.6425 44.0298 33.6349L45.3082 33.5451C45.3631 33.5417 45.4173 33.5618 45.4577 33.6005C45.4981 33.639 45.5208 33.6936 45.5208 33.7515V36.4781H45.5199V36.4781ZM45.5199 31.0241C45.5199 31.0803 45.4973 31.1349 45.4569 31.1743C45.4197 31.2104 45.3712 31.2304 45.3203 31.2304C45.3162 31.2304 45.313 31.2304 45.3089 31.2304L44.0306 31.1541C43.9255 31.1474 43.8431 31.0577 43.8431 30.9477V28.0551C43.8431 27.9938 43.869 27.9359 43.9141 27.8965C43.9595 27.857 44.0193 27.8411 44.0775 27.8511L45.3551 28.0928C45.4496 28.1105 45.5191 28.1969 45.5191 28.2967V31.0241H45.5199ZM47.6812 36.0451C47.6812 36.1441 47.6133 36.2297 47.5195 36.2482L46.4967 36.4529C46.4838 36.4554 46.4717 36.4563 46.4596 36.4563C46.4135 36.4563 46.3682 36.4395 46.3326 36.4085C46.2865 36.369 46.2606 36.3111 46.2606 36.2499V33.6702C46.2606 33.5619 46.3423 33.4721 46.4466 33.4645L47.4686 33.3923C47.5236 33.3882 47.5778 33.4091 47.6182 33.4469C47.6586 33.4863 47.6813 33.5409 47.6813 33.5989V36.0451H47.6812ZM47.6812 31.1517C47.6812 31.2088 47.6585 31.2633 47.619 31.3027C47.5819 31.3388 47.5333 31.3589 47.4824 31.3589C47.4783 31.3589 47.4751 31.3589 47.471 31.3581L46.449 31.2976C46.3439 31.2917 46.2614 31.2012 46.2614 31.0912V28.5451C46.2614 28.4847 46.2865 28.4267 46.331 28.3873C46.3747 28.3479 46.4328 28.3311 46.4903 28.3394L47.513 28.4997C47.6109 28.5148 47.6821 28.6022 47.6821 28.7045V31.1516L47.6812 31.1517Z" fill="#222220"/>
</svg>
