<svg width="60" height="60" viewBox="0 0 60 60" fill="none" xmlns="http://www.w3.org/2000/svg">
<circle cx="30" cy="30" r="30" fill="white"/>
<path d="M35.3011 20.2535C35.3011 19.0687 34.7178 17.9724 33.7281 17.3181L26.6583 12.5968C25.4741 11.8011 23.9188 11.8011 22.7346 12.5968L15.6648 17.3181C14.6927 17.9724 14.0918 19.0687 14.0918 20.2535V30.2972C14.0918 30.7923 14.4806 31.1814 14.9755 31.1814H34.4174C34.9123 31.1814 35.3011 30.7923 35.3011 30.2972V20.2535ZM24.6964 26.7607C22.9997 26.7607 21.6034 25.3638 21.6034 23.6662C21.6034 21.9687 22.9997 20.5717 24.6964 20.5717C26.3932 20.5717 27.7895 21.9687 27.7895 23.6662C27.7895 25.3638 26.3932 26.7607 24.6964 26.7607Z" fill="#222220"/>
<path d="M47.6744 45.3293H45.4298V40.0245C47.1088 39.4763 48.3284 37.9025 48.3284 36.0459V32.5093C48.3284 30.1928 46.4372 28.3008 44.1219 28.3008C41.8065 28.3008 39.9153 30.1928 39.9153 32.5093V36.0459C39.9153 37.8849 41.1172 39.441 42.7609 40.0068V45.3293H35.3023V34.7196C35.3023 34.2245 34.9135 33.8355 34.4186 33.8355H14.9767C14.4819 33.8355 14.093 34.2245 14.093 34.7196V45.3293H12.3256C11.6009 45.3293 11 45.9305 11 46.6555C11 47.3805 11.6009 47.9818 12.3256 47.9818H44.0158C44.0512 47.9818 44.0688 47.9994 44.1042 47.9994C44.1395 47.9994 44.1572 47.9818 44.1926 47.9818H47.6744C48.3991 47.9818 49 47.3805 49 46.6555C49 45.9305 48.3991 45.3293 47.6744 45.3293ZM23.3721 40.0245C23.3721 39.2995 23.973 38.6983 24.6977 38.6983C25.4223 38.6983 26.0233 39.2995 26.0233 40.0245V45.3293H23.3721V40.0245Z" fill="#222220"/>
</svg>
