<svg width="60" height="60" viewBox="0 0 60 60" fill="none" xmlns="http://www.w3.org/2000/svg">
<circle cx="30" cy="30" r="30" fill="white"/>
<path d="M45.5633 31.6875H44.4382H21.9436C21.9425 31.6875 21.9414 31.6875 21.9402 31.6875H16.3126H15.1875C14.257 31.6875 13.5 32.4446 13.5 33.375C13.5 33.6857 13.7519 33.9376 14.0625 33.9376C14.3732 33.9376 14.625 33.6857 14.625 33.375C14.625 33.0649 14.8774 32.8125 15.1875 32.8125H15.6485L14.3426 40.6485C14.145 41.8343 14.3767 43.055 14.9952 44.0858L15.7501 45.3436V47.3676C15.7501 47.7165 16.034 48.0004 16.3829 48.0004H44.3679C44.7168 48.0004 45.0007 47.7165 45.0007 47.3676V45.3436L45.7556 44.0858C46.374 43.055 46.6058 41.8343 46.4082 40.6485L45.1023 32.8125H45.5633C45.8734 32.8125 46.1258 33.0649 46.1258 33.375C46.1258 33.6857 46.3776 33.9376 46.6883 33.9376C46.9989 33.9376 47.2508 33.6857 47.2508 33.375C47.2508 32.4446 46.4938 31.6875 45.5633 31.6875ZM41.9783 43.507L41.3072 44.6253H39.644L40.0414 43.6318C40.3497 42.861 40.4643 42.0174 40.3726 41.1923L39.4416 32.8125H41.1491L42.486 40.8335C42.6396 41.7558 42.4593 42.7052 41.9783 43.507ZM36.7461 44.6253L37.1212 43.3111C37.2877 42.7281 37.3478 42.1259 37.2999 41.5212L36.6094 32.8125H38.3096L39.2545 41.3165C39.3258 41.9583 39.2367 42.6144 38.9968 43.2138L38.4323 44.6253H36.7461ZM33.783 44.6253L33.8988 42.5685C33.9055 42.4482 33.908 42.326 33.9061 42.2051L33.7593 32.8125H35.4808L36.1784 41.6102C36.2156 42.0804 36.1689 42.5488 36.0394 43.0022L35.5761 44.6253H33.783ZM30.9379 44.6253V32.8125H32.6342L32.7812 42.2227C32.7827 42.3167 32.7808 42.4118 32.7755 42.5054L32.6562 44.6253H30.9379ZM28.0912 44.6253L27.9596 42.5198C27.9531 42.4155 27.9508 42.3099 27.9526 42.2057L28.1157 32.8125H29.8129V44.6253H28.0912ZM19.4436 44.6253L18.7725 43.507C18.2915 42.7053 18.1112 41.7559 18.2648 40.8335L19.6017 32.8125H21.3092L20.3781 41.1923C20.2864 42.0174 20.401 42.861 20.7093 43.6318L21.1067 44.6253H19.4436ZM22.3185 44.6253L21.7539 43.2139C21.5141 42.6145 21.425 41.9584 21.4963 41.3166L22.4412 32.8125H24.1411L23.4461 41.5153C23.3975 42.1241 23.4584 42.7303 23.6271 43.3173L24.0032 44.6253H22.3185ZM25.1738 44.6253L24.7084 43.0063C24.5771 42.5499 24.5297 42.0784 24.5675 41.6048L25.2697 32.8125H26.9905L26.8278 42.1862C26.8254 42.3199 26.8285 42.4558 26.8368 42.5899L26.9641 44.6253H25.1738ZM15.4523 40.8335L16.7891 32.8125H18.4612L17.1551 40.6485C16.9576 41.8343 17.1893 43.055 17.8078 44.0858L18.1315 44.6253H16.631L15.9599 43.507C15.4789 42.7052 15.2986 41.7558 15.4523 40.8335ZM43.8757 46.8754H16.8751V45.7503H19.1246C19.1249 45.7503 19.1253 45.7504 19.1256 45.7504C19.126 45.7504 19.1263 45.7503 19.1267 45.7503H21.936C21.9366 45.7503 21.9372 45.7505 21.9378 45.7505C21.9388 45.7505 21.9398 45.7503 21.9408 45.7503H24.7483C24.7489 45.7503 24.7494 45.7505 24.75 45.7505C24.7506 45.7505 24.7513 45.7503 24.752 45.7503H35.9988C35.9995 45.7503 36.0002 45.7505 36.0008 45.7505C36.0014 45.7505 36.0019 45.7503 36.0025 45.7503H38.81C38.811 45.7503 38.812 45.7505 38.813 45.7505C38.8136 45.7505 38.8141 45.7503 38.8148 45.7503H41.6241C41.6245 45.7503 41.6248 45.7504 41.6252 45.7504C41.6255 45.7504 41.6259 45.7503 41.6262 45.7503H43.8757V46.8754ZM44.7909 43.507L44.1198 44.6253H42.6193L42.943 44.0858C43.5615 43.055 43.7932 41.8343 43.5956 40.6485L42.2897 32.8125H43.9617L45.2985 40.8335C45.4522 41.7558 45.2719 42.7052 44.7909 43.507Z" fill="#222220"/>
<path d="M19.6875 30.5629C19.9982 30.5629 20.25 30.3111 20.25 30.0004V13.125H40.5005V30.0004C40.5005 30.3111 40.7524 30.5629 41.063 30.5629C41.3737 30.5629 41.6255 30.3111 41.6255 30.0004V13.125C41.6255 12.5047 41.1208 12 40.5005 12H20.25C19.6297 12 19.125 12.5047 19.125 13.125V30.0004C19.125 30.3111 19.3769 30.5629 19.6875 30.5629Z" fill="#222220"/>
<path d="M38.8129 30.5629C39.1236 30.5629 39.3754 30.311 39.3754 30.0004V14.8125C39.3754 14.5019 39.1236 14.25 38.8129 14.25H21.9375C21.6269 14.25 21.375 14.5019 21.375 14.8125V30.0004C21.375 30.311 21.6269 30.5629 21.9375 30.5629C22.2482 30.5629 22.5 30.311 22.5 30.0004V21.5627H28.1251C28.4357 21.5627 28.6876 21.3108 28.6876 21.0002C28.6876 20.6895 28.4357 20.4376 28.1251 20.4376H22.5V15.375H29.8127V30.0004C29.8127 30.311 30.0646 30.5629 30.3752 30.5629C30.6859 30.5629 30.9377 30.311 30.9377 30.0004V21.5627H38.2504V30.0004C38.2504 30.311 38.5023 30.5629 38.8129 30.5629ZM30.9377 20.4376V15.375H38.2504V20.4376H30.9377Z" fill="#222220"/>
</svg>
