<svg width="60" height="60" viewBox="0 0 60 60" fill="none" xmlns="http://www.w3.org/2000/svg">
<circle cx="30" cy="30" r="30" fill="white"/>
<path d="M47.6161 15.0964L38.9033 12.0325C38.7801 11.9892 38.6456 11.9892 38.5222 12.0325L30 15.0294L21.4777 12.0325C21.3545 11.9892 21.2199 11.9892 21.0965 12.0325L12.3838 15.0964C12.1539 15.1772 12 15.3945 12 15.6383V47.4255C12 47.6119 12.0904 47.7866 12.2424 47.8943C12.3946 48.002 12.5894 48.0293 12.7651 47.9674L21.2873 44.9707L29.8096 47.9674C29.9329 48.0108 30.0674 48.0108 30.1908 47.9674L38.7129 44.9707L47.2352 47.9674C47.2972 47.9892 47.3615 48 47.4256 48C47.5431 48 47.6594 47.964 47.7578 47.8943C47.9098 47.7866 48.0002 47.6118 48.0002 47.4255V15.6383C48 15.3945 47.8461 15.1772 47.6161 15.0964ZM20.7128 17.4461C20.7128 17.4469 20.7128 27.977 20.7128 27.977L16.9797 29.2898C16.7497 29.3706 16.5958 29.5879 16.5958 29.8317V33.4699C16.5958 33.7872 16.853 34.0444 17.1702 34.0444C17.4875 34.0444 17.7447 33.7872 17.7447 33.4699V30.2386L20.7128 29.1949V39.0832L17.7447 40.1269V37.2997C17.7447 36.9824 17.4875 36.7252 17.1702 36.7252C16.853 36.7252 16.5958 36.9824 16.5958 37.2997V40.938C16.5958 41.1243 16.6861 41.299 16.8382 41.4067C16.9903 41.5144 17.1851 41.5416 17.3608 41.4799L20.7128 40.3012V43.9549L13.1489 46.6146V16.0453L20.7127 13.3855L20.7128 17.4461ZM29.4256 46.6146L21.8618 43.9548V40.3011L29.4256 42.9608V46.6146ZM29.4256 30.6367L26.2181 29.5088V26.3617C26.2181 26.0445 25.9609 25.7873 25.6437 25.7873C25.3264 25.7873 25.0692 26.0445 25.0692 26.3617V29.9157C25.0692 30.1595 25.223 30.3768 25.4531 30.4576L29.4256 31.8545V41.7427L21.8618 39.083V18.257L25.0693 19.3849V22.532C25.0693 22.8493 25.3265 23.1065 25.6437 23.1065C25.961 23.1065 26.2182 22.8493 26.2182 22.532V19.7889L29.4256 20.9168L29.4256 30.6367ZM29.4256 19.6989L21.8617 17.0391V13.3855L29.4256 16.0453V19.6989ZM39.2872 18.257L42.2553 19.3008V29.0208L39.2872 27.977V18.257ZM30.5745 16.0453L38.1383 13.3855V17.0392L30.5745 19.6989V16.0453ZM30.5745 20.9168L33.7819 19.7889V22.532C33.7819 22.8492 34.0391 23.1064 34.3564 23.1064C34.6736 23.1064 34.9308 22.8492 34.9308 22.532V19.3849L38.1383 18.257V27.977L34.9308 29.1048V26.3618C34.9308 26.0446 34.6736 25.7874 34.3564 25.7874C34.0391 25.7874 33.7819 26.0446 33.7819 26.3618V29.5089L30.5745 30.6368V20.9168ZM38.1383 43.9548L30.5745 46.6146V42.9608L38.1383 40.3011V43.9548H38.1383ZM38.7128 34.5115C38.3955 34.5115 38.1383 34.7687 38.1383 35.0859V39.0832L30.5745 41.743V31.8547L38.1383 29.1949V32.7881C38.1383 33.1053 38.3955 33.3625 38.7127 33.3625C39.03 33.3625 39.2872 33.1053 39.2872 32.7881V29.1948L42.2553 30.2386V40.1269L39.2872 39.0832V35.086C39.2872 34.7687 39.03 34.5115 38.7128 34.5115ZM46.8511 46.6146L39.2873 43.9549V40.3011L42.6394 41.4798C42.8151 41.5417 43.0099 41.5143 43.162 41.4067C43.314 41.2989 43.4045 41.1241 43.4045 40.9379V18.8938C43.4045 18.6501 43.2505 18.4327 43.0206 18.3519L39.2874 17.0391V13.3855L46.8511 16.0453V46.6146Z" fill="#222220"/>
</svg>
