<svg width="60" height="60" viewBox="0 0 60 60" fill="none" xmlns="http://www.w3.org/2000/svg">
<g id="icon">
<circle id="Ellipse 3207" cx="30" cy="30" r="30" fill="white"/>
<g id="Group 2085662863">
<path id="Vector" d="M37.2267 32.9117L32.3426 35.8429L31.6436 36.2624C31.6143 36.2802 31.5887 36.3038 31.5682 36.3319C31.5477 36.36 31.5327 36.392 31.5241 36.4261C31.5155 36.4602 31.5134 36.4957 31.518 36.5307C31.5226 36.5656 31.5338 36.5992 31.5509 36.6297C31.568 36.6601 31.5907 36.6867 31.6177 36.7081C31.6447 36.7294 31.6755 36.7449 31.7083 36.7539C31.7411 36.7628 31.7753 36.765 31.8089 36.7602C31.8425 36.7554 31.8749 36.7438 31.9041 36.726L36.7882 33.7948L37.4872 33.3752C37.5165 33.3575 37.5421 33.3338 37.5626 33.3058C37.5831 33.2777 37.5981 33.2457 37.6067 33.2116C37.6153 33.1775 37.6174 33.142 37.6128 33.107C37.6082 33.0721 37.597 33.0385 37.5799 33.008C37.5628 32.9776 37.5401 32.9509 37.5131 32.9296C37.4861 32.9083 37.4553 32.8927 37.4225 32.8838C37.3897 32.8748 37.3555 32.8727 37.3219 32.8775C37.2883 32.8823 37.256 32.8939 37.2267 32.9117Z" fill="#222220"/>
<g id="Group 2085662870">
<path id="Vector_2" d="M43.1598 15.3632C41.4538 14.4205 39.5466 13.3692 37.639 12.3164C35.7338 13.3682 33.8287 14.4183 32.125 15.3599C32.125 24.1796 32.125 33.001 32.125 33.0019C34.0018 34.041 37.6133 36.0338 37.639 36.0478C39.3447 35.1069 41.2522 34.0537 43.1598 33.0005V15.3632Z" fill="white"/>
<path id="Vector_3" d="M43.1375 18.8281C41.2409 19.8761 39.3443 20.9222 37.646 21.8609C37.6368 21.8663 37.6257 21.8716 37.6166 21.8768C37.589 21.8609 37.5634 21.847 37.5377 21.833C35.8614 20.9079 33.9941 19.8756 32.125 18.8435V21.1258C33.9941 22.1579 35.8619 23.19 37.5377 24.1152C37.5634 24.1292 37.589 24.1433 37.6166 24.159C37.6257 24.1538 37.6368 24.1486 37.646 24.1432C39.3443 23.2039 41.2409 22.1583 43.1375 21.1104H43.1669V18.8281H43.1375Z" fill="#222220"/>
<path id="Vector_4" d="M43.1375 23.4219C41.2409 24.4699 39.3443 25.5161 37.646 26.4547C37.6368 26.4599 37.6257 26.4652 37.6166 26.4706C37.589 26.4547 37.5634 26.4407 37.5377 26.4267C35.8614 25.5017 33.9941 24.4695 32.125 23.4374V25.7192C33.9941 26.7513 35.8619 27.7834 37.5377 28.7085C37.5634 28.7226 37.589 28.7366 37.6166 28.7525C37.6257 28.7471 37.6368 28.7418 37.646 28.7366C39.3443 27.7975 41.2409 26.7518 43.1375 25.7038H43.1669V23.4219H43.1375Z" fill="#222220"/>
<path id="Vector_5" d="M43.1375 28.0156C41.2409 29.0636 39.3443 30.1097 37.646 31.0484C37.6368 31.0538 37.6257 31.0591 37.6166 31.0643C37.589 31.0484 37.5634 31.0345 37.5377 31.0205C35.8614 30.0954 33.9941 29.0631 32.125 28.031V30.3129C33.9941 31.345 35.8619 32.3772 37.5377 33.3024C37.5634 33.3164 37.589 33.3305 37.6166 33.3462C37.6257 33.341 37.6368 33.3357 37.646 33.3303C39.3443 32.3911 41.2409 31.3455 43.1375 30.2975H43.1669V28.0156H43.1375Z" fill="#222220"/>
<path id="Vector_6" d="M42.9999 32.7254C41.1597 33.7416 39.3194 34.7574 37.4789 35.7727H37.8142C36.451 35.0245 35.0896 34.2732 33.7301 33.5188L32.2933 32.7249C31.9224 32.5201 31.5876 33.0687 31.958 33.2734C33.3372 34.0355 34.7168 34.7971 36.0966 35.558C36.526 35.7949 36.9553 36.0317 37.3846 36.2685C37.414 36.2844 37.4429 36.3028 37.4733 36.3174C37.7168 36.4348 37.9313 36.2562 38.1364 36.1428L39.6707 35.2961L43.3352 33.2732C43.7053 33.0688 43.3711 32.5198 42.9999 32.7248V32.7254Z" fill="#222220"/>
<path id="Vector_7" d="M31.958 30.5898C33.4667 31.4231 34.9754 32.2564 36.484 33.0899L36.9804 33.3639C37.1428 33.4673 37.3129 33.5593 37.4893 33.6391C37.6851 33.7126 37.8431 33.5915 38.0061 33.5011L38.5584 33.1959C39.2816 32.7963 40.005 32.3968 40.7286 31.9972C41.5878 31.5229 42.4468 31.0485 43.3057 30.574C43.6759 30.3695 43.3418 29.8204 42.9706 30.0256C41.1309 31.0418 39.3014 32.0787 37.4496 33.0743H37.7849C35.9631 32.0492 34.1238 31.0518 32.2934 30.0415C31.9225 29.8368 31.5875 30.3853 31.958 30.5898Z" fill="#222220"/>
<path id="Vector_8" d="M31.958 28.3085C33.4667 29.1417 34.9754 29.975 36.484 30.8084L36.9804 31.0825C37.1428 31.186 37.3129 31.278 37.4893 31.3578C37.6851 31.4314 37.8431 31.3102 38.0061 31.2199L38.5584 30.9147C39.2816 30.5151 40.005 30.1155 40.7286 29.716C41.5878 29.2418 42.4468 28.7674 43.3057 28.2928C43.6759 28.0883 43.3418 27.5392 42.9706 27.7444C41.1309 28.7606 39.3014 29.7975 37.4496 30.793H37.7849C35.9631 29.7679 34.1238 28.7706 32.2934 27.7602C31.9225 27.5554 31.5875 28.104 31.958 28.3085Z" fill="#222220"/>
<path id="Vector_9" d="M31.958 25.9882C33.4667 26.8213 34.9754 27.6546 36.484 28.4881L36.9804 28.7622C37.1428 28.8656 37.3129 28.9576 37.4893 29.0374C37.6851 29.1109 37.8431 28.9897 38.0061 28.8995L38.5584 28.5944C39.2816 28.1945 40.005 27.795 40.7286 27.3957C41.5878 26.9214 42.4468 26.447 43.3057 25.9723C43.6759 25.768 43.3418 25.2189 42.9706 25.424C41.1309 26.4403 39.3014 27.4771 37.4496 28.4727H37.7849C35.9631 27.4476 34.1238 26.4503 32.2934 25.4399C31.9225 25.2351 31.5875 25.7835 31.958 25.9882Z" fill="#222220"/>
<path id="Vector_10" d="M31.958 23.711C33.4667 24.5442 34.9754 25.3773 36.484 26.2104L36.9804 26.4845C37.1428 26.5879 37.3129 26.6798 37.4893 26.7596C37.6851 26.8332 37.8431 26.712 38.0061 26.6218L38.5584 26.3165C39.2822 25.9176 40.0056 25.5183 40.7286 25.1184C41.5878 24.644 42.4468 24.1695 43.3057 23.6951C43.6759 23.4907 43.3418 22.9416 42.9706 23.1466C41.1309 24.1629 39.3014 25.1997 37.4496 26.1953H37.7849C35.9631 25.1704 34.1238 24.173 32.2934 23.1625C31.9225 22.9577 31.5875 23.5063 31.958 23.711Z" fill="#222220"/>
<path id="Vector_11" d="M31.958 21.3945C33.4667 22.2278 34.9754 23.0611 36.484 23.8945L36.9804 24.1686C37.1428 24.272 37.3129 24.364 37.4893 24.4438C37.6851 24.5173 37.8431 24.3961 38.0061 24.3058L38.5584 24.0006C39.2816 23.601 40.005 23.2014 40.7286 22.8019C41.5878 22.3276 42.4468 21.8532 43.3057 21.3787C43.6759 21.1742 43.3418 20.6251 42.9706 20.8303C41.1309 21.8465 39.3014 22.8834 37.4496 23.879H37.7849C35.9631 22.854 34.1238 21.8565 32.2934 20.8462C31.9225 20.6413 31.5875 21.1899 31.958 21.3945Z" fill="#222220"/>
<path id="Vector_12" d="M31.958 19.1171C33.4667 19.9503 34.9754 20.7836 36.484 21.617L36.9804 21.8911C37.1428 21.9946 37.3129 22.0866 37.4893 22.1664C37.6851 22.24 37.8431 22.1188 38.0061 22.0285L38.5584 21.7233C39.2816 21.3235 40.005 20.924 40.7286 20.5246C41.5878 20.0503 42.4468 19.5759 43.3057 19.1014C43.6759 18.8969 43.3418 18.3478 42.9706 18.5529C41.1309 19.5692 39.3014 20.606 37.4496 21.6016H37.7849C35.9631 20.5765 34.1238 19.5792 32.2934 18.5688C31.9225 18.364 31.5875 18.9126 31.958 19.1171Z" fill="#222220"/>
<path id="Vector_13" d="M37.3166 18.463V33.7022C37.3166 34.4067 37.2897 35.1168 37.3166 35.821C37.3166 35.8326 37.3166 35.8442 37.3166 35.8558C37.3166 36.2645 37.981 36.2651 37.981 35.8558V20.6166C37.981 19.9121 38.0079 19.202 37.981 18.4978C37.981 18.4862 37.981 18.4745 37.981 18.463C37.981 18.0543 37.3166 18.0537 37.3166 18.463Z" fill="#222220"/>
<path id="Vector_14" d="M42.9998 15.088C41.1597 16.1042 39.3194 17.12 37.479 18.1353H37.8143C35.9713 17.1241 34.131 16.1084 32.2934 15.088C31.9225 14.8832 31.5875 15.4318 31.958 15.6365C33.4563 16.4639 34.9548 17.2909 36.4536 18.1175C36.7876 18.3018 37.1168 18.5041 37.4596 18.6732C37.6713 18.7777 37.8201 18.6805 38.0076 18.578L38.5624 18.272C39.2897 17.8707 40.0169 17.4693 40.7439 17.0679C41.6075 16.5915 42.4715 16.1146 43.3358 15.6371C43.706 15.4327 43.3718 14.8836 43.0005 15.0886L42.9998 15.088Z" fill="#222220"/>
<path id="Vector_15" d="M32.2935 15.6386C34.1332 14.6224 35.9735 13.6066 37.8145 12.5913H37.4792C39.3194 13.6076 41.1597 14.6233 43.0001 15.6386C43.371 15.8434 43.7058 15.2948 43.3355 15.0901C41.4955 14.0735 39.655 13.0577 37.8142 12.0429C37.7632 12.0148 37.7054 12 37.6465 12C37.5877 12 37.5298 12.0148 37.4788 12.0429C35.6386 13.0591 33.7983 14.0749 31.9579 15.0901C31.5878 15.2947 31.922 15.8437 32.2932 15.6386H32.2935Z" fill="#222220"/>
<path id="Vector_16" d="M42.8094 15.3615V30.8132C42.8094 31.5278 42.7812 32.2493 42.8094 32.964C42.8094 32.9754 42.8094 32.987 42.8094 32.9984C42.8094 33.4072 43.4738 33.4078 43.4738 32.9984V17.5457C43.4738 16.8312 43.502 16.1101 43.4738 15.3958C43.4738 15.3843 43.4738 15.3729 43.4738 15.3615C43.4738 14.9527 42.8094 14.9521 42.8094 15.3615Z" fill="#222220"/>
<path id="Vector_17" d="M31.786 15.3615V30.8132C31.786 31.5278 31.7578 32.2493 31.786 32.964C31.786 32.9754 31.786 32.987 31.786 32.9984C31.786 33.4072 32.4503 33.4078 32.4503 32.9984V17.5457C32.4503 16.8312 32.4786 16.1101 32.4503 15.3958C32.4503 15.3843 32.4503 15.3729 32.4503 15.3615C32.4503 14.9527 31.786 14.9521 31.786 15.3615Z" fill="#222220"/>
</g>
<path id="Vector_18" d="M24.0364 47.5639L9.32812 39.4445L24.2498 31.207L39.1715 39.4442L24.2498 47.6814L24.0364 47.5639Z" fill="white"/>
<path id="Vector_19" d="M24.2054 47.2896L12.8675 41.0309L9.49728 39.1702V39.7187L21.0235 33.356L24.4191 31.4823H24.0838L35.8905 38L39.0055 39.7195V39.171L27.1984 45.6882L24.0835 47.4077H24.4186L24.2054 47.2899C23.8343 47.0852 23.4995 47.6338 23.87 47.8384L24.0835 47.9562C24.1344 47.9843 24.1922 47.9991 24.251 47.9991C24.3099 47.9991 24.3677 47.9843 24.4186 47.9562L35.9449 41.5935L39.3404 39.719C39.3898 39.6904 39.4306 39.6502 39.4589 39.6022C39.4872 39.5541 39.5021 39.4999 39.5021 39.4448C39.5021 39.3896 39.4872 39.3354 39.4589 39.2874C39.4306 39.2394 39.3898 39.1991 39.3404 39.1706L27.8142 32.8078L24.4188 30.9334C24.3678 30.9054 24.31 30.8906 24.2511 30.8906C24.1923 30.8906 24.1345 30.9054 24.0835 30.9334L12.2765 37.4511L9.16162 39.1702C9.11229 39.1988 9.0715 39.239 9.04319 39.2871C9.01487 39.3351 9 39.3893 9 39.4445C9 39.4996 9.01487 39.5538 9.04319 39.6018C9.0715 39.6499 9.11229 39.6901 9.16162 39.7187L20.7689 46.1262L23.87 47.838C24.2409 48.0429 24.5759 47.4943 24.2054 47.2896Z" fill="#222220"/>
<path id="Vector_20" d="M24.2598 26.9844C25.9854 27.9371 27.711 28.8882 29.2539 29.7409C27.5283 30.6936 25.8027 31.6463 24.2598 32.4974C24.2365 32.4847 24.2133 32.472 24.1884 32.4577C22.6637 31.6162 20.9647 30.6793 19.2656 29.7409C20.8085 28.8882 22.5342 27.9371 24.2598 26.9844Z" fill="white"/>
<path id="Vector_21" d="M24.2578 39.2026V37.1384C25.7941 36.2888 27.5097 35.3425 29.2254 34.3945H29.252V36.4587H29.2254C27.5097 37.4067 25.7941 38.3531 24.2578 39.2026Z" fill="#222220"/>
<path id="Vector_22" d="M24.2598 39.2061V42.0595L24.1801 42.1913C22.6571 41.3513 20.9613 40.416 19.2656 39.4792V36.4766C20.9564 37.4102 22.6454 38.3439 24.1618 39.1807C24.185 39.1934 24.2083 39.2061 24.2332 39.2204C24.2415 39.2156 24.2515 39.2109 24.2598 39.2061Z" fill="white"/>
<path id="Vector_23" d="M29.2457 39.4779C27.5201 40.4306 25.7945 41.3833 24.2516 42.2344C24.2283 42.2217 24.2051 42.209 24.1802 42.1947C24.1769 42.1931 24.1752 42.1915 24.1719 42.1899L24.2516 42.0581V39.2048C25.7879 38.3553 27.5035 37.4089 29.2192 36.4609H29.2457V39.4779Z" fill="white"/>
<path id="Vector_24" d="M19.2656 34.4141C20.9564 35.3477 22.6454 36.2814 24.1618 37.1182C24.185 37.1309 24.2083 37.1436 24.2332 37.1579C24.2415 37.1531 24.2515 37.1484 24.2598 37.1436V39.2078C24.2515 39.2126 24.2415 39.2173 24.2332 39.2221C24.2083 39.2078 24.185 39.1951 24.1618 39.1824C22.6454 38.3456 20.9564 37.4119 19.2656 36.4783V34.4141Z" fill="#222220"/>
<path id="Vector_25" d="M29.0713 39.2013C27.4066 40.1204 25.7419 41.0392 24.0772 41.9578H24.4125C22.7453 41.043 21.0806 40.1242 19.4184 39.2013C19.0475 38.9965 18.7125 39.5451 19.083 39.7498C20.4476 40.5037 21.8125 41.257 23.1778 42.0098C23.4655 42.1686 23.7495 42.337 24.0415 42.4871C24.3663 42.6535 24.7526 42.3184 25.0318 42.1643C25.7049 41.793 26.3779 41.4216 27.0509 41.0501L29.4062 39.7498C29.7762 39.5454 29.442 38.9963 29.0708 39.2013H29.0713Z" fill="#222220"/>
<path id="Vector_26" d="M19.0822 36.7444C20.4422 37.4954 21.8022 38.2467 23.1623 38.998C23.4559 39.1601 23.7455 39.3453 24.0498 39.4882C24.2383 39.577 24.3782 39.4925 24.5401 39.4029L25.0287 39.133C25.6982 38.7625 26.3681 38.3927 27.0383 38.0236C27.8189 37.5924 28.5995 37.1613 29.3801 36.7302C29.7501 36.5257 29.416 35.9768 29.0448 36.1818C27.3806 37.1013 25.7258 38.0396 24.0506 38.9399H24.386C22.7381 38.0128 21.0741 37.1105 19.4184 36.1961C19.0474 35.9913 18.7125 36.54 19.0831 36.7445L19.0822 36.7444Z" fill="#222220"/>
<path id="Vector_27" d="M19.0822 34.6819C20.4422 35.4329 21.8022 36.1842 23.1623 36.9355C23.4559 37.0976 23.7455 37.2828 24.0498 37.4257C24.2383 37.5145 24.3782 37.43 24.5401 37.3404L25.0287 37.0705C25.6982 36.7 26.3681 36.3302 27.0383 35.9611C27.8189 35.5299 28.5995 35.0988 29.3801 34.6677C29.7501 34.4632 29.416 33.9143 29.0448 34.1193C27.3806 35.0388 25.7258 35.9771 24.0506 36.8774H24.386C22.7381 35.9503 21.0741 35.048 19.4184 34.1336C19.0474 33.9288 18.7125 34.4775 19.0831 34.682L19.0822 34.6819Z" fill="#222220"/>
<path id="Vector_28" d="M23.9219 33.7872V40.5974C23.9219 41.0061 24.5862 41.0068 24.5862 40.5974V33.7872C24.5862 33.3785 23.9219 33.3779 23.9219 33.7872Z" fill="#222220"/>
<path id="Vector_29" d="M29.0714 29.4669C27.4066 30.386 25.7419 31.3048 24.0772 32.2234H24.4125C22.7454 31.3086 21.0807 30.3898 19.4184 29.4669C19.0474 29.2621 18.7125 29.8107 19.0831 30.0154C20.439 30.7643 21.7953 31.5128 23.1521 32.2609C23.4532 32.4272 23.75 32.612 24.0599 32.7624C24.2607 32.8595 24.3956 32.7814 24.5748 32.683C24.7387 32.5926 24.9025 32.5022 25.0664 32.4118L27.0524 31.3161L29.4077 30.0158C29.7777 29.8115 29.4436 29.2624 29.0724 29.4674L29.0714 29.4669Z" fill="#222220"/>
<path id="Vector_30" d="M19.4182 30.0118C21.0824 29.0921 22.7471 28.1733 24.4123 27.2553H24.077C25.7415 28.1743 27.4062 29.0932 29.0712 30.0118C29.4419 30.2168 29.7769 29.668 29.4065 29.4633C27.7422 28.5437 26.0775 27.6248 24.4123 26.7068C24.3613 26.6788 24.3035 26.6641 24.2447 26.6641C24.1859 26.6641 24.128 26.6788 24.077 26.7068C22.4124 27.6259 20.7477 28.5447 19.0829 29.4633C18.7128 29.6679 19.047 30.2169 19.4182 30.0118Z" fill="#222220"/>
<path id="Vector_31" d="M18.9219 29.7365V39.4748C18.9219 39.8835 19.5862 39.8842 19.5862 39.4748V29.7365C19.5862 29.3277 18.9219 29.3271 18.9219 29.7365Z" fill="#222220"/>
<path id="Vector_32" d="M28.8984 29.7365V39.4748C28.8984 39.8835 29.5628 39.8842 29.5628 39.4748V29.7365C29.5628 29.3277 28.8984 29.3271 28.8984 29.7365Z" fill="#222220"/>
</g>
</g>
</svg>
