<svg width="60" height="60" viewBox="0 0 60 60" fill="none" xmlns="http://www.w3.org/2000/svg">
<circle cx="30" cy="30" r="30" fill="white"/>
<path d="M49.4975 19.3746C49.4975 26.7898 49.4976 34.1841 49.497 41.5785C49.497 41.7435 49.5073 41.9074 49.4274 42.0654C49.3077 42.3018 49.1228 42.4279 48.8708 42.4566C48.7906 42.4657 48.7088 42.4608 48.6277 42.4609C47.2021 42.461 45.7765 42.461 44.3509 42.461C44.278 42.461 44.2051 42.461 44.1106 42.461C44.1062 42.5595 44.0995 42.6397 44.0995 42.7199C44.0988 44.2099 44.1005 45.6998 44.0963 47.1898C44.0959 47.318 44.0774 47.4534 44.0338 47.5726C43.9336 47.847 43.7184 47.974 43.4403 47.9977C43.4 48.0011 43.3593 47.9996 43.3187 47.9996C39.7851 47.9996 36.2514 47.9995 32.7178 48C32.5815 48 32.45 47.99 32.325 47.9225C32.0963 47.7991 31.9742 47.6063 31.9515 47.3459C31.9443 47.2634 31.9482 47.1797 31.9481 47.0966C31.948 45.6413 31.948 44.186 31.948 42.7306C31.948 42.6494 31.948 42.5681 31.948 42.461C31.8378 42.461 31.7521 42.461 31.6664 42.461C25.0855 42.461 18.5047 42.4611 11.9238 42.4607C11.6471 42.4607 11.3731 42.4552 11.099 42.3879C10.4851 42.2371 9.98307 41.9145 9.59135 41.4102C9.18943 40.8927 9.00024 40.3007 9.00095 39.6396C9.00309 37.6506 9.00155 35.6617 9.00154 33.6728C9.00151 27.6713 9.00224 21.6699 9 15.6685C8.99984 15.25 9.03179 14.8395 9.15776 14.4387C9.45695 13.4866 10.046 12.791 10.9167 12.3477C11.3833 12.1102 11.8809 11.9997 12.4025 12.0026C12.8282 12.0049 13.2541 12.0127 13.6794 12.0003C14.1023 11.988 14.4205 12.3413 14.4045 12.7443C14.3963 12.9495 14.4031 13.1553 14.4031 13.3856C14.5159 13.3856 14.6017 13.3856 14.6876 13.3856C24.7413 13.3856 34.7949 13.3856 44.8486 13.3856C46.1323 13.3856 47.4161 13.3849 48.6998 13.3871C48.8068 13.3873 48.9194 13.3884 49.0195 13.4209C49.3472 13.5274 49.5019 13.8361 49.5 14.1355C49.4932 15.2304 49.4974 16.3254 49.4975 17.4204C49.4975 18.0648 49.4975 18.7093 49.4975 19.3746ZM36.9184 36.8192C37.1408 36.6758 37.3671 36.5381 37.5848 36.3875C37.8753 36.1866 38.1529 36.1867 38.4518 36.3799C39.6549 37.1578 40.8633 37.927 42.0694 38.7C42.624 39.0553 43.1772 39.413 43.7326 39.7669C43.8879 39.8658 44.008 39.9948 44.0589 40.1741C44.0885 40.2782 44.0937 40.3915 44.0971 40.5011C44.103 40.6854 44.0987 40.8701 44.0987 41.0484C44.3447 41.0921 47.9802 41.0838 48.1334 41.0428C48.1334 32.2956 48.1334 23.5467 48.1334 14.8009C47.9176 14.755 14.5706 14.762 14.4032 14.8109C14.4032 14.8936 14.4032 14.9825 14.4032 15.0713C14.4032 22.4871 14.4032 29.9029 14.4031 37.3187C14.4031 37.4226 14.4065 37.5269 14.4002 37.6305C14.3961 37.6987 14.3866 37.7694 14.3637 37.833C14.2535 38.1395 14.0249 38.3039 13.6964 38.3057C13.041 38.3095 12.3855 38.3092 11.7301 38.3069C11.4875 38.306 11.2614 38.3638 11.0526 38.4874C10.5926 38.7597 10.3534 39.1728 10.3593 39.7154C10.3652 40.2523 10.6239 40.6465 11.0744 40.9104C11.3166 41.0523 11.5817 41.0777 11.8562 41.0776C18.4714 41.0754 25.0866 41.0759 31.7018 41.0759C31.7356 41.0759 31.7696 41.0786 31.8031 41.0751C31.8475 41.0705 31.8915 41.061 31.9495 41.0513C31.9495 40.8262 31.9485 40.6121 31.9497 40.3981C31.9511 40.143 32.064 39.9476 32.262 39.8009C32.3165 39.7605 32.3763 39.7276 32.4335 39.691C33.9197 38.7384 35.4058 37.7858 36.9184 36.8192ZM10.3546 20.0607C10.3577 25.7779 10.3607 31.4951 10.3648 37.2123C10.3648 37.2228 10.3792 37.2333 10.387 37.2438C10.3998 37.2463 10.4141 37.2538 10.4252 37.2504C10.4506 37.2427 10.4751 37.231 10.4989 37.2187C10.8852 37.0188 11.2946 36.9208 11.7272 36.922C12.1056 36.923 12.484 36.9224 12.8624 36.9211C12.9207 36.9209 12.979 36.9129 13.0334 36.9089C13.0726 36.5934 13.0581 13.5559 13.0163 13.3889C12.7864 13.3889 12.5513 13.3829 12.3166 13.3902C11.9005 13.4031 11.5205 13.535 11.1877 13.7918C10.6461 14.2098 10.36 14.7696 10.3573 15.4659C10.3513 16.9837 10.3549 18.5014 10.3546 20.0607ZM36.7477 42.4597C37.0788 42.4596 37.4099 42.4594 37.741 42.4595C38.2815 42.4596 38.8222 42.4544 39.3626 42.4625C39.658 42.4669 39.8835 42.6073 39.9889 42.8992C40.0298 43.0123 40.0456 43.1408 40.0461 43.2625C40.0504 44.302 40.0484 45.3416 40.0491 46.3812C40.0492 46.4543 40.0555 46.5273 40.0587 46.5961C40.4106 46.6359 42.5841 46.6204 42.7483 46.5743C42.7483 46.5126 42.7483 46.4448 42.7483 46.3771C42.7483 44.589 42.7452 42.8009 42.7529 41.0128C42.7537 40.8274 42.6926 40.7295 42.5438 40.6348C41.0888 39.7093 39.6378 38.777 38.188 37.8428C38.076 37.7706 37.9881 37.7635 37.8738 37.837C36.3946 38.7881 34.9138 39.7366 33.4308 40.6814C33.3298 40.7458 33.2991 40.8202 33.2993 40.9345C33.3014 42.7711 33.3006 44.6078 33.3015 46.4444C33.3016 46.4962 33.3145 46.548 33.3207 46.595C33.6449 46.6353 35.8425 46.6207 35.998 46.5751C35.998 46.5045 35.998 46.4292 35.998 46.3539C35.9981 45.3074 36.0062 44.2608 35.9944 43.2144C35.9895 42.7778 36.3286 42.4366 36.7477 42.4597ZM38.2784 46.614C38.4111 46.614 38.5437 46.614 38.6875 46.614C38.6875 45.6827 38.6875 44.78 38.6875 43.8792C38.5076 43.8297 37.5164 43.8328 37.3604 43.8824C37.3604 44.7845 37.3604 45.6876 37.3604 46.614C37.6614 46.614 37.9498 46.614 38.2784 46.614Z" fill="#222220"/>
<path d="M27.3917 17.541C26.657 17.541 25.9426 17.541 25.2038 17.541C25.2038 18.2384 25.2038 18.9134 25.2038 19.6031C24.7443 19.6031 24.3093 19.6031 23.8503 19.6031C23.8503 18.9213 23.8503 18.2456 23.8503 17.5557C21.594 17.5557 19.3615 17.5557 17.1146 17.5557C17.1146 23.0812 17.1146 28.6008 17.1146 34.1188C17.2611 34.1609 23.5648 34.1727 23.8436 34.1283C23.8526 33.8742 23.8467 33.6136 23.8477 33.3534C23.8487 33.0969 23.8479 32.8405 23.8479 32.5841C23.8479 32.3207 23.8479 32.0573 23.8479 31.794C23.8479 31.5375 23.8479 31.2811 23.8479 31.0247C23.8479 30.7613 23.8479 30.4979 23.8479 30.2346C23.8479 29.9712 23.8479 29.7078 23.8479 29.4445C23.8479 29.188 23.8479 28.9316 23.8479 28.6752C23.8479 28.4118 23.8479 28.1484 23.8479 27.8851C23.8479 27.6286 23.8479 27.3722 23.8479 27.1158C23.8479 26.8524 23.8479 26.589 23.8479 26.3257C23.8479 26.0623 23.8479 25.7989 23.8479 25.5356C23.8479 25.2791 23.8479 25.0227 23.8479 24.7663C23.8479 24.5029 23.8479 24.2395 23.8479 23.9762C23.8479 23.7197 23.8479 23.4633 23.8479 23.2069C23.8479 22.9447 23.8479 22.6825 23.8479 22.4261C24.0077 22.3769 24.9401 22.3676 25.1975 22.4129C25.2025 22.7082 25.199 23.0102 25.1996 23.312C25.2003 23.6169 25.1998 23.9219 25.1998 24.2268C25.1998 24.5387 25.1998 24.8506 25.1998 25.1624C25.1998 25.4674 25.1998 25.7723 25.1998 26.0773C25.1998 26.3822 25.1998 26.6872 25.1998 26.9921C25.1998 27.295 25.1998 27.5978 25.1998 27.9212C27.9058 27.9212 30.5853 27.9212 33.2863 27.9212C33.3094 28.3871 33.2974 28.8322 33.2933 29.3069C32.8352 29.3116 32.392 29.3084 31.9489 29.309C31.4962 29.3096 31.0435 29.3091 30.5907 29.3091C30.1448 29.3091 29.6988 29.3091 29.2528 29.3091C28.8069 29.3091 28.3609 29.3091 27.9149 29.3091C27.4622 29.3091 27.0095 29.3091 26.5568 29.3091C26.1129 29.3091 25.6691 29.3091 25.2127 29.3091C25.2127 30.9311 25.2127 32.5276 25.2127 34.1468C27.9026 34.1468 30.5816 34.1468 33.253 34.1468C33.3063 34.307 33.3204 35.2038 33.2797 35.5185C33.239 35.5252 33.1946 35.5346 33.1498 35.5392C33.1163 35.5426 33.0823 35.5399 33.0485 35.5399C27.5685 35.5399 22.0885 35.54 16.6085 35.5396C16.4471 35.5396 16.2871 35.5482 16.1339 35.4664C15.904 35.3436 15.7805 35.1542 15.7544 34.8944C15.7475 34.8258 15.7508 34.7559 15.7508 34.6866C15.7506 28.7956 15.7506 22.9045 15.751 17.0134C15.751 16.8549 15.7451 16.6983 15.8222 16.5475C15.9427 16.3118 16.1277 16.1868 16.3808 16.1603C16.441 16.154 16.5023 16.157 16.5631 16.157C24.5703 16.1568 32.5774 16.1569 40.5846 16.1568C40.7333 16.1568 40.8788 16.1576 41.0182 16.2327C41.2406 16.3524 41.3603 16.5389 41.3898 16.7883C41.4011 16.8841 41.3954 16.9821 41.3954 17.0791C41.3956 22.2217 41.3956 27.3642 41.3956 32.5068C41.3956 32.5879 41.3956 32.669 41.3956 32.7596C40.9388 32.7596 40.5086 32.7596 40.0499 32.7596C40.0485 32.472 40.0467 32.1906 40.046 31.9092C40.0454 31.6182 40.0459 31.3271 40.0459 31.036C40.0459 30.7518 40.0459 30.4677 40.0459 30.1835C40.0459 29.9012 40.0459 29.6189 40.0459 29.312C38.6895 29.312 37.3559 29.312 36.0092 29.312C36.0092 28.8409 36.0092 28.3949 36.0092 27.9245C37.3517 27.9245 38.6858 27.9245 40.0328 27.9245C40.0328 24.459 40.0328 21.0178 40.0328 17.5798C40.025 17.5718 40.0206 17.5664 40.0154 17.5621C40.0104 17.5578 40.0046 17.5514 39.9991 17.5514C35.8034 17.5477 31.6077 17.5444 27.3917 17.541Z" fill="#222220"/>
<path d="M41.391 34.5166C41.391 34.3937 41.391 34.2908 41.391 34.1934C41.546 34.1444 42.4722 34.1338 42.7338 34.1768C42.7372 34.2446 42.744 34.3177 42.7441 34.3908C42.745 34.966 42.7485 35.5413 42.742 36.1164C42.7403 36.2651 42.7868 36.3505 42.915 36.4307C44.2669 37.2773 45.6141 38.132 46.9622 38.9852C47.0182 39.0206 47.0696 39.0636 47.1369 39.1133C46.9032 39.506 46.6893 39.8944 46.429 40.2713C46.1823 40.1178 45.9519 39.9763 45.7232 39.832C44.1845 38.8612 42.6462 37.8897 41.1075 36.9188C40.1373 36.3066 39.1652 35.6975 38.198 35.0803C38.0709 34.9992 37.9788 34.9952 37.8498 35.0771C36.4971 35.9357 35.1401 36.7869 33.7852 37.6415C32.4534 38.4816 31.1227 39.3234 29.7912 40.1639C29.7402 40.196 29.6861 40.2228 29.6078 40.2664C29.3472 39.9041 29.144 39.5095 28.8984 39.1184C28.9615 39.0709 29.0113 39.0276 29.0663 38.9929C31.4424 37.4924 33.8189 35.9927 36.1953 34.4928C36.6661 34.1957 37.1383 33.9008 37.6062 33.5991C37.8808 33.4219 38.147 33.4199 38.4226 33.5944C39.3404 34.1755 40.26 34.7538 41.1792 35.3327C41.2346 35.3676 41.2926 35.398 41.3848 35.4507C41.3968 35.1249 41.3883 34.8305 41.391 34.5166Z" fill="#222220"/>
</svg>
