<svg width="60" height="60" viewBox="0 0 60 60" fill="none" xmlns="http://www.w3.org/2000/svg">
<circle cx="30" cy="30" r="30" fill="white"/>
<path d="M52.6293 20.3783V20.191C46.0064 16.3901 38.6756 12.1845 30.9407 7.74609C23.3399 12.1072 16.0497 16.2881 9.25 20.1902V35.2966C15.9403 39.1409 24.0568 43.7985 30.938 47.7502C37.6276 43.9107 45.8983 39.1636 52.6293 35.2995V20.3783Z" fill="white"/>
<path d="M30.8265 7.53497L22.0728 12.5561C19.2713 14.1632 16.4697 15.7704 13.6682 17.3776L9.13587 19.9782C8.85956 20.1367 9.10897 20.5628 9.38614 20.4038C12.1133 18.839 14.8404 17.2741 17.5675 15.7093C20.4229 14.0712 23.2781 12.4333 26.1332 10.7955L31.0768 7.96044C31.3531 7.80199 31.1037 7.3759 30.8265 7.53497Z" fill="#222220"/>
<path d="M52.7622 19.9792C50.0756 18.4373 47.3889 16.8955 44.7022 15.354L36.1033 10.4202L31.0737 7.53494C30.7968 7.37599 30.5469 7.80183 30.8234 7.96041L39.6776 13.0404C42.4697 14.6422 45.2617 16.244 48.0538 17.8458C49.5399 18.6985 51.0259 19.5513 52.5119 20.4042C52.7889 20.563 53.0388 20.1373 52.7622 19.9786V19.9792Z" fill="#222220"/>
<path d="M9.1359 35.5156L17.4537 40.2901C20.3443 41.9494 23.2349 43.6088 26.1256 45.2681C27.6918 46.1672 29.2578 47.0665 30.8237 47.9658C31.1005 48.1247 31.3505 47.699 31.074 47.5402C28.2559 45.9219 25.4379 44.3041 22.6198 42.6866L13.9865 37.7307L9.38618 35.0896C9.10938 34.9307 8.85935 35.3564 9.1359 35.5152V35.5156Z" fill="#222220"/>
<path d="M31.0726 47.9657L39.4564 43.1537L48.1242 38.1783L52.7636 35.5153C53.0398 35.3567 52.7903 34.9306 52.5133 35.0897L44.1008 39.9196L35.4413 44.8901L30.8233 47.5406C30.5471 47.6992 30.7965 48.1252 31.0736 47.9662L31.0726 47.9657Z" fill="#222220"/>
<path d="M9.49584 34.9319V20.5076C9.49584 20.1904 9 20.1899 9 20.5076V34.9319C9 35.2491 9.49584 35.2496 9.49584 34.9319Z" fill="#222220"/>
<path d="M18.6762 25.3601L11.3239 21.1406L9.37056 20.0193C9.09375 19.8604 8.84372 20.2861 9.12028 20.4449L16.305 24.5685L18.4259 25.7856C18.7027 25.9446 18.9527 25.519 18.6762 25.3601Z" fill="#222220"/>
<path d="M52.4987 20.0193C50.3474 21.2539 48.1962 22.4885 46.045 23.7232L44.1202 24.828C43.8439 24.9865 44.0933 25.4125 44.3705 25.2535C46.5723 23.9898 48.7741 22.7261 50.976 21.4625L52.7486 20.4449C53.025 20.2864 52.7755 19.8603 52.4984 20.0193H52.4987Z" fill="#222220"/>
<path d="M31.199 47.4545V38.5037C31.199 38.1865 30.7031 38.186 30.7031 38.5037V47.4545C30.7031 47.7717 31.199 47.7722 31.199 47.4545Z" fill="#222220"/>
<path d="M18.0329 29.9961L11.0646 33.9947L9.13587 35.1022C8.85956 35.2608 9.10897 35.6869 9.38614 35.5278L16.2875 31.5674L18.2834 30.4215C18.5597 30.263 18.3103 29.8369 18.0331 29.9959L18.0329 29.9961Z" fill="#222220"/>
<path d="M31.1833 22.8684V12.4646C31.1833 12.1475 30.6875 12.147 30.6875 12.4646V22.8684C30.6875 23.1856 31.1833 23.1861 31.1833 22.8684Z" fill="#222220"/>
<path d="M52.5232 34.9796C49.8651 33.454 47.2069 31.9287 44.5487 30.4035L36.0413 25.5224L31.0581 22.6638C30.7813 22.505 30.5312 22.9307 30.8078 23.0894L39.5681 28.1154C42.3307 29.7008 45.0932 31.2858 47.8557 32.8706C49.328 33.7154 50.8003 34.5603 52.2724 35.4053C52.5494 35.5641 52.7993 35.1384 52.5227 34.9797L52.5232 34.9796Z" fill="#222220"/>
<path d="M21.2139 23.4285L24.5955 21.4876C24.7843 21.3793 24.9745 21.2917 24.9863 21.0379C24.9935 20.8826 24.9863 20.7254 24.9863 20.5696V15.9852C24.9863 15.8153 24.9937 15.6436 24.9863 15.4738C24.9715 15.1374 24.6548 14.9986 24.3748 15.1522C23.2568 15.7648 22.1619 16.4223 21.0565 17.0566L17.6487 19.0124L17.5889 19.0465C17.3127 19.2051 17.5621 19.6312 17.8392 19.4721L19.6253 18.4471L22.9286 16.5514L24.1865 15.83L24.5479 15.6225C24.5808 15.6082 24.612 15.5903 24.6409 15.5691C24.6433 15.5668 24.6624 15.5599 24.6627 15.5568C24.6627 15.5558 24.6663 15.5553 24.6668 15.5545C24.6604 15.5678 24.4139 15.5718 24.4914 15.4549C24.4643 15.4959 24.4914 15.6456 24.4914 15.6926V18.0503C24.4914 19.031 24.5202 20.0166 24.4914 20.9971C24.4896 21.0598 24.4765 21.027 24.4869 21.0135L24.576 20.925C24.4569 21.0057 24.3327 21.0787 24.2041 21.1434L23.3479 21.6348L21.4132 22.745L20.9635 23.0029C20.6873 23.1615 20.9367 23.5876 21.2139 23.4285Z" fill="#222220"/>
<path d="M24.2827 30.7927C24.2827 31.5954 24.2822 32.398 24.2812 33.2008C24.2812 33.5179 24.7771 33.5184 24.7771 33.2008C24.7771 32.3981 24.7776 31.5955 24.7786 30.7927C24.7786 30.4756 24.2827 30.4751 24.2827 30.7927Z" fill="#222220"/>
<path d="M21.7516 32.2498C21.7516 33.0524 21.7511 33.8551 21.75 34.6578C21.75 34.975 22.2458 34.9754 22.2458 34.6578C22.2458 33.8552 22.2464 33.0525 22.2475 32.2498C22.2475 31.9326 21.7516 31.9321 21.7516 32.2498Z" fill="#222220"/>
<path d="M28.314 28.1131C28.314 28.9158 28.3135 29.7185 28.3125 30.5212C28.3125 30.8384 28.8083 30.8389 28.8083 30.5212C28.8083 29.7184 28.8088 28.9157 28.8098 28.1131C28.8098 27.7959 28.314 27.7954 28.314 28.1131Z" fill="#222220"/>
<path d="M25.7827 29.5701C25.7827 30.3729 25.7822 31.1756 25.7812 31.9782C25.7812 32.2954 26.2771 32.2959 26.2771 31.9782C26.2771 31.1754 26.2776 30.3727 26.2786 29.5701C26.2786 29.2529 25.7827 29.2524 25.7827 29.5701Z" fill="#222220"/>
<path d="M32.7166 29.758V29.2093C32.7165 29.1768 32.7078 29.1449 32.6914 29.1168C32.675 29.0887 32.6515 29.0653 32.6232 29.0491L28.6131 26.7474C28.5848 26.7312 28.5528 26.7227 28.5201 26.7227C28.4875 26.7227 28.4554 26.7312 28.4271 26.7474C27.5743 27.237 21.1039 30.9505 20.2493 31.442C20.221 31.4582 20.1975 31.4815 20.1812 31.5096C20.1648 31.5378 20.1562 31.5697 20.1563 31.6021V32.1908C20.1562 32.2232 20.1647 32.2551 20.181 32.2832C20.1973 32.3113 20.2207 32.3347 20.249 32.3509L24.224 34.6322C24.2521 34.6484 24.2841 34.6569 24.3166 34.6569C24.3491 34.6569 24.3811 34.6484 24.4092 34.6322C25.2329 34.1595 31.3198 30.6671 32.6237 29.9184C32.652 29.9021 32.6755 29.8787 32.6918 29.8506C32.7081 29.8224 32.7166 29.7905 32.7166 29.758Z" fill="white"/>
<path d="M20.1563 32.1875V36.1068C20.1562 36.1393 20.1648 36.1712 20.1812 36.1993C20.1975 36.2274 20.221 36.2507 20.2493 36.267C21.3709 36.9106 23.3256 38.0314 24.0496 38.4467C24.0779 38.4629 24.1101 38.4715 24.1428 38.4715C24.1755 38.4716 24.2077 38.463 24.236 38.4468C24.2644 38.4306 24.288 38.4072 24.3044 38.3791C24.3208 38.3509 24.3294 38.319 24.3295 38.2865C24.3295 37.3457 24.3295 35.1054 24.3295 34.6538" fill="white"/>
<path d="M38.4365 29.758C38.3527 29.6537 38.2478 29.5679 38.1287 29.5061C38.1104 29.4965 38.0909 29.4868 38.0706 29.4766L38.0624 29.4875C37.9377 29.657 37.8495 29.8502 37.8031 30.0551C37.7568 30.2599 37.7534 30.4721 37.7931 30.6783C37.8349 30.9112 37.9449 31.1268 38.1093 31.2979C38.1918 31.3826 38.291 31.4493 38.4007 31.4941C38.5104 31.5388 38.6282 31.5605 38.7467 31.5579L38.8571 31.8774C39.0289 31.8282 39.2127 31.7954 39.3986 31.7594C39.4374 31.7519 39.4747 31.7455 39.5102 31.7405L39.5052 31.7356C39.2998 31.5181 39.1309 31.2692 39.0049 30.9984C39.0049 30.9984 38.9918 30.9664 38.9722 30.9182C39.0465 30.8739 39.106 30.8088 39.1434 30.731C39.1835 30.6532 39.2009 30.5659 39.1936 30.4788C39.1863 30.3917 39.1547 30.3083 39.1022 30.2382C39.0474 30.1721 38.9706 30.1279 38.8857 30.1135C38.8008 30.0991 38.7135 30.1156 38.6398 30.1599C38.6314 30.1384 38.6225 30.1129 38.6133 30.085C38.5747 29.9663 38.5148 29.8555 38.4365 29.758Z" fill="white"/>
<path d="M40.5956 39.4062L40.53 39.3711C40.3232 39.4697 39.6715 39.482 39.548 39.3935C39.3125 39.6629 38.9726 39.7016 38.6671 39.661C38.6253 39.6578 38.5841 39.6496 38.5443 39.6364C38.435 39.5995 38.3344 39.5412 38.2483 39.4649C38.2474 39.464 38.2463 39.4635 38.2454 39.4626C38.2226 39.4646 38.2082 39.4661 38.2082 39.4661C38.1593 39.4537 38.1077 39.4561 38.0601 39.4731C38.0125 39.49 37.9711 39.5207 37.9412 39.5612C37.8838 39.681 37.8749 39.8182 37.9164 39.9443C37.9939 40.1784 38.2207 40.2972 38.454 40.3807C38.6947 40.4712 38.9557 40.4943 39.2086 40.4475C39.2618 40.4344 39.3117 40.4103 39.355 40.3769C39.3983 40.3434 39.4341 40.3013 39.4601 40.2533C39.4906 40.1964 39.5101 40.1344 39.5176 40.0703L39.9189 40.1621C40.0007 40.1831 40.0849 40.1938 40.1694 40.1941C40.2094 40.1937 40.2494 40.1914 40.2892 40.1872C40.3479 40.184 40.4052 40.168 40.457 40.1401C40.5087 40.1123 40.5535 40.0733 40.5883 40.0261C40.6279 39.9507 40.6481 39.8666 40.6469 39.7815C40.6486 39.6965 40.5927 39.4915 40.5956 39.4062Z" fill="white"/>
<path d="M44.0228 33.5251L43.9062 31.9391C43.9062 31.3107 44.7944 30.8008 45.8896 30.8008C46.9848 30.8008 47.873 31.3104 47.873 31.9391L47.7788 33.5062C47.7788 34.1347 46.9854 34.6446 45.8894 34.6446C44.7933 34.6446 44.0228 34.1539 44.0228 33.5251Z" fill="white"/>
<path d="M29.1719 32.091V23.9132C29.1716 23.8419 29.1902 23.7718 29.2259 23.71C29.2616 23.6483 29.313 23.5971 29.375 23.5618L30.7696 22.756C30.856 22.706 30.9541 22.6797 31.0539 22.6797C31.1538 22.6797 31.2518 22.706 31.3383 22.756L37.157 26.1175C37.2191 26.153 37.2706 26.2044 37.3063 26.2664C37.342 26.3284 37.3606 26.3988 37.3602 26.4703V34.6479C37.3605 34.7193 37.3419 34.7894 37.3062 34.8512C37.2705 34.9129 37.219 34.9641 37.157 34.9993L35.7612 35.8052C35.6747 35.8551 35.5767 35.8814 35.4768 35.8814C35.377 35.8814 35.279 35.8551 35.1925 35.8052L29.375 32.4445C29.3128 32.4089 29.2612 32.3574 29.2255 32.2953C29.1898 32.2332 29.1713 32.1627 29.1719 32.091Z" fill="white"/>
<path d="M29.1719 23.9132C29.1716 23.8419 29.1902 23.7718 29.2259 23.71C29.2616 23.6483 29.313 23.5971 29.375 23.5618L30.7696 22.756C30.856 22.706 30.9541 22.6797 31.0539 22.6797C31.1538 22.6797 31.2518 22.706 31.3382 22.756L37.157 26.1175C37.2188 26.1532 37.2701 26.2045 37.3057 26.2663C37.3414 26.3281 37.3602 26.3983 37.3602 26.4696C37.3602 26.541 37.3414 26.6111 37.3057 26.673C37.2701 26.7348 37.2188 26.7861 37.157 26.8218L35.7612 27.6277C35.6747 27.6777 35.5767 27.704 35.4768 27.704C35.377 27.704 35.279 27.6777 35.1925 27.6277L29.375 24.2664C29.3129 24.2308 29.2613 24.1794 29.2256 24.1173C29.1899 24.0553 29.1714 23.9848 29.1719 23.9132Z" fill="white"/>
<path d="M37.135 26.4694V34.5619C37.1458 34.6378 37.1305 34.715 37.0915 34.7809C37.031 34.861 36.9044 34.9077 36.8191 34.9568L36.4685 35.1596L35.8491 35.5171C35.6719 35.6194 35.4898 35.7584 35.278 35.6627C35.2567 35.6535 35.2362 35.6399 35.2159 35.6283C34.5578 35.2534 33.9041 34.8705 33.2483 34.4916L30.3661 32.8266L29.5297 32.3434C29.4598 32.3137 29.3978 32.268 29.3488 32.2099C29.3174 32.144 29.3057 32.0704 29.3152 31.9979V23.9124C29.3152 23.6752 28.9467 23.6748 28.9467 23.9124V31.7654C28.9467 32.0483 28.914 32.3461 29.1647 32.5482C29.3366 32.6692 29.5175 32.7771 29.7057 32.8708L32.4085 34.4322L34.8524 35.844C34.9178 35.8818 34.9828 35.9204 35.0487 35.9574C35.1558 36.019 35.2755 36.0553 35.3987 36.0635C35.6515 36.0791 35.8558 35.9386 36.0647 35.818L36.688 35.4586L37.0048 35.2757C37.1212 35.22 37.2301 35.1497 37.3288 35.0665C37.3886 35.0032 37.4348 34.9284 37.4648 34.8466C37.4948 34.7648 37.5078 34.6778 37.5031 34.5909V26.4694C37.5031 26.2321 37.1346 26.2317 37.1346 26.4694H37.135Z" fill="#222220"/>
<path d="M29.3139 23.9161C29.3216 23.7152 29.6218 23.6106 29.7698 23.525L30.5601 23.0685C30.7693 22.9476 30.9716 22.7877 31.2188 22.9267C31.5028 23.0866 31.7834 23.2529 32.0656 23.4159L36.8508 26.1803C36.9975 26.2651 37.2317 26.384 37.0995 26.5914C37.0442 26.6789 36.9211 26.7229 36.8337 26.7733L36.4674 26.9854L35.7894 27.3769C35.6096 27.4806 35.447 27.5796 35.2427 27.4702C35.0361 27.3602 34.8361 27.2354 34.6334 27.1182L31.5853 25.3578C30.87 24.9447 30.1483 24.5412 29.439 24.1178C29.4021 24.0986 29.371 24.0698 29.349 24.0344C29.3271 23.9991 29.3151 23.9584 29.3143 23.9168C29.3051 23.6803 28.9366 23.6791 28.9458 23.9168C28.9514 24.0328 28.988 24.1451 29.0518 24.2422C29.1156 24.3392 29.2042 24.4172 29.3085 24.4682L29.6712 24.6776L31.039 25.4679L34.3211 27.3633C34.5645 27.504 34.8055 27.6503 35.0519 27.7855C35.216 27.8792 35.4084 27.9103 35.5937 27.8732C35.8379 27.822 36.0715 27.6395 36.2846 27.5163C36.5405 27.3688 36.7964 27.2211 37.0523 27.0732C37.162 27.0206 37.2627 26.9512 37.3509 26.8675C37.4481 26.759 37.502 26.6185 37.5023 26.4728C37.5023 26.1864 37.3145 26.0223 37.0864 25.8906L36.4869 25.5442L35.2123 24.8083L32.6211 23.3114L31.6276 22.7374C31.4489 22.6341 31.2788 22.5191 31.0669 22.5012C30.8996 22.492 30.7335 22.5352 30.5918 22.6246C30.1444 22.8832 29.6922 23.1347 29.249 23.4004C29.1582 23.453 29.0825 23.5281 29.0294 23.6185C28.9762 23.709 28.9473 23.8117 28.9455 23.9166C28.9364 24.1537 29.3048 24.1533 29.3139 23.9161Z" fill="#222220"/>
<path d="M22.7188 31.5489C22.949 33.3204 23.1836 35.2089 23.473 37.4496C23.5505 37.7292 23.6906 37.9875 23.8826 38.2049C24.0746 38.4223 24.3135 38.5932 24.5812 38.7046C26.9777 39.7141 29.6514 38.7739 30.603 38.351C31.7866 37.825 33.6426 36.9211 34.7923 36.2133C34.9352 36.1284 35.0538 36.0082 35.1369 35.8643C35.2199 35.7203 35.2646 35.5573 35.2666 35.3911V29.4922L22.7188 31.5489Z" fill="white"/>
<path d="M22.5469 31.5512C22.7004 32.7297 22.851 33.9085 22.9987 35.0877C23.0817 35.7408 23.1651 36.3939 23.2489 37.047C23.2612 37.2085 23.2833 37.3691 23.3153 37.5279C23.3487 37.6463 23.3937 37.7611 23.4497 37.8707C23.5649 38.1059 23.7238 38.317 23.918 38.4926C24.3627 38.893 24.9806 39.0778 25.555 39.1993C26.1397 39.3202 26.7375 39.3651 27.3337 39.333C28.3211 39.2776 29.2938 39.0689 30.2169 38.7142C31.1012 38.3795 31.955 37.9443 32.7986 37.5202C33.3096 37.2634 33.8169 36.9986 34.3148 36.7172C34.7583 36.4665 35.2624 36.2328 35.4185 35.7045C35.4559 35.5524 35.471 35.3956 35.4631 35.2392V29.4945C35.4631 29.2572 35.0946 29.2569 35.0946 29.4945V35.3324C35.0996 35.4587 35.0754 35.5844 35.0237 35.6997C34.9721 35.8151 34.8945 35.9169 34.797 35.9972C34.6042 36.1362 34.4005 36.2595 34.1879 36.3659C33.9522 36.5 33.7145 36.6305 33.4748 36.7572C32.5343 37.2571 31.5768 37.7241 30.6022 38.1585C29.8621 38.486 29.0846 38.7212 28.2872 38.859C27.1663 39.0504 25.9905 39.0213 24.9128 38.6344C24.6441 38.5496 24.3946 38.4128 24.1786 38.2318C24.0039 38.0742 23.8622 37.8836 23.7614 37.6709C23.641 37.419 23.6297 37.1426 23.5946 36.8691C23.552 36.538 23.5097 36.2068 23.4675 35.8755C23.3176 34.7002 23.168 33.5248 23.0186 32.3493C22.9845 32.0831 22.95 31.8169 22.9153 31.5508C22.9138 31.5024 22.8939 31.4564 22.8597 31.4221C22.8255 31.3879 22.7795 31.368 22.7311 31.3665C22.6823 31.3668 22.6356 31.3863 22.6012 31.4208C22.5667 31.4553 22.5472 31.502 22.5469 31.5508V31.5512Z" fill="#222220"/>
<path d="M35.2647 29.3796C35.2647 29.534 35.2647 29.6183 35.0504 29.8251C33.944 30.8539 31.6922 32.3523 30.3806 32.9879C29.1974 33.559 27.8837 33.8052 26.5741 33.7011L26.277 33.6734C25.3603 33.589 24.5133 33.3394 23.8569 32.9602C23.2005 32.581 22.73 32.0267 22.6751 31.2658C22.6319 30.6679 23.0257 29.9293 23.9248 29.2495C25.3095 28.2026 27.3821 26.972 28.4793 26.0288C28.6531 25.8795 28.869 25.7878 29.0971 25.7665C29.3252 25.7452 29.5543 25.7953 29.7527 25.9099L35.0504 28.97C35.1121 29.02 35.163 29.0821 35.1999 29.1526C35.2368 29.223 35.2588 29.3003 35.2647 29.3796Z" fill="white"/>
<path d="M35.0904 29.3783C35.0968 29.4172 35.0942 29.457 35.0826 29.4947C35.071 29.5324 35.0509 29.5668 35.0237 29.5954C34.9405 29.6887 34.8498 29.7752 34.7526 29.8539C34.5507 30.0319 34.3421 30.2023 34.1303 30.3683C33.6475 30.7468 33.1457 31.1017 32.636 31.4427C32.1311 31.7805 31.6163 32.1047 31.0884 32.4059C30.5942 32.6993 30.0735 32.9454 29.5331 33.1409C28.2842 33.5624 26.9473 33.6513 25.6536 33.399C24.55 33.1892 23.0031 32.6309 22.8741 31.3159C22.8227 30.7928 23.1072 30.3124 23.4468 29.9375C23.8993 29.4379 24.4863 29.0643 25.0383 28.6849C26.1214 27.9407 27.2446 27.247 28.2801 26.4359C28.4867 26.2741 28.6798 26.0647 28.9366 25.9864C29.0583 25.9494 29.1862 25.9377 29.3126 25.9518C29.439 25.966 29.5612 26.0059 29.6716 26.0689C29.7729 26.1258 29.8727 26.1851 29.9733 26.2432L31.6575 27.2162L33.7418 28.4206C34.1405 28.651 34.534 28.8975 34.9408 29.1133C34.9495 29.1177 34.9579 29.1226 34.966 29.1279C34.9724 29.1321 34.966 29.1279 34.9516 29.117C34.9728 29.1343 34.9918 29.1541 35.0082 29.1759C35.0549 29.2339 35.0835 29.3045 35.0904 29.3787C35.1023 29.6148 35.4708 29.6162 35.4588 29.3787C35.4537 29.2652 35.4226 29.1545 35.368 29.055C35.3133 28.9555 35.2364 28.87 35.1434 28.8049C35.102 28.7782 35.0575 28.7552 35.0145 28.7306L34.395 28.3727L32.3352 27.1822L30.3897 26.0585L29.9015 25.7766C29.7145 25.6627 29.5022 25.5965 29.2836 25.5842C29.0649 25.5718 28.8466 25.6135 28.6478 25.7057C28.3932 25.8249 28.1847 26.0475 27.9635 26.2181C27.7118 26.4124 27.4531 26.5979 27.1926 26.7804C26.6167 27.1836 26.0297 27.5707 25.4464 27.963C24.8733 28.3486 24.2962 28.7337 23.7515 29.1585C23.2386 29.5582 22.7508 30.0791 22.5649 30.7182C22.4023 31.2771 22.5565 31.9002 22.9004 32.3609C23.3002 32.8964 23.8953 33.2291 24.5093 33.4628C25.1406 33.6882 25.7996 33.8264 26.4682 33.8736C27.1832 33.941 27.9042 33.906 28.6092 33.7695C29.2994 33.6343 29.968 33.4056 30.5964 33.0898C31.1139 32.8305 31.6131 32.534 32.1034 32.2267C33.1553 31.567 34.2028 30.8533 35.1232 30.0158C35.3234 29.8336 35.4581 29.6564 35.4585 29.3783C35.4591 29.1411 35.0906 29.1407 35.0904 29.3783Z" fill="#222220"/>
<path d="M28.8003 27.5202L29.9794 28.2014L31.861 29.2884L32.2961 29.5398C32.5019 29.6586 32.6876 29.3402 32.4821 29.2214L31.303 28.5403L29.4214 27.4532L28.9863 27.2019C28.7806 27.0831 28.5948 27.4015 28.8003 27.5202Z" fill="#222220"/>
<path d="M31.3193 33.7347C30.374 34.2439 29.378 34.6516 28.3181 34.8469C27.382 35.0188 26.4205 34.9958 25.4937 34.7792C24.9483 34.6625 24.431 34.4399 23.9711 34.124C23.9289 34.0997 23.8787 34.093 23.8315 34.1053C23.7844 34.1177 23.744 34.1481 23.719 34.1901C23.6954 34.2325 23.6892 34.2825 23.7015 34.3295C23.7138 34.3765 23.7438 34.4169 23.7852 34.4423C24.5809 35.0183 25.5733 35.2135 26.5313 35.3009C27.6375 35.4023 28.7505 35.1985 29.7922 34.8284C30.3822 34.614 30.955 34.3548 31.5055 34.053C31.7144 33.9405 31.5285 33.6221 31.3196 33.7347H31.3193Z" fill="#222220"/>
</svg>
