<svg width="60" height="60" viewBox="0 0 60 60" fill="none" xmlns="http://www.w3.org/2000/svg">
<g id="icon">
<circle id="Ellipse 3207" cx="30" cy="30" r="30" fill="white"/>
<g id="Group 2085662869">
<g id="Group">
<g id="Group_2">
<path id="Vector" d="M19.2847 16.207C17.62 16.207 16.2656 17.5387 16.2656 19.1757V24.5869C16.2656 24.8982 16.5222 25.1506 16.8389 25.1506H21.7306C22.0472 25.1506 22.3039 24.8983 22.3039 24.5869V19.1757C22.3038 17.5387 20.9494 16.207 19.2847 16.207ZM19.2847 17.3344C20.1174 17.3344 20.8245 17.8717 21.0672 18.612H17.5022C17.7449 17.8717 18.452 17.3344 19.2847 17.3344ZM18.7114 24.0233H17.4121V19.7394H18.7114V24.0233ZM21.1573 24.0233H19.858V19.7394H21.1573V24.0233Z" fill="#222220"/>
</g>
</g>
<g id="Group_3">
<g id="Group_4">
<path id="Vector_2" d="M18.068 28.2305H15.0108C14.6941 28.2305 14.4375 28.4828 14.4375 28.7942V31.1992C14.4375 31.5105 14.6941 31.7629 15.0108 31.7629H18.0681C18.3847 31.7629 18.6414 31.5105 18.6414 31.1992V28.7942C18.6413 28.4828 18.3847 28.2305 18.068 28.2305ZM17.4948 30.6354H15.584V29.3578H17.4948L17.4948 30.6354Z" fill="#222220"/>
</g>
</g>
<g id="Group_5">
<g id="Group_6">
<path id="Vector_3" d="M23.5994 28.2305H20.542C20.2254 28.2305 19.9688 28.4828 19.9688 28.7942V31.1992C19.9688 31.5105 20.2253 31.7629 20.542 31.7629H23.5994C23.916 31.7629 24.1726 31.5105 24.1726 31.1992V28.7942C24.1726 28.4828 23.916 28.2305 23.5994 28.2305ZM23.0261 30.6354H21.1153V29.3578H23.0261V30.6354Z" fill="#222220"/>
</g>
</g>
<g id="Group_7">
<g id="Group_8">
<path id="Vector_4" d="M18.068 34.8516H15.0108C14.6941 34.8516 14.4375 35.1039 14.4375 35.4153V37.8203C14.4375 38.1316 14.6941 38.384 15.0108 38.384H18.0681C18.3847 38.384 18.6414 38.1316 18.6414 37.8203V35.4153C18.6413 35.104 18.3847 34.8516 18.068 34.8516ZM17.4948 37.2566H15.584V35.979H17.4948L17.4948 37.2566Z" fill="#222220"/>
</g>
</g>
<g id="Group_9">
<g id="Group_10">
<path id="Vector_5" d="M23.5994 34.8516H20.542C20.2254 34.8516 19.9688 35.1039 19.9688 35.4153V37.8203C19.9688 38.1316 20.2253 38.384 20.542 38.384H23.5994C23.916 38.384 24.1726 38.1316 24.1726 37.8203V35.4153C24.1726 35.104 23.9159 34.8516 23.5994 34.8516ZM23.0261 37.2566H21.1153V35.979H23.0261V37.2566Z" fill="#222220"/>
</g>
</g>
<g id="Group_11">
<g id="Group_12">
<path id="Vector_6" d="M47.4267 22.1461C47.7434 22.1461 48 21.8938 48 21.5824V19.1774C48 19.0279 47.9396 18.8845 47.8322 18.7788L41.106 12.1651C40.882 11.945 40.5191 11.945 40.2952 12.1651L33.737 18.6137H26.2629L19.7048 12.1651C19.4808 11.945 19.1179 11.945 18.894 12.1651L12.168 18.7789C12.0604 18.8846 12.0001 19.0279 12.0001 19.1774V32.405C12.0001 32.7163 12.2566 32.9687 12.5733 32.9687C12.89 32.9687 13.1466 32.7163 13.1466 32.405V19.4109L19.2995 13.3608L25.4523 19.4109V46.8726H22.9301V45.5406C24.3215 45.2764 25.376 44.0704 25.376 42.6262C25.376 40.9894 24.0215 39.6576 22.3569 39.6576C20.6922 39.6576 19.3378 40.9894 19.3378 42.6262C19.3378 44.0704 20.3922 45.2764 21.7837 45.5406V46.8726H16.8153V45.5406C18.2068 45.2764 19.2612 44.0704 19.2612 42.6262C19.2612 40.9894 17.9068 39.6576 16.2421 39.6576C14.5774 39.6576 13.223 40.9893 13.223 42.6262C13.223 44.0704 14.2774 45.2764 15.6689 45.5406V46.8726H13.1465V35.4113C13.1465 35.1 12.89 34.8476 12.5733 34.8476C12.2566 34.8476 12 35.0999 12 35.4113V47.4363C12 47.7476 12.2566 48 12.5733 48H47.4267C47.7433 48 47.9999 47.7477 47.9999 47.4363V24.5887C47.9999 24.2774 47.7434 24.025 47.4267 24.025C47.11 24.025 46.8534 24.2773 46.8534 24.5887V46.8726H44.3311V45.5406C45.7226 45.2764 46.777 44.0704 46.777 42.6262C46.777 40.9894 45.4226 39.6576 43.7579 39.6576C42.0933 39.6576 40.7389 40.9894 40.7389 42.6262C40.7389 44.0704 41.7932 45.2764 43.1847 45.5406V46.8726H38.2166V45.5406C39.6081 45.2764 40.6625 44.0704 40.6625 42.6262C40.6625 40.9894 39.3081 39.6576 37.6434 39.6576C35.9787 39.6576 34.6243 40.9894 34.6243 42.6262C34.6243 44.0704 35.6787 45.2764 37.0702 45.5406V46.8726H34.548V19.4109L40.7008 13.3608L46.8537 19.4109V21.5825C46.8535 21.8938 47.11 22.1461 47.4267 22.1461ZM14.3694 42.6263C14.3694 41.6109 15.2094 40.785 16.2421 40.785C17.2747 40.785 18.1147 41.6109 18.1147 42.6263C18.1147 43.6417 17.2747 44.4676 16.2421 44.4676C15.2094 44.4676 14.3694 43.6416 14.3694 42.6263ZM20.4841 42.6263C20.4841 41.611 21.3241 40.785 22.3567 40.785C23.3894 40.785 24.2293 41.6109 24.2293 42.6263C24.2293 43.6417 23.3894 44.4676 22.3567 44.4676C21.3241 44.4676 20.4841 43.6416 20.4841 42.6263ZM33.4013 46.8726H26.5987V19.7411H33.4013V46.8726ZM41.8853 42.6263C41.8853 41.611 42.7253 40.785 43.7579 40.785C44.7906 40.785 45.6306 41.6109 45.6306 42.6263C45.6306 43.6417 44.7906 44.4676 43.7579 44.4676C42.7253 44.4676 41.8853 43.6416 41.8853 42.6263ZM35.7707 42.6263C35.7707 41.611 36.6106 40.785 37.6433 40.785C38.6759 40.785 39.5159 41.6109 39.5159 42.6263C39.5159 43.6417 38.6759 44.4676 37.6433 44.4676C36.6106 44.4676 35.7707 43.6416 35.7707 42.6263Z" fill="#222220"/>
</g>
</g>
<g id="Group_13">
<g id="Group_14">
<path id="Vector_7" d="M40.7066 16.207C39.0419 16.207 37.6875 17.5387 37.6875 19.1757V24.5869C37.6875 24.8982 37.9441 25.1506 38.2608 25.1506H43.1525C43.4691 25.1506 43.7257 24.8983 43.7257 24.5869V19.1757C43.7257 17.5388 42.3713 16.207 40.7066 16.207ZM40.7066 17.3344C41.5393 17.3344 42.2464 17.8717 42.4891 18.612H38.9241C39.1668 17.8717 39.8739 17.3344 40.7066 17.3344ZM40.1333 24.0233H38.834V19.7394H40.1333V24.0233ZM42.5792 24.0233H41.2798V19.7394H42.5792V24.0233Z" fill="#222220"/>
</g>
</g>
<g id="Group_15">
<g id="Group_16">
<path id="Vector_8" d="M39.4665 28.2305H36.4092C36.0926 28.2305 35.8359 28.4828 35.8359 28.7942V31.1992C35.8359 31.5105 36.0925 31.7629 36.4092 31.7629H39.4665C39.7832 31.7629 40.0398 31.5105 40.0398 31.1992V28.7942C40.0397 28.4828 39.7832 28.2305 39.4665 28.2305ZM38.8933 30.6354H36.9825V29.3578H38.8933V30.6354Z" fill="#222220"/>
</g>
</g>
<g id="Group_17">
<g id="Group_18">
<path id="Vector_9" d="M44.9744 28.2305H41.917C41.6004 28.2305 41.3438 28.4828 41.3438 28.7942V31.1992C41.3438 31.5105 41.6003 31.7629 41.917 31.7629H44.9744C45.291 31.7629 45.5476 31.5105 45.5476 31.1992V28.7942C45.5476 28.4828 45.291 28.2305 44.9744 28.2305ZM44.4011 30.6354H42.4903V29.3578H44.4011V30.6354Z" fill="#222220"/>
</g>
</g>
<g id="Group_19">
<g id="Group_20">
<path id="Vector_10" d="M39.4665 34.8516H36.4092C36.0926 34.8516 35.8359 35.1039 35.8359 35.4153V37.8203C35.8359 38.1316 36.0925 38.384 36.4092 38.384H39.4665C39.7832 38.384 40.0398 38.1316 40.0398 37.8203V35.4153C40.0397 35.104 39.7831 34.8516 39.4665 34.8516ZM38.8933 37.2566H36.9825V35.979H38.8933V37.2566Z" fill="#222220"/>
</g>
</g>
<g id="Group_21">
<g id="Group_22">
<path id="Vector_11" d="M44.9744 34.8516H41.917C41.6004 34.8516 41.3438 35.1039 41.3438 35.4153V37.8203C41.3438 38.1316 41.6003 38.384 41.917 38.384H44.9744C45.291 38.384 45.5476 38.1316 45.5476 37.8203V35.4153C45.5476 35.104 45.291 34.8516 44.9744 34.8516ZM44.4011 37.2566H42.4903V35.979H44.4011V37.2566Z" fill="#222220"/>
</g>
</g>
<g id="Group_23">
<g id="Group_24">
<path id="Vector_12" d="M31.5212 21.6211H28.4639C28.1473 21.6211 27.8906 21.8734 27.8906 22.1848V24.5898C27.8906 24.9011 28.1472 25.1535 28.4639 25.1535H31.5212C31.8379 25.1535 32.0945 24.9012 32.0945 24.5898V22.1848C32.0944 21.8734 31.8378 21.6211 31.5212 21.6211ZM30.948 24.0261H29.0372V22.7485H30.948V24.0261Z" fill="#222220"/>
</g>
</g>
<g id="Group_25">
<g id="Group_26">
<path id="Vector_13" d="M31.5212 28.2305H28.4639C28.1473 28.2305 27.8906 28.4828 27.8906 28.7942V31.1992C27.8906 31.5105 28.1472 31.7629 28.4639 31.7629H31.5212C31.8379 31.7629 32.0945 31.5105 32.0945 31.1992V28.7942C32.0944 28.4828 31.8378 28.2305 31.5212 28.2305ZM30.948 30.6354H29.0372V29.3578H30.948V30.6354Z" fill="#222220"/>
</g>
</g>
<g id="Group_27">
<g id="Group_28">
<path id="Vector_14" d="M31.5212 34.8516H28.4639C28.1473 34.8516 27.8906 35.1039 27.8906 35.4153V37.8203C27.8906 38.1316 28.1472 38.384 28.4639 38.384H31.5212C31.8379 38.384 32.0945 38.1316 32.0945 37.8203V35.4153C32.0944 35.104 31.8378 34.8516 31.5212 34.8516ZM30.948 37.2566H29.0372V35.979H30.948V37.2566Z" fill="#222220"/>
</g>
</g>
<g id="Group_29">
<g id="Group_30">
<path id="Vector_15" d="M31.5212 41.4609H28.4639C28.1473 41.4609 27.8906 41.7133 27.8906 42.0246V44.4297C27.8906 44.7409 28.1472 44.9934 28.4639 44.9934H31.5212C31.8379 44.9934 32.0945 44.741 32.0945 44.4297V42.0246C32.0944 41.7133 31.8378 41.4609 31.5212 41.4609ZM30.948 43.866H29.0372V42.5883H30.948V43.866Z" fill="#222220"/>
</g>
</g>
</g>
</g>
</svg>
