<svg width="60" height="60" viewBox="0 0 60 60" fill="none" xmlns="http://www.w3.org/2000/svg">
<circle cx="30" cy="30" r="30" fill="white"/>
<path d="M38.3594 34.3808V19.0134C38.3588 18.8793 38.3936 18.7475 38.4603 18.6315C38.5269 18.5154 38.6231 18.4193 38.7388 18.353L41.3438 16.8388C41.5052 16.7448 41.6884 16.6953 41.8749 16.6953C42.0613 16.6953 42.2445 16.7448 42.4059 16.8388L53.2747 23.1556C53.3907 23.2223 53.487 23.3188 53.5537 23.4353C53.6204 23.5519 53.6551 23.6841 53.6543 23.8186V39.1857C53.6549 39.3198 53.6201 39.4516 53.5534 39.5677C53.4867 39.6837 53.3905 39.7798 53.2747 39.8461L50.6675 41.3604C50.506 41.4543 50.3229 41.5037 50.1364 41.5037C49.95 41.5037 49.7668 41.4543 49.6053 41.3604L38.7388 35.0451C38.6226 34.9783 38.5262 34.8815 38.4595 34.7648C38.3928 34.648 38.3583 34.5155 38.3594 34.3808Z" fill="white"/>
<path d="M16.6818 12.7205V17.7261C15.2747 18.5424 11.9069 20.4994 10.5 21.3173C10.5 19.8278 10.5 16.625 10.5 15.9365L16.6818 12.3438V12.7205Z" fill="#D9D9D9"/>
<path d="M10.7534 21.171L10.5 21.3184C10.5 20.4254 10.5 18.9178 10.5 17.7055L10.5408 17.6818L16.6811 14.1133V17.7269C15.3527 18.498 12.2765 20.2856 10.7534 21.171Z" fill="white"/>
<path d="M38.3594 19.0134C38.3588 18.8793 38.3936 18.7475 38.4603 18.6315C38.5269 18.5154 38.6231 18.4193 38.7388 18.353L41.3438 16.8388C41.5052 16.7448 41.6884 16.6953 41.8749 16.6953C42.0613 16.6953 42.2445 16.7448 42.4059 16.8388L53.2747 23.1556C53.3901 23.2226 53.486 23.3191 53.5526 23.4352C53.6193 23.5514 53.6543 23.6832 53.6543 23.8173C53.6543 23.9514 53.6193 24.0832 53.5526 24.1994C53.486 24.3155 53.3901 24.412 53.2747 24.479L50.6675 25.9935C50.506 26.0874 50.3229 26.1369 50.1364 26.1369C49.9499 26.1369 49.7668 26.0874 49.6053 25.9935L38.7388 19.6769C38.6227 19.6102 38.5264 19.5135 38.4597 19.3969C38.3931 19.2803 38.3584 19.1479 38.3594 19.0134Z" fill="white"/>
<path d="M53.2975 23.8192V39.0266C53.3177 39.1691 53.2891 39.3142 53.2163 39.4381C53.1033 39.5886 52.8667 39.6763 52.7075 39.7686L52.0525 40.1496L50.8955 40.8215C50.5645 41.0138 50.2245 41.275 49.8287 41.0952C49.789 41.0778 49.7508 41.0522 49.7128 41.0304C48.4836 40.326 47.2625 39.6065 46.0375 38.8944L40.6539 35.7657L39.0916 34.8575C38.961 34.8017 38.8453 34.7158 38.7537 34.6067C38.695 34.4828 38.6732 34.3445 38.6909 34.2084V19.0143C38.6909 18.5685 38.0026 18.5678 38.0026 19.0143V33.7714C38.0026 34.3029 37.9415 34.8626 38.4097 35.2424C38.7309 35.4698 39.0688 35.6725 39.4204 35.8486L44.4689 38.7827L49.0338 41.4359C49.156 41.5069 49.2775 41.5794 49.4005 41.6489C49.6005 41.7647 49.8241 41.8329 50.0543 41.8483C50.5265 41.8775 50.9081 41.6136 51.2983 41.387L52.4625 40.7115L53.0542 40.3679C53.2717 40.2632 53.4751 40.1311 53.6595 39.9747C53.7712 39.8557 53.8576 39.7152 53.9135 39.5615C53.9695 39.4079 53.9938 39.2444 53.9851 39.081V23.8192C53.9851 23.3734 53.2968 23.3727 53.2968 23.8192H53.2975Z" fill="#222220"/>
<path d="M38.7042 19.0127C38.7185 18.6351 39.2792 18.4385 39.5557 18.2778L41.0318 17.4199C41.4226 17.1927 41.8006 16.8922 42.2622 17.1534C42.7927 17.4539 43.3168 17.7663 43.844 18.0727L52.7823 23.2675C53.0563 23.4268 53.4937 23.6503 53.2468 24.04C53.1436 24.2044 52.9135 24.2871 52.7503 24.3819L52.0661 24.7804L50.7996 25.516C50.4639 25.7111 50.16 25.8971 49.7784 25.6915C49.3926 25.4847 49.0189 25.2502 48.6404 25.03L42.9469 21.7218C41.6108 20.9455 40.2627 20.1874 38.9378 19.3917C38.8688 19.3557 38.8108 19.3015 38.7698 19.2351C38.7287 19.1686 38.7063 19.0922 38.7049 19.0139C38.6877 18.5695 37.9994 18.5672 38.0166 19.0139C38.027 19.2319 38.0953 19.4431 38.2144 19.6254C38.3336 19.8077 38.4992 19.9544 38.694 20.0502L39.3714 20.4437L41.9264 21.9288L48.0571 25.4906C48.5117 25.7549 48.9618 26.0299 49.4221 26.2839C49.7286 26.4599 50.0881 26.5185 50.4341 26.4487C50.8903 26.3526 51.3266 26.0095 51.7246 25.7781C52.2027 25.501 52.6807 25.2234 53.1587 24.9453C53.3635 24.8466 53.5516 24.7162 53.7164 24.5589C53.8979 24.3549 53.9986 24.0909 53.9992 23.8171C53.9992 23.2789 53.6484 22.9706 53.2224 22.7231L52.1026 22.0722L49.7218 20.6893L44.8817 17.8763L43.0258 16.7976C42.6921 16.6036 42.3743 16.3874 41.9785 16.3538C41.6659 16.3366 41.3558 16.4176 41.091 16.5858C40.2553 17.0716 39.4107 17.5443 38.5829 18.0436C38.4133 18.1424 38.272 18.2836 38.1726 18.4535C38.0733 18.6235 38.0193 18.8164 38.0159 19.0136C37.9989 19.4591 38.6871 19.4584 38.7042 19.0127Z" fill="#222220"/>
<path d="M26.375 33.3571C26.8052 36.6861 27.2432 40.2349 27.7838 44.4457C27.9287 44.971 28.1903 45.4564 28.5489 45.8649C28.9076 46.2735 29.3538 46.5946 29.8539 46.804C34.3303 48.701 39.3245 46.9341 41.1019 46.1394C43.3127 45.1509 46.7796 43.4525 48.9271 42.1223C49.194 41.9628 49.4156 41.737 49.5708 41.4664C49.7259 41.1959 49.8094 40.8897 49.813 40.5773V29.4922L26.375 33.3571Z" fill="white"/>
<path d="M26.0312 33.3597C26.318 35.5743 26.5993 37.7895 26.8752 40.0054C27.0302 41.2327 27.186 42.46 27.3425 43.6874C27.3655 43.9908 27.4069 44.2926 27.4666 44.591C27.529 44.8135 27.6131 45.0292 27.7176 45.2351C27.9328 45.6771 28.2297 46.0738 28.5924 46.4039C29.4231 47.1563 30.5771 47.5036 31.6501 47.7319C32.7423 47.959 33.859 48.0434 34.9726 47.983C36.8168 47.879 38.6337 47.4868 40.3581 46.8203C42.0099 46.1914 43.6046 45.3735 45.1805 44.5766C46.1349 44.0941 47.0825 43.5963 48.0125 43.0675C48.8409 42.5965 49.7826 42.1573 50.0741 41.1645C50.1441 40.8787 50.1721 40.5841 50.1574 40.2901V29.4948C50.1574 29.049 49.4691 29.0483 49.4691 29.4948V40.4652C49.4785 40.7025 49.4332 40.9388 49.3367 41.1555C49.2403 41.3723 49.0953 41.5636 48.9132 41.7146C48.553 41.9758 48.1726 42.2075 47.7755 42.4074C47.3353 42.6595 46.8912 42.9046 46.4434 43.1428C44.6868 44.082 42.8983 44.9598 41.0779 45.776C39.6954 46.3914 38.2431 46.8334 36.7536 47.0924C34.6598 47.452 32.4636 47.3974 30.4505 46.6703C29.9486 46.5109 29.4826 46.2539 29.0791 45.9137C28.7529 45.6176 28.4881 45.2594 28.2999 44.8598C28.075 44.3864 28.0538 43.867 27.9883 43.3529C27.9088 42.7308 27.8296 42.1084 27.7508 41.4859C27.4709 39.2772 27.1915 37.0684 26.9124 34.8595C26.8486 34.3592 26.7843 33.8591 26.7195 33.359C26.7167 33.268 26.6795 33.1815 26.6156 33.1172C26.5517 33.0528 26.4658 33.0154 26.3754 33.0126C26.2843 33.0131 26.1971 33.0498 26.1326 33.1146C26.0682 33.1795 26.0318 33.2673 26.0312 33.359V33.3597Z" fill="#222220"/>
<path d="M49.819 29.2791C49.819 29.5692 49.819 29.7277 49.4186 30.1164C47.352 32.0497 43.1459 34.8653 40.6959 36.0597C38.4858 37.133 36.032 37.5956 33.5858 37.4L33.0309 37.348C31.3186 37.1893 29.7365 36.7203 28.5104 36.0077C27.2843 35.2952 26.4055 34.2535 26.3028 32.8235C26.2223 31.7001 26.9579 30.3121 28.6372 29.0347C31.2238 27.0673 35.0952 24.7548 37.1446 22.9824C37.4692 22.7017 37.8725 22.5295 38.2985 22.4895C38.7246 22.4494 39.1525 22.5436 39.5232 22.759L49.4186 28.5094C49.534 28.6033 49.6291 28.7201 49.6979 28.8525C49.7668 28.9849 49.808 29.1301 49.819 29.2791Z" fill="white"/>
<path d="M49.4706 29.2745C49.4827 29.3475 49.4778 29.4224 49.4561 29.4932C49.4345 29.564 49.3968 29.6288 49.3461 29.6824C49.1906 29.8579 49.0213 30.0203 48.8397 30.1682C48.4625 30.5027 48.073 30.8229 47.6772 31.1349C46.7755 31.8461 45.8383 32.5131 44.8861 33.1539C43.943 33.7887 42.9815 34.3979 41.9954 34.9639C41.0724 35.5153 40.0996 35.9777 39.0902 36.3451C36.7575 37.1371 34.2601 37.3043 31.8438 36.83C29.7823 36.4358 26.8929 35.3867 26.6518 32.9156C26.5558 31.9325 27.0873 31.0297 27.7217 30.3253C28.5669 29.3866 29.6633 28.6844 30.6944 27.9715C32.7175 26.573 34.8155 25.2695 36.7498 23.7453C37.1357 23.4411 37.4964 23.0476 37.9761 22.9006C38.2034 22.831 38.4423 22.8089 38.6784 22.8356C38.9145 22.8622 39.1426 22.9371 39.349 23.0556C39.5382 23.1624 39.7246 23.274 39.9125 23.3831L43.0584 25.2115L46.9517 27.4747C47.6964 27.9077 48.4314 28.3711 49.1912 28.7765C49.2074 28.7848 49.2232 28.7939 49.2384 28.8039C49.2502 28.8119 49.2384 28.8039 49.2115 28.7835C49.251 28.8159 49.2865 28.8531 49.3172 28.8941C49.4045 29.0032 49.4578 29.1357 49.4706 29.2752C49.493 29.7189 50.1813 29.7215 50.1589 29.2752C50.1494 29.062 50.0913 28.8539 49.9891 28.667C49.887 28.48 49.7435 28.3192 49.5698 28.197C49.4923 28.1468 49.4092 28.1036 49.3289 28.0574L48.1718 27.3848L44.3243 25.1477L40.6903 23.036L39.7784 22.5063C39.429 22.2921 39.0326 22.1679 38.6241 22.1446C38.2157 22.1214 37.8078 22.1998 37.4367 22.373C36.9611 22.5969 36.5715 23.0154 36.1584 23.336C35.6882 23.7011 35.205 24.0496 34.7184 24.3925C33.6427 25.1503 32.5462 25.8776 31.4567 26.6149C30.3863 27.3394 29.3083 28.0631 28.2907 28.8614C27.3327 29.6126 26.4216 30.5914 26.0744 31.7924C25.7707 32.8427 26.0586 34.0135 26.7011 34.8792C27.4478 35.8855 28.5593 36.5108 29.7063 36.9499C30.8854 37.3735 32.1165 37.6332 33.3653 37.7219C34.7009 37.8487 36.0475 37.7828 37.3646 37.5263C38.6537 37.2722 39.9025 36.8425 41.0765 36.2491C42.0431 35.7617 42.9755 35.2047 43.8912 34.627C45.8562 33.3874 47.8128 32.0463 49.5319 30.4725C49.906 30.1301 50.1575 29.7971 50.1582 29.2745C50.1594 28.8287 49.4712 28.828 49.4706 29.2745Z" fill="#222220"/>
<path d="M37.7295 25.7957L39.9318 27.0757L43.4465 29.1185L44.2592 29.5908C44.6436 29.8141 44.9904 29.2157 44.6066 28.9926L42.4042 27.7126L38.8895 25.6698L38.0768 25.1975C37.6926 24.9742 37.3456 25.5727 37.7295 25.7957Z" fill="#222220"/>
<path d="M42.4751 37.4625C40.7094 38.4195 38.8491 39.1856 36.8692 39.5526C35.1207 39.8757 33.3248 39.8324 31.5936 39.4255C30.5748 39.2061 29.6085 38.7878 28.7496 38.1942C28.6706 38.1485 28.577 38.1359 28.4889 38.1591C28.4007 38.1824 28.3252 38.2395 28.2787 38.3183C28.2346 38.3982 28.2229 38.492 28.2459 38.5803C28.2689 38.6687 28.3249 38.7446 28.4022 38.7924C29.8886 39.8748 31.7423 40.2416 33.5317 40.4058C35.598 40.5963 37.677 40.2134 39.6227 39.5178C40.7248 39.115 41.7947 38.628 42.823 38.0608C43.2133 37.8493 42.866 37.2511 42.4758 37.4625H42.4751Z" fill="#222220"/>
<path d="M19.2656 19.9062L19.2876 19.9191L23.5532 22.3976V27.2955L19.2876 24.8168C19.2876 24.8168 19.2766 20.6462 19.2656 20.6398V19.9062Z" fill="#D9D9D9"/>
<path d="M23.2153 22.401V27.2989L23.733 26.9997L19.4674 24.521C19.0832 24.2984 18.7362 24.8962 19.1202 25.1193L23.3849 27.598C23.4374 27.6279 23.4967 27.6435 23.557 27.6433C23.6173 27.6431 23.6765 27.6272 23.7288 27.597C23.7811 27.5668 23.8247 27.5235 23.8553 27.4712C23.886 27.4189 23.9026 27.3595 23.9035 27.2989V22.401C23.9035 21.9553 23.2153 21.9545 23.2153 22.401Z" fill="#222220"/>
<path d="M15.4375 25.9955L20.0882 23.2918C20.3535 23.1374 20.7286 23.1497 21.1702 23.4085C22.1166 23.9628 22.5812 25.1383 22.5787 25.8788C22.5772 26.2977 22.4471 26.6268 22.1925 26.7747L17.5418 29.4778L15.4375 25.9955Z" fill="white"/>
<path d="M15.608 26.2932C17.1428 25.4012 18.6707 24.4955 20.2128 23.617C20.7854 23.2907 21.486 24.0292 21.7689 24.4686C21.9841 24.7999 22.1321 25.1708 22.2045 25.5598C22.2562 25.8454 22.2804 26.2873 22.0153 26.4743C21.8102 26.619 21.5732 26.7312 21.3568 26.8571L19.8753 27.7181L17.365 29.1781C16.9814 29.4008 17.3276 29.9997 17.7124 29.7761L20.0008 28.4463C20.7857 27.9902 21.5953 27.5612 22.3616 27.0743C23.1409 26.5791 22.9688 25.4439 22.6682 24.7147C22.3104 23.8461 21.5154 22.8731 20.5003 22.8441C20.0994 22.8329 19.7731 23.0717 19.4421 23.2642L17.9923 24.107L15.2607 25.6949C14.8771 25.9178 15.2233 26.5166 15.608 26.2932Z" fill="#222220"/>
<path d="M17.5403 29.474C17.2927 29.6177 16.9279 29.5916 16.4496 29.311C15.6032 28.8151 15.0124 27.7916 15.0156 26.8723C15.0172 26.4647 15.1717 26.1448 15.436 25.9908C15.7003 25.8369 16.0766 25.8488 16.5181 26.1076C17.4644 26.6618 17.929 27.8374 17.9266 28.5778C17.925 28.9968 17.7949 29.3259 17.5403 29.474Z" fill="white"/>
<path d="M17.3601 29.1766C17.2668 29.2271 17.3909 29.1703 17.3312 29.1916C17.3028 29.2018 17.2735 29.2095 17.2438 29.2147C17.2801 29.2086 17.1636 29.2147 17.1392 29.2131C16.9956 29.1933 16.8568 29.147 16.73 29.0764C16.3342 28.8627 15.9997 28.5501 15.7586 28.1686C15.5176 27.7871 15.3781 27.3497 15.3535 26.8982C15.3523 26.6651 15.4082 26.3776 15.6386 26.2728C15.8497 26.1766 16.161 26.2994 16.3805 26.4344C16.8427 26.7371 17.1962 27.181 17.3893 27.7008C17.4895 27.9484 17.5516 28.2099 17.5734 28.4763C17.5858 28.7233 17.5533 29.0557 17.3603 29.1769C16.9852 29.4121 17.3301 30.0117 17.7077 29.775C18.3844 29.3505 18.3345 28.3977 18.1252 27.7242C17.906 26.9807 17.4427 26.3339 16.8112 25.8895C16.4409 25.6399 15.9729 25.4696 15.5256 25.5824C15.3328 25.6379 15.1578 25.7431 15.0178 25.8876C14.8778 26.0321 14.7778 26.2109 14.7275 26.4063C14.5006 27.1857 14.848 28.1075 15.311 28.73C15.8072 29.3986 16.835 30.2483 17.707 29.7746C18.0974 29.563 17.7503 28.9646 17.3601 29.1766Z" fill="#222220"/>
<path d="M9.71875 29.3228L14.3692 26.6197C14.6345 26.4656 15.0098 26.4779 15.4513 26.7367C16.3977 27.2909 16.8622 28.4665 16.8598 29.2069C16.8583 29.6257 16.7282 29.955 16.4735 30.1029L11.8229 32.8058L9.71875 29.3228Z" fill="white"/>
<path d="M9.88922 29.6204C11.424 28.7286 12.9519 27.8229 14.4939 26.9442C15.0665 26.6181 15.7672 27.3566 16.0501 27.796C16.2653 28.1273 16.4134 28.4981 16.4857 28.8872C16.5373 29.1728 16.5616 29.6147 16.2964 29.8018C16.0915 29.9462 15.8544 30.0586 15.638 30.1845L14.1565 31.0455L11.6461 32.506C11.2626 32.7289 11.6088 33.3279 11.9935 33.1042L14.2819 31.7744C15.0667 31.3183 15.8763 30.8893 16.6428 30.4023C17.4219 29.9072 17.2498 28.7721 16.9492 28.0429C16.5914 27.1742 15.7964 26.2012 14.7813 26.1722C14.3804 26.1612 14.0541 26.4 13.7231 26.5924L12.2736 27.4349L9.54183 29.0223C9.15847 29.2451 9.50449 29.844 9.88922 29.6204Z" fill="#222220"/>
<path d="M11.8215 32.8019C11.5741 32.9459 11.2094 32.9195 10.7308 32.6391C9.88465 32.1432 9.29362 31.1198 9.29689 30.2004C9.29844 29.7928 9.45295 29.4729 9.71741 29.319C9.98187 29.165 10.3578 29.1769 10.7993 29.4357C11.7457 29.99 12.2102 31.1655 12.2078 31.9059C12.2063 32.3249 12.0762 32.654 11.8215 32.8019Z" fill="white"/>
<path d="M11.6334 32.5085C11.5402 32.5592 11.6642 32.5024 11.6047 32.5236C11.5762 32.5338 11.5469 32.5415 11.5171 32.5466C11.5534 32.5407 11.4369 32.5466 11.4125 32.5452C11.2687 32.5253 11.1297 32.4789 11.0026 32.4082C10.6069 32.1945 10.2724 31.8819 10.0313 31.5004C9.79022 31.1189 9.65071 30.6814 9.62615 30.23C9.62495 29.9969 9.68087 29.7093 9.91126 29.6045C10.1224 29.5084 10.4336 29.6312 10.6534 29.7661C11.1154 30.0689 11.4689 30.5128 11.662 31.0326C11.7622 31.2801 11.8243 31.5416 11.8461 31.8081C11.8585 32.055 11.8261 32.3874 11.6329 32.5085C11.2578 32.7439 11.603 33.3435 11.9803 33.1067C12.6572 32.6822 12.6071 31.7294 12.3979 31.056C12.1787 30.3126 11.7155 29.666 11.084 29.2218C10.7138 28.972 10.2461 28.8017 9.7989 28.9143C9.60615 28.9699 9.43114 29.0751 9.29121 29.2197C9.15127 29.3642 9.05126 29.543 9.00105 29.7384C8.77393 30.5178 9.1215 31.4396 9.58434 32.0621C10.0806 32.7307 11.1083 33.5805 11.9803 33.1067C12.3707 32.8942 12.0237 32.296 11.6334 32.5085Z" fill="#222220"/>
<path d="M6.34998 32.3145C6.34998 32.0089 6.33879 28.1628 6.32812 28.1565V27.4239L6.35015 27.4112L6.78598 27.1578L19.2613 19.9062L23.5494 22.398V23.1315C21.5323 24.3032 11.0471 30.3978 10.6157 30.6486V34.813L6.35015 32.3344L6.34998 32.3145Z" fill="#D9D9D9"/>
<path d="M23.2121 22.401V23.1346L23.3825 22.8354C21.6733 23.8285 19.9645 24.8215 18.2561 25.8146L11.9937 29.4541L10.4481 30.3527C10.0647 30.5754 10.4107 31.1744 10.7955 30.9508L14.7902 28.6283L21.3676 24.806L23.7292 23.4337C23.781 23.4031 23.8241 23.3594 23.8541 23.3069C23.8841 23.2545 23.9001 23.1951 23.9004 23.1346V22.401C23.9004 21.9552 23.2121 21.9545 23.2121 22.401Z" fill="#222220"/>
<path d="M16.3301 12.7208V17.7264L16.5004 17.4273C14.8313 18.3962 13.1623 19.3657 11.4934 20.3359L10.3181 21.0188L10.836 21.318C10.836 19.5245 10.836 17.7309 10.836 15.9372L10.6657 16.2363L16.8478 12.6432L16.3301 12.3441V12.7208C16.3301 13.1664 17.0183 13.1673 17.0183 12.7208V12.3441C17.0173 12.2835 17.0007 12.2242 16.9701 12.172C16.9395 12.1198 16.896 12.0766 16.8438 12.0464C16.7916 12.0163 16.7325 12.0003 16.6723 12C16.6121 11.9997 16.5529 12.0152 16.5004 12.0449L10.319 15.6375C10.2672 15.6682 10.2242 15.7119 10.1943 15.7644C10.1644 15.8168 10.1486 15.8762 10.1484 15.9367C10.1484 17.7303 10.1484 19.5239 10.1484 21.3174C10.1494 21.378 10.166 21.4373 10.1966 21.4895C10.2271 21.5417 10.2707 21.585 10.3229 21.6151C10.3751 21.6453 10.4341 21.6613 10.4943 21.6615C10.5545 21.6618 10.6137 21.6463 10.6662 21.6166C12.3351 20.6466 14.0041 19.6767 15.6732 18.7067L16.8483 18.0243C16.9001 17.9936 16.943 17.9499 16.9729 17.8975C17.0028 17.845 17.0187 17.7856 17.0189 17.7252V12.7208C17.0183 12.2749 16.3301 12.2743 16.3301 12.7208Z" fill="#222220"/>
<path d="M10.7095 17.9811L16.8499 14.413C17.2334 14.1901 16.8872 13.5912 16.5025 13.8148L10.3621 17.3828C9.97875 17.6055 10.3249 18.2047 10.7095 17.9811Z" fill="#222220"/>
<path d="M23.7236 22.1009L19.4364 19.6091C19.3835 19.5786 19.3236 19.5625 19.2627 19.5625C19.2017 19.5625 19.1418 19.5786 19.089 19.6091L16.3157 21.2212L10.7581 24.4516L6.56651 26.8881C6.44762 26.9574 6.32563 27.0227 6.20931 27.0959C5.98064 27.239 6.00043 27.4536 6.00043 27.6881C6.00146 28.6873 6.00278 29.6865 6.00439 30.6859C6.00508 31.1281 6.00571 31.5702 6.00628 32.0123C6.00628 32.2749 5.97187 32.5089 6.23185 32.6672C7.30276 33.3207 8.40327 33.9294 9.48777 34.5595L10.442 35.1137C10.4945 35.1435 10.5537 35.159 10.6139 35.1588C10.6741 35.1586 10.7332 35.1426 10.7855 35.1124C10.8377 35.0822 10.8812 35.0389 10.9118 34.9867C10.9424 34.9345 10.959 34.8752 10.9599 34.8146V30.6506C10.9599 30.2049 10.2717 30.2041 10.2717 30.6506V34.815L10.7899 34.5162L6.52505 32.0373L6.69556 32.3364C6.69349 30.9404 6.69154 29.5444 6.68971 28.1485C6.68971 27.9046 6.68971 27.6607 6.68971 27.4169L6.51937 27.716L7.78626 26.9797L10.8748 25.1844L14.6035 23.0164L17.8336 21.1389L18.905 20.5159C19.08 20.4271 19.2498 20.3284 19.4137 20.2202C19.4202 20.2154 19.4285 20.2117 19.4357 20.2074H19.089L23.3762 22.6991C23.7604 22.9225 24.1075 22.324 23.7236 22.1009Z" fill="#222220"/>
<path d="M9.75547 29.0189L7.72101 27.8364C7.68199 27.8135 7.63886 27.7985 7.59408 27.7923C7.5493 27.7861 7.50375 27.7889 7.46002 27.8004C7.4163 27.8119 7.37527 27.832 7.33926 27.8595C7.30325 27.887 7.27298 27.9214 7.25017 27.9607C7.2041 28.04 7.19123 28.1345 7.21438 28.2234C7.23753 28.3123 7.29481 28.3883 7.37362 28.4347L9.40808 29.6171C9.48689 29.6635 9.58077 29.6765 9.66907 29.6532C9.75737 29.6299 9.83286 29.5722 9.87892 29.4929C9.92499 29.4135 9.93786 29.319 9.91471 29.2301C9.89156 29.1412 9.83428 29.0653 9.75547 29.0189Z" fill="#222220"/>
</svg>
