<svg width="60" height="60" viewBox="0 0 60 60" fill="none" xmlns="http://www.w3.org/2000/svg">
<g id="icon">
<circle id="Ellipse 3206" cx="30" cy="30" r="30" fill="white"/>
<g id="Group 2085662856">
<g id="Brick Wall">
<path id="Vector" d="M17.2536 35.9688H9.02344V40.0678H17.2536V35.9688Z" fill="#222220"/>
<path id="Vector_2" d="M50.9887 35.9688H41.9297V39.9228H50.9887V35.9688Z" fill="#222220"/>
<path id="Vector_3" d="M17.2536 22.9062H9.02344V27.0053H17.2536V22.9062Z" fill="#222220"/>
<path id="Vector_4" d="M50.9887 23.0039H41.9297V26.958H50.9887V23.0039Z" fill="#222220"/>
<path id="Vector_5" d="M17.1952 42.5469H9V46.501H17.1952V42.5469Z" fill="#222220"/>
<path id="Vector_6" d="M24.0065 42.5469H19.4766V46.501H24.0065V42.5469Z" fill="#222220"/>
<path id="Vector_7" d="M39.569 42.3672H35.0391V46.3213H39.569V42.3672Z" fill="#222220"/>
<path id="Vector_8" d="M24.0065 35.9688H19.4766V39.9228H24.0065V35.9688Z" fill="#222220"/>
<path id="Vector_9" d="M39.569 35.8516H35.0391V39.8056H39.569V35.8516Z" fill="#222220"/>
<path id="Vector_10" d="M24.0065 29.3945H19.4766V33.3486H24.0065V29.3945Z" fill="#222220"/>
<path id="Vector_11" d="M39.569 29.3359H35.0391V33.29H39.569V29.3359Z" fill="#222220"/>
<path id="Vector_12" d="M24.0065 22.8203H19.4766V26.7744H24.0065V22.8203Z" fill="#222220"/>
<path id="Vector_13" d="M39.569 22.8203H35.0391V26.7744H39.569V22.8203Z" fill="#222220"/>
<path id="Vector_14" d="M50.9887 42.5469H41.9297V46.501H50.9887V42.5469Z" fill="#222220"/>
<path id="Vector_15" d="M17.1952 29.5117H9V33.4913H17.1952V29.5117Z" fill="#222220"/>
<path id="Vector_16" d="M50.9887 29.5117H41.9297V33.4913H50.9887V29.5117Z" fill="#222220"/>
<path id="Vector_17" d="M17.1952 16.5H9V20.4541H17.1952V16.5Z" fill="#222220"/>
<path id="Vector_18" d="M28.4431 16.5H19.4062V20.4541H28.4431V16.5Z" fill="#222220"/>
<path id="Vector_19" d="M39.7309 16.5H30.6719V20.4541H39.7309V16.5Z" fill="#222220"/>
<path id="Vector_20" d="M50.9887 16.5H41.9297V20.4541H50.9887V16.5Z" fill="#222220"/>
</g>
</g>
</g>
</svg>
