<svg width="60" height="60" viewBox="0 0 60 60" fill="none" xmlns="http://www.w3.org/2000/svg">
<g id="icon">
<circle id="Ellipse 3207" cx="30" cy="30" r="30" fill="white"/>
<g id="Group">
<path id="Vector" fill-rule="evenodd" clip-rule="evenodd" d="M46.1364 47.3944C46.1364 47.7268 45.8761 48 45.5524 48H14.2873C13.9668 48 13.7033 47.7301 13.7033 47.3944V29.0088C13.0495 29.2688 12.4433 29.2721 11.9355 29.0977C11.5388 28.9594 11.2056 28.7126 10.9612 28.39C10.7168 28.0708 10.5613 27.6791 10.5137 27.2512C10.4439 26.5831 10.6375 25.8261 11.1834 25.1184C11.2119 25.0822 11.2437 25.0493 11.2786 25.0197L29.5596 12.1603C29.7659 11.9628 30.0833 11.9431 30.3118 12.1274L48.6246 24.9604C48.65 24.9802 48.6722 25.0032 48.6944 25.0263C49.4308 25.8491 49.6148 26.7608 49.4371 27.5343C49.3482 27.9128 49.1737 28.2584 48.9325 28.5382C48.6913 28.8212 48.3834 29.0384 48.0311 29.1701C47.4725 29.3807 46.8124 29.3709 46.1395 29.0417C46.1364 34.1763 46.1364 42.2631 46.1364 47.3944ZM24.8878 23.9664H35.1106V31.1054H24.8878V23.9664ZM28.3631 25.9051C28.6583 25.9051 28.8995 26.1552 28.8995 26.4613C28.8995 26.7674 28.6583 27.0175 28.3631 27.0175C28.0679 27.0175 27.8267 26.7674 27.8267 26.4613C27.8267 26.1519 28.0648 25.9051 28.3631 25.9051ZM30.6197 28.2913L31.8257 26.3691L32.9651 29.3577H27.3792V28.9858L27.8267 28.9627L28.2742 27.8272L28.6297 28.6402H29.2994L29.8802 27.0867L30.6197 28.2913ZM25.5035 24.7004H34.5012V30.3714H25.5035V24.7004ZM29.8389 36.5823C29.8516 36.5855 29.8675 36.5822 29.8802 36.5691C30.5657 36.0128 31.5718 36.2465 32.032 37.4117H32.0225C31.1148 38.2115 30.4642 39.0804 30.2293 40.0513H28.9153L29.8389 36.5823ZM34.4155 38.8039C34.5266 39.7913 33.5491 40.6438 32.689 40.3739C32.5684 40.5911 32.4763 40.8643 32.4033 41.1935C32.2415 41.9603 32.2891 41.7267 32.3589 42.4705C32.4541 43.4612 32.3526 44.1359 31.7368 44.4256V44.8074H19.3019V44.4256C18.8227 44.2478 18.6164 43.7607 18.6894 42.9609C18.8481 41.4535 18.7497 40.9828 18.3847 40.4134C17.7436 40.4364 17.2802 40.2785 16.9914 39.9427C16.4011 39.2614 16.582 38.2641 17.3183 37.7869C17.4706 37.6881 17.6484 37.6124 17.8547 37.5664C19.4352 37.2208 20.308 38.8994 20.727 40.2225L24.8751 40.3377C25.1576 40.3772 25.3385 40.5089 25.4591 40.6866C25.5702 40.5121 25.732 40.3805 25.9796 40.3212C27.2713 40.262 28.1949 40.4397 29.1375 40.4397H30.2356C30.461 40.4397 30.5784 40.3377 30.6165 40.1501C30.8958 39.268 31.886 37.4972 32.9238 37.5302C33.5618 37.5532 34.2568 38.0074 34.4155 38.8039ZM19.1147 37.3063C19.5336 36.3387 20.1874 36.0984 21.0792 36.421L22.0346 39.8275H21.0031C20.5238 38.8138 20.2064 37.7836 19.1147 37.3063ZM21.4823 36.4473C21.495 36.4407 21.5045 36.4308 21.5109 36.4144C21.8632 35.5718 22.8344 35.3348 23.6278 35.6969C23.6278 35.6936 23.631 35.6936 23.631 35.6936L23.8468 40.0316H22.4725L21.4823 36.4473ZM24.0531 35.6047C24.3102 34.4955 26.7476 34.7226 26.973 35.4862C27.0047 35.4829 26.7191 39.5807 26.7 40.0349H26.3382C25.7669 40.0349 25.2623 40.0349 24.6974 40.0349H24.2403L24.0626 35.6047H24.0531ZM27.2904 35.7923C27.2967 35.7923 27.3062 35.789 27.3158 35.7857C28.1981 35.2986 29.4263 35.6541 29.5438 36.2893L29.4835 36.3124L28.5154 40.0316H27.0841L27.2904 35.7923ZM39.9633 37.6421V43.6817H41.1376C41.3185 43.6817 41.4645 43.9022 41.4645 44.0899C41.4645 44.2775 41.3185 44.498 41.1376 44.498H37.8845C37.7036 44.498 37.5576 44.2775 37.5576 44.0899C37.5576 43.9022 37.7036 43.6817 37.8845 43.6817H39.0588V37.6421H39.9633ZM37.8242 33.0671H41.1884L42.1755 37.1056H36.8435L37.8242 33.0671ZM44.6701 46.4761V28.3341C44.6701 28.2946 44.6732 28.2551 44.6796 28.2189L30.0579 18.1177L15.1538 28.2222C15.1665 28.2715 15.1728 28.3242 15.1728 28.3769V46.4761C25.0052 46.4761 34.8376 46.4761 44.6701 46.4761Z" fill="#222220"/>
</g>
</g>
</svg>
