<svg width="60" height="60" viewBox="0 0 60 60" fill="none" xmlns="http://www.w3.org/2000/svg">
<circle cx="30" cy="30" r="30" fill="white"/>
<path d="M16.0584 23.6797C17.8853 22.2068 19.4008 23.2226 21.4235 25.6525C21.6506 25.9268 21.9561 25.6058 22.1303 25.4493C22.3026 25.2909 24.9715 22.798 25.1027 22.6842C25.2319 22.5644 25.3886 22.3409 25.183 22.091C24.6877 21.4554 24.2027 20.8112 23.7281 20.1588C20.1879 15.3539 33.4127 12.0951 31.3822 12.0443C30.3483 12.0159 26.2011 11.9651 25.5804 12.0362C23.0682 12.3105 19.9138 14.7464 18.3258 15.8822C16.2483 17.3572 15.4729 18.2226 15.3457 18.3425C14.7582 18.8748 15.2517 20.104 14.1865 21.0731C13.0606 22.095 12.3577 21.321 11.7056 21.9142C11.3825 22.2108 10.4779 22.9138 10.2195 23.1474C9.95903 23.3852 9.91204 23.7854 10.1783 24.1044C10.1783 24.1044 12.6533 26.9406 12.8609 27.1925C13.0665 27.4404 13.6265 27.6557 13.9711 27.3368C14.3177 27.0198 15.2086 26.2133 15.3574 26.071C15.5101 25.9369 15.2595 24.3218 16.0584 23.6797ZM27.235 24.7301C27 24.4477 26.7083 24.4396 26.4577 24.6712L23.6498 27.2149C23.5414 27.3169 23.4753 27.4586 23.4655 27.6102C23.4556 27.7617 23.5027 27.9113 23.5969 28.0275L39.8371 47.2046C40.2169 47.6577 40.8749 47.7044 41.3076 47.3123L43.2069 45.6605C43.416 45.4695 43.5439 45.2006 43.563 44.9122C43.5821 44.6239 43.4907 44.3393 43.3087 44.1205L27.235 24.7301ZM48.8892 16.5689C48.7443 15.5652 48.243 15.7745 47.9826 16.1991C47.7222 16.6278 46.5709 18.438 46.097 19.2588C45.6271 20.0715 44.4679 21.6785 42.3101 20.0918C40.0623 18.4441 40.8435 17.2942 41.2351 16.5201C41.6287 15.742 42.8368 13.5599 43.0111 13.2897C43.1854 13.0154 42.9817 12.219 42.2847 12.5522C41.5856 12.8854 37.3445 14.6347 36.7571 17.1438C36.1559 19.6956 37.2603 21.9772 35.0927 24.2425L32.463 27.0869L35.1044 30.2685L38.3431 27.0787C39.1146 26.2742 40.7632 25.492 42.2553 25.8455C45.4528 26.5952 47.1974 25.3498 48.2489 23.2897C49.1927 21.449 49.0361 17.5725 48.8892 16.5689ZM15.283 44.3277C15.0871 44.5325 14.9772 44.8093 14.9772 45.0977C14.9772 45.3862 15.0871 45.663 15.283 45.8677L17.1451 47.7572C17.5524 48.1818 18.1986 48.003 18.6058 47.5784L28.214 37.7776L25.2711 34.2953L15.283 44.3277Z" fill="#222220"/>
</svg>
