<svg width="60" height="60" viewBox="0 0 60 60" fill="none" xmlns="http://www.w3.org/2000/svg">
<circle cx="30" cy="30" r="30" fill="white"/>
<path d="M21.2727 23.0492H10.2273C9.55227 23.0492 9 22.4642 9 21.7492C9 21.0342 9.55227 20.4492 10.2273 20.4492H21.2727C21.9477 20.4492 22.5 21.0342 22.5 21.7492C22.5 22.4642 21.9477 23.0492 21.2727 23.0492Z" stroke="#222220" stroke-miterlimit="10" stroke-linecap="round" stroke-linejoin="round"/>
<path d="M21.2798 23.0508C21.2798 26.3008 18.8253 28.9008 15.7571 28.9008C12.6889 28.9008 10.2344 26.3008 10.2344 23.0508" stroke="#222220" stroke-miterlimit="10" stroke-linecap="round" stroke-linejoin="round"/>
<path d="M19.2541 27.6016L20.0518 31.5016H11.4609L12.2587 27.6016" stroke="#222220" stroke-miterlimit="10" stroke-linecap="round" stroke-linejoin="round"/>
<path d="M20.6463 20.45H10.8281V14.6C10.8281 13.17 11.9327 12 13.2827 12H18.1918C19.5418 12 20.6463 13.17 20.6463 14.6V20.45Z" stroke="#222220" stroke-miterlimit="10" stroke-linecap="round" stroke-linejoin="round"/>
<path d="M13.2891 14.5938H14.5163" stroke="#222220" stroke-miterlimit="10" stroke-linecap="round" stroke-linejoin="round"/>
<path d="M33.9375 39.6232C33.9375 39.5509 33.9375 39.5142 33.9394 39.4842C33.9542 39.2565 34.0516 39.042 34.2134 38.8806C34.3752 38.7193 34.5904 38.6222 34.8187 38.6073C34.8498 38.6055 34.8847 38.6055 34.9582 38.6055H49.8815C49.9541 38.6055 49.9899 38.6055 50.021 38.6073C50.2494 38.6222 50.4645 38.7193 50.6263 38.8806C50.7881 39.042 50.8855 39.2565 50.9004 39.4842C50.9023 39.5142 50.9023 39.5499 50.9023 39.6232C50.9023 39.9944 50.9023 40.1805 50.8891 40.3892C50.6921 43.4782 48.0588 46.2054 44.9702 46.5164C44.762 46.5381 44.6404 46.5428 44.3972 46.5522C43.7384 46.5781 43.0792 46.5919 42.4199 46.5935C41.8073 46.5935 41.1343 46.5775 40.4425 46.5522C40.1994 46.5428 40.0778 46.5381 39.8705 46.5174C36.781 46.2054 34.1477 43.4782 33.9516 40.3892C33.9375 40.1805 33.9375 39.9944 33.9375 39.6232Z" stroke="#222220"/>
<path d="M36.7699 46.1236L35.8275 48.0032M48.0798 46.1236L49.0223 48.0032M33 38.6055H51.8497" stroke="#222220" stroke-linecap="round"/>
<path d="M33.25 39.5423C33.25 39.7292 33.3245 39.9085 33.457 40.0407C33.5896 40.1729 33.7694 40.2471 33.9569 40.2471C34.1443 40.2471 34.3241 40.1729 34.4567 40.0407C34.5893 39.9085 34.6637 39.7292 34.6637 39.5423H33.25ZM37.1104 35.5408L36.4526 35.7992C36.4874 35.8869 36.5395 35.9668 36.6058 36.034C36.6721 36.1013 36.7513 36.1546 36.8387 36.1908C36.926 36.227 37.0198 36.2453 37.1144 36.2447C37.209 36.2441 37.3025 36.2246 37.3894 36.1873L37.1104 35.5408ZM42.7276 33.1284L43.0076 33.7768C43.1763 33.7044 43.31 33.5693 43.3806 33.4002C43.4511 33.2311 43.4529 33.0412 43.3855 32.8709L42.7276 33.1284ZM34.6637 39.5423V31.4462H33.25V39.5423H34.6637ZM36.2047 29.9097C36.8352 29.9097 37.4017 30.2921 37.6354 30.8757L38.9483 30.3513C38.729 29.8047 38.3506 29.337 37.8618 29.0069C37.3729 28.6767 36.7961 28.5002 36.2056 28.5L36.2047 29.9097ZM34.6637 31.4462C34.6637 30.5976 35.3536 29.9097 36.2047 29.9097L36.2056 28.5C35.422 28.5 34.6695 28.8104 34.1154 29.3629C33.5613 29.9154 33.25 30.6648 33.25 31.4462H34.6637ZM37.6354 30.8757L37.9935 31.7666L39.3055 31.2432L38.9483 30.3513L37.6354 30.8757ZM37.7673 35.2823C37.5303 34.6798 37.535 34.0094 37.7805 33.4103L36.4705 32.8793C36.0881 33.814 36.0823 34.8597 36.4526 35.7992L37.7673 35.2823ZM42.4487 32.4818L36.8305 34.8933L37.3894 36.1873L43.0066 33.7759L42.4487 32.4818ZM40.82 32.088C41.4063 32.338 41.8426 32.8107 42.0707 33.3868L43.3855 32.8709C43.2057 32.4087 42.9355 31.9859 42.5905 31.629C42.2455 31.2721 41.8327 30.9873 41.3761 30.7912L40.82 32.088ZM37.7805 33.4103C38.0016 32.8553 38.4214 32.4018 38.9586 32.1378L38.3404 30.872C37.4896 31.2876 36.8234 32.0027 36.4705 32.8793L37.7805 33.4103ZM38.9586 32.1378C39.2469 31.996 39.5625 31.919 39.8839 31.9104C40.2052 31.9018 40.5246 31.9618 40.82 32.088L41.3761 30.7912C40.8942 30.5857 40.3734 30.4874 39.8495 30.5012C39.3255 30.515 38.8108 30.6415 38.3404 30.872L38.9586 32.1378Z" fill="#222220"/>
<path d="M28.032 24.48H29.24L26.168 36H24.96L28.032 24.48Z" fill="#222220"/>
</svg>
