<svg width="60" height="60" viewBox="0 0 60 60" fill="none" xmlns="http://www.w3.org/2000/svg">
<g id="icon">
<circle id="Ellipse 3206" cx="30" cy="30" r="30" fill="white"/>
<path id="Vector" d="M14.6288 18C14.2816 18 14 18.3018 14 18.6736V41.3264C14 41.6982 14.2816 41.9997 14.6288 42H45.3712C45.7184 42 46 41.6982 46 41.3264V18.6736C46 18.3018 45.7184 18.0003 45.3712 18H14.6288ZM21.7994 19.3482H25.7626C26.7834 19.7056 27.8362 20.0426 28.8899 20.3514C31.2131 21.0317 33.5075 21.5853 35.2912 21.9693C35.8589 22.0915 36.3494 22.1891 36.7987 22.2755C36.4912 22.6064 36.1894 22.9363 35.8813 23.2656L35.543 23.6269C33.4653 22.9763 31.0883 22.329 28.0314 21.688C25.8746 21.2362 23.7955 20.4195 21.7994 19.3482ZM27.265 19.3482H31.8899C33.1407 19.6741 34.398 19.9743 35.6611 20.2486C36.5347 20.4368 37.2803 20.5824 37.832 20.6794C38.0544 20.7192 38.2775 20.755 38.5011 20.7869C38.6675 20.8096 38.8054 20.8141 38.7555 20.8157L38.7574 20.8662C39.2157 20.3637 39.6701 19.8576 40.1206 19.3482H41.8269C40.3968 20.9994 38.7827 22.7414 37.1664 24.4688C34.031 27.8189 30.9565 31.088 29.6704 33.0694C30.0441 33.6205 30.2437 34.2711 30.2432 34.937C30.2432 35.5107 30.097 36.0518 29.8397 36.5251C31.1507 37.5501 32.1299 39.039 33.0166 40.6518H31.5334C30.7706 39.3558 29.9626 38.2381 29.0272 37.5133C28.6011 37.8683 28.093 38.1112 27.5492 38.2202C27.0054 38.3291 26.4429 38.3005 25.913 38.137C25.6085 38.9913 25.2635 39.8307 24.879 40.6522H23.4614C23.9501 39.6464 24.3958 38.6141 24.7722 37.5219C24.0246 36.9066 23.5466 35.975 23.5466 34.937C23.5466 34.0563 23.8931 33.2544 24.4541 32.655C22.5629 28.4278 19.1469 26.255 15.2579 23.9462V22.4506C19.3834 24.8842 23.3203 27.199 25.5146 31.8912C26.0299 31.6541 26.5976 31.5533 27.1631 31.5987C27.7286 31.644 28.273 31.8339 28.744 32.1501C30.2384 29.9376 33.2032 26.8288 36.231 23.5936C36.7392 23.0506 37.2406 22.5062 37.7446 21.9616C37.6941 21.9533 37.6637 21.9494 37.6096 21.9398C36.8677 21.8068 36.1282 21.6601 35.3917 21.4998C33.6179 21.1181 31.3331 20.5667 29.0246 19.8906C28.4355 19.7177 27.8491 19.5369 27.265 19.3482ZM33.873 19.3482H39.472C39.1856 19.6694 38.9056 19.9872 38.6074 20.3149C38.5914 20.3133 38.5827 20.3136 38.5664 20.3114C38.3486 20.2802 38.1314 20.2452 37.9149 20.2064C37.3718 20.1107 36.6307 19.9664 35.7626 19.7795C35.1313 19.6423 34.5012 19.4985 33.873 19.3482ZM42.4637 19.3482H44.7421V20.7514C44.7286 20.7504 44.7158 20.7475 44.7024 20.7475H44.6982C44.5497 20.7481 44.4075 20.8076 44.3029 20.913C44.1982 21.0184 44.1398 21.1611 44.1403 21.3096C44.1409 21.4581 44.2004 21.6003 44.3058 21.705C44.4112 21.8096 44.5539 21.8681 44.7024 21.8675C44.7158 21.8675 44.7286 21.8646 44.7418 21.8637V22.9914C44.729 22.9904 44.7162 22.9875 44.7024 22.9875H44.6982C44.5497 22.9881 44.4075 23.0476 44.3029 23.153C44.1982 23.2584 44.1398 23.4011 44.1403 23.5496C44.1409 23.6981 44.2004 23.8403 44.3058 23.945C44.4112 24.0496 44.5539 24.1081 44.7024 24.1075C44.7158 24.1075 44.7286 24.1046 44.7418 24.1037V25.2314C44.729 25.2304 44.7162 25.2275 44.7024 25.2275C44.5539 25.2275 44.4114 25.2865 44.3064 25.3915C44.2014 25.4966 44.1424 25.639 44.1424 25.7875C44.1424 25.936 44.2014 26.0785 44.3064 26.1835C44.4114 26.2885 44.5539 26.3475 44.7024 26.3475C44.7158 26.3475 44.7286 26.3446 44.7418 26.3437V26.7581C44.4886 26.6778 44.2304 26.5974 43.9837 26.5168C43.9206 26.4522 43.8429 26.4038 43.7571 26.3757C43.6713 26.3476 43.5799 26.3407 43.4909 26.3555C43.2858 26.2874 43.0886 26.2195 42.888 26.1514C42.9474 26.0819 42.9889 25.999 43.0089 25.9099C43.0288 25.8207 43.0267 25.728 43.0026 25.6399C42.9786 25.5517 42.9333 25.4708 42.8708 25.4042C42.8083 25.3376 42.7304 25.2873 42.644 25.2576C42.5576 25.228 42.4652 25.22 42.375 25.2343C42.2847 25.2485 42.1993 25.2847 42.1263 25.3395C42.0532 25.3943 41.9946 25.4662 41.9557 25.5489C41.9168 25.6316 41.8987 25.7225 41.903 25.8138C41.4467 25.6541 41 25.4944 40.552 25.335C40.464 25.2709 40.3593 25.2337 40.2506 25.2282C40.0234 25.1472 39.792 25.0659 39.5638 24.985C39.6475 24.8637 39.6799 24.7143 39.6542 24.5692C39.6284 24.4241 39.5465 24.295 39.4262 24.2099L38.9155 24.7571C38.5805 24.6387 38.2246 24.521 37.8819 24.4032C39.4819 22.6925 41.0669 20.9773 42.4637 19.3482ZM44.0829 19.937C43.713 20.0285 43.399 20.1891 43.0787 20.4314C43.1099 20.4994 43.1544 20.5606 43.2096 20.6111C43.2648 20.6617 43.3295 20.7007 43.4001 20.7258C43.4706 20.7509 43.5454 20.7616 43.6202 20.7573C43.6949 20.753 43.768 20.7338 43.8352 20.7007C43.9024 20.6676 43.9622 20.6215 44.0112 20.5649C44.0602 20.5083 44.0974 20.4424 44.1205 20.3712C44.1436 20.3 44.1523 20.2249 44.1458 20.1503C44.1394 20.0757 44.1178 20.0032 44.0829 19.937ZM42.6682 20.7869C42.4178 21.0212 42.1758 21.2643 41.9424 21.5155C41.9768 21.6017 42.0321 21.6779 42.1033 21.7374C42.1745 21.7969 42.2594 21.8378 42.3503 21.8564C42.4412 21.875 42.5353 21.8707 42.6241 21.8439C42.7129 21.8171 42.7937 21.7686 42.8592 21.7029C42.9247 21.6372 42.9728 21.5562 42.9992 21.4673C43.0256 21.3783 43.0296 21.2842 43.0106 21.1934C42.9917 21.1026 42.9505 21.0179 42.8907 20.9469C42.8309 20.876 42.7544 20.821 42.6682 20.7869ZM15.2582 21.4237C21.055 25.2749 25.8931 26.8637 31.6618 27.8125C30.4442 29.1661 29.3773 30.4237 28.5987 31.5174C28.0708 31.2492 27.4872 31.1089 26.895 31.1078C26.4979 31.1078 26.1139 31.1699 25.7526 31.2845C23.4122 26.6272 19.3642 24.3117 15.2582 21.8906V21.4237ZM43.5782 21.8675C43.5047 21.8681 43.432 21.8831 43.3643 21.9118C43.2965 21.9405 43.2351 21.9822 43.1835 22.0346C43.0793 22.1404 43.0214 22.2833 43.0226 22.4318C43.0237 22.5804 43.0838 22.7223 43.1896 22.8266C43.2955 22.9308 43.4384 22.9887 43.5869 22.9875C43.7354 22.9864 43.8774 22.9263 43.9816 22.8204C44.0858 22.7146 44.1437 22.5717 44.1426 22.4232C44.1414 22.2747 44.0813 22.1327 43.9755 22.0285C43.8697 21.9243 43.7268 21.8664 43.5782 21.8675ZM41.5686 21.9149L40.8467 22.688C40.8884 22.7671 40.9483 22.835 41.0216 22.8862C41.0948 22.9373 41.1793 22.9702 41.2678 22.9821C41.3564 22.994 41.4465 22.9845 41.5307 22.9544C41.6148 22.9243 41.6905 22.8746 41.7515 22.8093C41.8125 22.7439 41.857 22.665 41.8812 22.579C41.9054 22.493 41.9088 22.4024 41.8909 22.3149C41.873 22.2273 41.8344 22.1453 41.7783 22.0758C41.7223 22.0062 41.6504 21.951 41.5686 21.9149ZM42.4582 22.9875C42.3847 22.9881 42.312 23.0031 42.2443 23.0318C42.1765 23.0605 42.1151 23.1022 42.0635 23.1546C42.0119 23.207 41.9712 23.269 41.9435 23.3372C41.9159 23.4054 41.902 23.4783 41.9026 23.5518C41.9031 23.6254 41.9182 23.6981 41.9468 23.7658C41.9755 23.8335 42.0172 23.895 42.0696 23.9466C42.122 23.9982 42.1841 24.0389 42.2522 24.0665C42.3204 24.0942 42.3933 24.1081 42.4669 24.1075C42.6154 24.1064 42.7574 24.0463 42.8616 23.9404C42.9658 23.8346 43.0237 23.6917 43.0226 23.5432C43.0214 23.3947 42.9613 23.2527 42.8555 23.1485C42.7497 23.0443 42.6068 22.9864 42.4582 22.9875ZM40.4995 23.0605L39.7562 23.857C39.8029 23.9274 39.8651 23.9864 39.9379 24.0294C40.0107 24.0725 40.0923 24.0984 40.1766 24.1054C40.2609 24.1124 40.3457 24.1002 40.4246 24.0697C40.5035 24.0392 40.5744 23.9912 40.6322 23.9294C40.6899 23.8676 40.7328 23.7935 40.7578 23.7127C40.7828 23.6318 40.7891 23.5464 40.7764 23.4628C40.7636 23.3792 40.732 23.2996 40.6841 23.2299C40.6362 23.1602 40.573 23.1023 40.4995 23.0605ZM41.3379 24.1075C41.1894 24.1087 41.0474 24.1688 40.9433 24.2747C40.8391 24.3806 40.7812 24.5235 40.7824 24.672C40.7836 24.8205 40.8437 24.9625 40.9496 25.0667C41.0554 25.1708 41.1984 25.2287 41.3469 25.2275C41.4954 25.2264 41.6374 25.1663 41.7416 25.0604C41.8458 24.9546 41.9037 24.8117 41.9026 24.6632C41.9014 24.5147 41.8413 24.3727 41.7355 24.2685C41.6297 24.1643 41.4864 24.1064 41.3379 24.1075ZM43.5779 24.1075C43.4294 24.1087 43.2874 24.1688 43.1833 24.2747C43.0791 24.3806 43.0212 24.5235 43.0224 24.672C43.0236 24.8205 43.0837 24.9625 43.1896 25.0667C43.2954 25.1708 43.4384 25.2287 43.5869 25.2275C43.7354 25.2264 43.8774 25.1663 43.9816 25.0604C44.0858 24.9546 44.1437 24.8117 44.1426 24.6632C44.1414 24.5147 44.0813 24.3727 43.9755 24.2685C43.8697 24.1643 43.7264 24.1064 43.5779 24.1075ZM15.2579 24.5069C18.9309 26.6957 22.0806 28.7542 23.8918 32.5782C23.3776 33.2304 23.0669 34.0493 23.0669 34.9366C23.0669 35.9984 23.5091 36.9632 24.2163 37.6595C23.8438 38.6976 23.4067 39.6851 22.9286 40.6518H21.5437L22.4237 39.128L21.4886 38.5882L21.8218 38.0106L20.5267 37.263L18.5699 40.6518H15.2579V29.4624L17.7168 30.9286L19.2458 28.3648L15.2582 25.9866L15.2579 24.5069ZM34.3443 28.2198C35.0867 28.343 35.8067 28.5149 36.4979 28.7222C36.4223 28.7869 36.3653 28.8705 36.3327 28.9644C36.3001 29.0584 36.2931 29.1594 36.3125 29.2569C36.3319 29.3545 36.3768 29.4451 36.4428 29.5195C36.5088 29.5939 36.5935 29.6494 36.688 29.6803C36.7826 29.7111 36.8836 29.7163 36.9808 29.6951C37.078 29.674 37.1678 29.6273 37.241 29.56C37.3142 29.4926 37.3681 29.407 37.3972 29.3119C37.4264 29.2168 37.4296 29.1157 37.4067 29.0189C37.8448 29.1734 38.2675 29.3389 38.6771 29.5117C38.7327 29.5766 38.8024 29.628 38.8809 29.6618C38.9594 29.6956 39.0446 29.7111 39.1299 29.7069C39.3376 29.7997 39.5382 29.8938 39.737 29.9885C39.6992 30.0546 39.6753 30.1278 39.6668 30.2035C39.6583 30.2792 39.6653 30.3558 39.6874 30.4287C39.7096 30.5016 39.7463 30.5692 39.7955 30.6274C39.8446 30.6856 39.9051 30.7332 39.9733 30.7672C40.0415 30.8012 40.1159 30.8209 40.1919 30.8252C40.268 30.8295 40.3441 30.8182 40.4156 30.792C40.4872 30.7659 40.5526 30.7254 40.608 30.673C40.6634 30.6207 40.7075 30.5576 40.7376 30.4877C40.9594 30.6038 41.1504 30.7142 41.3568 30.8282C41.3506 30.8279 41.3444 30.8276 41.3382 30.8275C41.2135 30.8284 41.0926 30.8709 40.9947 30.9483C40.8969 31.0256 40.8277 31.1335 40.7981 31.2547C40.7685 31.3759 40.7802 31.5035 40.8314 31.6173C40.8826 31.731 40.9703 31.8245 41.0806 31.8827C41.191 31.941 41.3176 31.9607 41.4404 31.9388C41.5632 31.9169 41.6752 31.8546 41.7586 31.7619C41.842 31.6691 41.892 31.5511 41.9007 31.4266C41.9095 31.3022 41.8764 31.1784 41.8067 31.0749C42.8298 31.6541 43.6362 32.1565 44.1514 32.4099C44.1371 32.4905 44.1407 32.5732 44.1618 32.6522C44.1829 32.7312 44.2211 32.8046 44.2737 32.8673C44.3262 32.93 44.3919 32.9804 44.466 33.015C44.5401 33.0496 44.6209 33.0675 44.7027 33.0675C44.7162 33.0675 44.7283 33.0627 44.7418 33.0618V34.1914C44.729 34.1904 44.7162 34.1875 44.7024 34.1875H44.6982C44.5497 34.1881 44.4075 34.2476 44.3029 34.353C44.1982 34.4584 44.1398 34.6011 44.1403 34.7496C44.1409 34.8981 44.2004 35.0403 44.3058 35.145C44.4112 35.2496 44.5539 35.3081 44.7024 35.3075C44.7158 35.3075 44.7286 35.3046 44.7418 35.3037V36.4314C44.729 36.4304 44.7162 36.4275 44.7024 36.4275C44.5539 36.4275 44.4114 36.4865 44.3064 36.5915C44.2014 36.6966 44.1424 36.839 44.1424 36.9875C44.1424 37.136 44.2014 37.2785 44.3064 37.3835C44.4114 37.4885 44.5539 37.5475 44.7024 37.5475C44.7158 37.5475 44.7286 37.5446 44.7418 37.5437V40.6518H33.568C32.704 39.0454 31.7472 37.5165 30.4336 36.3882C30.654 35.8585 30.7509 35.2857 30.7169 34.713C30.6829 34.1404 30.5189 33.583 30.2374 33.0832C31.0768 31.865 32.599 30.1283 34.3443 28.2198ZM35.7427 29.7075C35.673 29.7075 35.6038 29.7203 35.5389 29.7459C35.4805 30.0863 35.4706 30.4332 35.5094 30.7763C35.5855 30.8113 35.6685 30.8288 35.7522 30.8274C35.8359 30.8261 35.9183 30.8061 35.9932 30.7687C36.0682 30.7313 36.1338 30.6776 36.1852 30.6116C36.2367 30.5455 36.2726 30.4687 36.2905 30.3869C36.3083 30.3051 36.3076 30.2204 36.2884 30.1389C36.2691 30.0574 36.2319 29.9812 36.1793 29.916C36.1268 29.8508 36.0603 29.7983 35.9847 29.7622C35.9091 29.7261 35.8265 29.7074 35.7427 29.7075ZM37.9827 29.7075C37.8342 29.7075 37.6918 29.7665 37.5867 29.8715C37.4817 29.9766 37.4227 30.119 37.4227 30.2675C37.4227 30.416 37.4817 30.5585 37.5867 30.6635C37.6918 30.7685 37.8342 30.8275 37.9827 30.8275C38.1312 30.8275 38.2737 30.7685 38.3787 30.6635C38.4837 30.5585 38.5427 30.416 38.5427 30.2675C38.5427 30.119 38.4837 29.9766 38.3787 29.8715C38.2737 29.7665 38.1312 29.7075 37.9827 29.7075ZM19.823 30.7658L18.6637 32.7738L17.8858 34.121L19.8938 35.2806L20.672 33.9331L21.4694 34.3939L22.6288 32.3856L21.8314 31.9248L19.823 30.7658ZM36.8582 30.8275C36.7847 30.8281 36.712 30.8431 36.6443 30.8718C36.5765 30.9005 36.5151 30.9422 36.4635 30.9946C36.3593 31.1004 36.3014 31.2433 36.3026 31.3918C36.3037 31.5404 36.3638 31.6823 36.4696 31.7866C36.5755 31.8908 36.7184 31.9487 36.8669 31.9475C37.0154 31.9464 37.1574 31.8863 37.2616 31.7804C37.3658 31.6746 37.4237 31.5317 37.4226 31.3832C37.4214 31.2347 37.3613 31.0927 37.2555 30.9885C37.1497 30.8843 37.0068 30.8264 36.8582 30.8275ZM39.0982 30.8275C39.0247 30.8281 38.952 30.8431 38.8843 30.8718C38.8165 30.9005 38.7551 30.9422 38.7035 30.9946C38.5993 31.1004 38.5414 31.2433 38.5426 31.3918C38.5437 31.5404 38.6038 31.6823 38.7096 31.7866C38.8155 31.8908 38.9584 31.9487 39.1069 31.9475C39.2554 31.9464 39.3974 31.8863 39.5016 31.7804C39.6058 31.6746 39.6637 31.5317 39.6626 31.3832C39.6614 31.2347 39.6013 31.0927 39.4955 30.9885C39.3897 30.8843 39.2468 30.8264 39.0982 30.8275ZM37.9782 31.9475C37.9047 31.9481 37.832 31.9631 37.7643 31.9918C37.6965 32.0205 37.6351 32.0622 37.5835 32.1146C37.5319 32.167 37.4912 32.229 37.4635 32.2972C37.4359 32.3654 37.422 32.4383 37.4226 32.5118C37.4231 32.5854 37.4382 32.6581 37.4668 32.7258C37.4955 32.7935 37.5372 32.855 37.5896 32.9066C37.642 32.9582 37.7041 32.9989 37.7722 33.0265C37.8404 33.0542 37.9133 33.0681 37.9869 33.0675C38.1354 33.0664 38.2774 33.0063 38.3816 32.9004C38.4858 32.7946 38.5437 32.6517 38.5426 32.5032C38.5414 32.3547 38.4813 32.2127 38.3755 32.1085C38.2697 32.0043 38.1268 31.9464 37.9782 31.9475ZM40.2182 31.9475C40.1447 31.9481 40.072 31.9631 40.0043 31.9918C39.9365 32.0205 39.8751 32.0622 39.8235 32.1146C39.7719 32.167 39.7312 32.229 39.7035 32.2972C39.6759 32.3654 39.662 32.4383 39.6626 32.5118C39.6631 32.5854 39.6782 32.6581 39.7068 32.7258C39.7355 32.7935 39.7772 32.855 39.8296 32.9066C39.882 32.9582 39.9441 32.9989 40.0122 33.0265C40.0804 33.0542 40.1533 33.0681 40.2269 33.0675C40.3754 33.0664 40.5174 33.0063 40.6216 32.9004C40.7258 32.7946 40.7837 32.6517 40.7826 32.5032C40.7814 32.3547 40.7213 32.2127 40.6155 32.1085C40.5097 32.0043 40.3668 31.9464 40.2182 31.9475ZM42.4582 31.9475C42.3847 31.9481 42.312 31.9631 42.2443 31.9918C42.1765 32.0205 42.1151 32.0622 42.0635 32.1146C42.0119 32.167 41.9712 32.229 41.9435 32.2972C41.9159 32.3654 41.902 32.4383 41.9026 32.5118C41.9031 32.5854 41.9182 32.6581 41.9468 32.7258C41.9755 32.7935 42.0172 32.855 42.0696 32.9066C42.122 32.9582 42.1841 32.9989 42.2522 33.0265C42.3204 33.0542 42.3933 33.0681 42.4669 33.0675C42.6154 33.0664 42.7574 33.0063 42.8616 32.9004C42.9658 32.7946 43.0237 32.6517 43.0226 32.5032C43.0214 32.3547 42.9613 32.2127 42.8555 32.1085C42.7497 32.0043 42.6068 31.9464 42.4582 31.9475ZM35.8301 31.9542C35.8342 31.9642 35.8368 31.9738 35.8413 31.9837C35.8351 32.3442 35.8203 32.7045 35.7968 33.0643C35.9321 33.0508 36.0578 32.9885 36.1506 32.889C36.2433 32.7896 36.2967 32.6598 36.3007 32.5239C36.3048 32.388 36.2593 32.2552 36.1727 32.1504C36.0861 32.0456 35.9643 31.9759 35.8301 31.9542ZM26.895 32.8682C26.623 32.8669 26.3535 32.9196 26.102 33.0231C25.8505 33.1267 25.622 33.279 25.4297 33.4714C25.2374 33.6638 25.0851 33.8923 24.9816 34.1439C24.8782 34.3954 24.8256 34.665 24.8269 34.937C24.8256 35.2089 24.8782 35.4784 24.9816 35.73C25.0851 35.9815 25.2374 36.21 25.4297 36.4023C25.622 36.5946 25.8505 36.7469 26.102 36.8504C26.3536 36.9538 26.6231 37.0064 26.895 37.0051C27.167 37.0064 27.4366 36.9538 27.6881 36.8504C27.9397 36.7469 28.1682 36.5946 28.3606 36.4023C28.553 36.21 28.7053 35.9815 28.8089 35.73C28.9124 35.4785 28.9651 35.209 28.9638 34.937C28.9651 34.6649 28.9125 34.3953 28.809 34.1438C28.7054 33.8922 28.5531 33.6636 28.3607 33.4713C28.1684 33.2789 27.9398 33.1266 27.6882 33.023C27.4367 32.9195 27.1671 32.8669 26.895 32.8682ZM36.8582 33.0675C36.7847 33.0681 36.712 33.0831 36.6443 33.1118C36.5765 33.1405 36.5151 33.1822 36.4635 33.2346C36.4119 33.287 36.3712 33.349 36.3435 33.4172C36.3159 33.4854 36.302 33.5583 36.3026 33.6318C36.3031 33.7054 36.3182 33.7781 36.3468 33.8458C36.3755 33.9135 36.4172 33.975 36.4696 34.0266C36.522 34.0782 36.5841 34.1189 36.6522 34.1465C36.7204 34.1742 36.7933 34.1881 36.8669 34.1875C37.0154 34.1864 37.1574 34.1263 37.2616 34.0204C37.3658 33.9146 37.4237 33.7717 37.4226 33.6232C37.4214 33.4747 37.3613 33.3327 37.2555 33.2285C37.1497 33.1243 37.0068 33.0664 36.8582 33.0675ZM39.0982 33.0675C39.0247 33.0681 38.952 33.0831 38.8843 33.1118C38.8165 33.1405 38.7551 33.1822 38.7035 33.2346C38.6519 33.287 38.6112 33.349 38.5835 33.4172C38.5559 33.4854 38.542 33.5583 38.5426 33.6318C38.5431 33.7054 38.5582 33.7781 38.5868 33.8458C38.6155 33.9135 38.6572 33.975 38.7096 34.0266C38.762 34.0782 38.8241 34.1189 38.8922 34.1465C38.9604 34.1742 39.0333 34.1881 39.1069 34.1875C39.2554 34.1864 39.3974 34.1263 39.5016 34.0204C39.6058 33.9146 39.6637 33.7717 39.6626 33.6232C39.6614 33.4747 39.6013 33.3327 39.4955 33.2285C39.3897 33.1243 39.2468 33.0664 39.0982 33.0675ZM41.3382 33.0675C41.2647 33.0681 41.192 33.0831 41.1243 33.1118C41.0565 33.1405 40.9951 33.1822 40.9435 33.2346C40.8919 33.287 40.8512 33.349 40.8235 33.4172C40.7959 33.4854 40.782 33.5583 40.7826 33.6318C40.7831 33.7054 40.7982 33.7781 40.8268 33.8458C40.8555 33.9135 40.8972 33.975 40.9496 34.0266C41.002 34.0782 41.0641 34.1189 41.1322 34.1465C41.2004 34.1742 41.2733 34.1881 41.3469 34.1875C41.4954 34.1864 41.6374 34.1263 41.7416 34.0204C41.8458 33.9146 41.9037 33.7717 41.9026 33.6232C41.9014 33.4747 41.8413 33.3327 41.7355 33.2285C41.6297 33.1243 41.4868 33.0664 41.3382 33.0675ZM43.5782 33.0675C43.5047 33.0681 43.432 33.0831 43.3643 33.1118C43.2965 33.1405 43.2351 33.1822 43.1835 33.2346C43.1319 33.287 43.0912 33.349 43.0635 33.4172C43.0359 33.4854 43.022 33.5583 43.0226 33.6318C43.0231 33.7054 43.0382 33.7781 43.0668 33.8458C43.0955 33.9135 43.1372 33.975 43.1896 34.0266C43.242 34.0782 43.3041 34.1189 43.3722 34.1465C43.4404 34.1742 43.5133 34.1881 43.5869 34.1875C43.7354 34.1864 43.8774 34.1263 43.9816 34.0204C44.0858 33.9146 44.1437 33.7717 44.1426 33.6232C44.1414 33.4747 44.0813 33.3327 43.9755 33.2285C43.8697 33.1243 43.7268 33.0664 43.5782 33.0675ZM26.895 33.3482C27.7856 33.3482 28.4838 34.0464 28.4838 34.937C28.4838 35.8275 27.7856 36.5251 26.895 36.5251C26.0045 36.5251 25.3069 35.8275 25.3069 34.937C25.3069 34.0464 26.0045 33.3482 26.895 33.3482ZM37.9782 34.1875C37.9047 34.1881 37.832 34.2031 37.7643 34.2318C37.6965 34.2605 37.6351 34.3022 37.5835 34.3546C37.5319 34.407 37.4912 34.469 37.4635 34.5372C37.4359 34.6054 37.422 34.6783 37.4226 34.7518C37.4231 34.8254 37.4382 34.8981 37.4668 34.9658C37.4955 35.0335 37.5372 35.095 37.5896 35.1466C37.642 35.1982 37.7041 35.2389 37.7722 35.2665C37.8404 35.2942 37.9133 35.3081 37.9869 35.3075C38.1354 35.3064 38.2774 35.2463 38.3816 35.1404C38.4858 35.0346 38.5437 34.8917 38.5426 34.7432C38.5414 34.5947 38.4813 34.4527 38.3755 34.3485C38.2697 34.2443 38.1268 34.1864 37.9782 34.1875ZM40.2182 34.1875C40.1447 34.1881 40.072 34.2031 40.0043 34.2318C39.9365 34.2605 39.8751 34.3022 39.8235 34.3546C39.7719 34.407 39.7312 34.469 39.7035 34.5372C39.6759 34.6054 39.662 34.6783 39.6626 34.7518C39.6631 34.8254 39.6782 34.8981 39.7068 34.9658C39.7355 35.0335 39.7772 35.095 39.8296 35.1466C39.882 35.1982 39.9441 35.2389 40.0122 35.2665C40.0804 35.2942 40.1533 35.3081 40.2269 35.3075C40.3754 35.3064 40.5174 35.2463 40.6216 35.1404C40.7258 35.0346 40.7837 34.8917 40.7826 34.7432C40.7814 34.5947 40.7213 34.4527 40.6155 34.3485C40.5097 34.2443 40.3668 34.1864 40.2182 34.1875ZM42.4582 34.1875C42.3847 34.1881 42.312 34.2031 42.2443 34.2318C42.1765 34.2605 42.1151 34.3022 42.0635 34.3546C42.0119 34.407 41.9712 34.469 41.9435 34.5372C41.9159 34.6054 41.902 34.6783 41.9026 34.7518C41.9031 34.8254 41.9182 34.8981 41.9468 34.9658C41.9755 35.0335 42.0172 35.095 42.0696 35.1466C42.122 35.1982 42.1841 35.2389 42.2522 35.2665C42.3204 35.2942 42.3933 35.3081 42.4669 35.3075C42.6154 35.3064 42.7574 35.2463 42.8616 35.1404C42.9658 35.0346 43.0237 34.8917 43.0226 34.7432C43.0214 34.5947 42.9613 34.4527 42.8555 34.3485C42.7497 34.2443 42.6068 34.1864 42.4582 34.1875ZM35.8362 34.1949C35.9078 34.3728 36.0467 34.5133 36.2982 34.6794C36.2837 34.5596 36.2308 34.4478 36.1476 34.3605C36.0643 34.2732 35.9551 34.2151 35.8362 34.1949ZM39.0982 35.3075C39.0247 35.3081 38.952 35.3231 38.8843 35.3518C38.8165 35.3805 38.7551 35.4222 38.7035 35.4746C38.6519 35.527 38.6112 35.5891 38.5835 35.6572C38.5559 35.7254 38.542 35.7983 38.5426 35.8718C38.5431 35.9454 38.5582 36.0181 38.5868 36.0858C38.6155 36.1535 38.6572 36.215 38.7096 36.2666C38.762 36.3182 38.8241 36.3589 38.8922 36.3865C38.9604 36.4142 39.0333 36.4281 39.1069 36.4275C39.2554 36.4264 39.3974 36.3663 39.5016 36.2604C39.6058 36.1546 39.6637 36.0117 39.6626 35.8632C39.6614 35.7147 39.6013 35.5727 39.4955 35.4685C39.3897 35.3643 39.2468 35.3064 39.0982 35.3075ZM41.3382 35.3075C41.2647 35.3081 41.192 35.3231 41.1243 35.3518C41.0565 35.3805 40.9951 35.4222 40.9435 35.4746C40.8919 35.527 40.8512 35.5891 40.8235 35.6572C40.7959 35.7254 40.782 35.7983 40.7826 35.8718C40.7831 35.9454 40.7982 36.0181 40.8268 36.0858C40.8555 36.1535 40.8972 36.215 40.9496 36.2666C41.002 36.3182 41.0641 36.3589 41.1322 36.3865C41.2004 36.4142 41.2733 36.4281 41.3469 36.4275C41.4954 36.4264 41.6374 36.3663 41.7416 36.2604C41.8458 36.1546 41.9037 36.0117 41.9026 35.8632C41.9014 35.7147 41.8413 35.5727 41.7355 35.4685C41.6297 35.3643 41.4868 35.3064 41.3382 35.3075ZM43.5782 35.3075C43.5047 35.3081 43.432 35.3231 43.3643 35.3518C43.2965 35.3805 43.2351 35.4222 43.1835 35.4746C43.1319 35.527 43.0912 35.5891 43.0635 35.6572C43.0359 35.7254 43.022 35.7983 43.0226 35.8718C43.0231 35.9454 43.0382 36.0181 43.0668 36.0858C43.0955 36.1535 43.1372 36.215 43.1896 36.2666C43.242 36.3182 43.3041 36.3589 43.3722 36.3865C43.4404 36.4142 43.5133 36.4281 43.5869 36.4275C43.7354 36.4264 43.8774 36.3663 43.9816 36.2604C44.0858 36.1546 44.1437 36.0117 44.1426 35.8632C44.1414 35.7147 44.0813 35.5727 43.9755 35.4685C43.8697 35.3643 43.7268 35.3064 43.5782 35.3075ZM35.0592 35.8749C34.0262 35.8749 33.1786 36.7229 33.1786 37.7555C33.1786 38.7885 34.0266 39.6355 35.0592 39.6355C36.0918 39.6355 36.9392 38.7885 36.9392 37.7555C36.9392 36.7229 36.0918 35.8749 35.0592 35.8749ZM40.2221 36.4275C40.1126 36.4275 40.0056 36.4596 39.9142 36.5198C39.8227 36.5799 39.751 36.6656 39.7077 36.7661C39.6644 36.8667 39.6516 36.9777 39.6707 37.0854C39.6898 37.1932 39.7401 37.293 39.8154 37.3725L40.6352 37.3658C40.7086 37.2856 40.7571 37.1859 40.7748 37.0787C40.7925 36.9715 40.7786 36.8615 40.7348 36.762C40.6911 36.6625 40.6193 36.578 40.5283 36.5186C40.4374 36.4592 40.3307 36.4275 40.2221 36.4275ZM42.4621 36.4275C42.3549 36.4276 42.2499 36.4584 42.1597 36.5164C42.0695 36.5744 41.9979 36.657 41.9532 36.7545C41.9086 36.852 41.8929 36.9602 41.908 37.0664C41.9231 37.1725 41.9684 37.2721 42.0384 37.3533L42.8922 37.3456C42.9603 37.2638 43.0037 37.1644 43.0173 37.0588C43.0309 36.9533 43.0141 36.8461 42.969 36.7497C42.9239 36.6533 42.8522 36.5718 42.7625 36.5147C42.6727 36.4576 42.5685 36.4276 42.4621 36.4275ZM35.0592 36.8349C35.1803 36.834 35.3004 36.8572 35.4125 36.9031C35.5245 36.9491 35.6263 37.0169 35.712 37.1026C35.7976 37.1882 35.8653 37.2901 35.9112 37.4022C35.9571 37.5143 35.9802 37.6344 35.9792 37.7555C35.9802 37.8766 35.9571 37.9967 35.9112 38.1087C35.8653 38.2208 35.7976 38.3226 35.7119 38.4082C35.6263 38.4939 35.5245 38.5616 35.4124 38.6075C35.3004 38.6534 35.1803 38.6765 35.0592 38.6755C34.9381 38.6765 34.818 38.6534 34.7059 38.6075C34.5938 38.5616 34.4919 38.4939 34.4063 38.4083C34.3206 38.3227 34.2528 38.2209 34.2068 38.1088C34.1609 37.9967 34.1377 37.8766 34.1386 37.7555C34.1376 37.6344 34.1608 37.5142 34.2067 37.4021C34.2527 37.29 34.3204 37.1881 34.4061 37.1024C34.4918 37.0168 34.5937 36.949 34.7058 36.903C34.8179 36.8571 34.938 36.8339 35.0592 36.8349ZM29.007 38.1213C29.7008 38.7395 30.3427 39.6275 30.9648 40.6518H25.408C25.6957 40.0186 25.9718 39.3744 26.2211 38.7011C26.4406 38.7408 26.665 38.7651 26.895 38.7651C27.6736 38.7651 28.4 38.5267 29.007 38.1213Z" fill="#222220"/>
</g>
</svg>
