<svg width="60" height="60" viewBox="0 0 60 60" fill="none" xmlns="http://www.w3.org/2000/svg">
<g id="icon">
<circle id="Ellipse 3207" cx="30" cy="30" r="30" fill="white"/>
<g id="Group">
<path id="Vector" d="M30.6627 33.2797H31.4318L31.4328 33.5147C31.6154 35.9196 32.743 38.3375 34.8692 39.3628C34.5962 39.9164 34.1163 40.3432 33.5045 40.5301C32.9 40.7144 30.5139 41.2323 30.5139 41.2323C30.5134 41.2323 30.512 41.2328 30.5116 41.2328L30.5098 41.2332C30.1535 41.3111 27.1525 42.041 26.8003 44.4793C26.5988 45.8723 26.3635 47.1949 26.363 47.1984C26.3275 47.3969 26.3833 47.6016 26.5142 47.7565C26.6456 47.9114 26.8394 48.0004 27.0436 48.0004H47.3096C47.5138 48.0004 47.7076 47.9114 47.8385 47.7565C47.9699 47.6016 48.0256 47.3969 47.9901 47.1984C47.9892 47.1949 47.754 45.8722 47.5524 44.4793C47.1998 42.0343 44.1825 41.3071 43.8394 41.2323C43.8394 41.2323 41.4532 40.7143 40.8487 40.5301C40.2541 40.3485 39.7804 39.9409 39.4921 39.3686C41.6277 38.345 42.7608 35.9125 42.9457 33.463V33.2796H43.6905C44.0719 33.2796 44.3814 32.9735 44.3814 32.5961C44.3814 32.2187 44.0719 31.9125 43.6905 31.9125H43.2245L43.1701 31.3714C42.997 29.6393 41.7942 28.1992 40.1065 27.7043L39.3149 27.4721V27.2656C39.3149 26.8882 39.0055 26.582 38.624 26.582H35.7404C35.3594 26.582 35.0505 26.8874 35.0495 27.2638L35.0491 27.4685L34.2359 27.707C32.5555 28.201 31.3536 29.634 31.1746 31.358L31.117 31.9125H30.6627C30.2808 31.9125 29.9718 32.2187 29.9718 32.5961C29.9718 32.9735 30.2808 33.2797 30.6627 33.2797ZM32.2891 42.2426L33.419 46.6332H30.6294V42.6155C30.7373 42.5848 31.9005 42.3307 32.2891 42.2426ZM28.1681 44.6733C28.2617 44.0245 28.7308 43.5545 29.2477 43.2234V46.6332H27.8614C27.9477 46.1153 28.0624 45.4041 28.1681 44.6733ZM34.8444 46.6333L33.6313 41.9173C33.733 41.8892 34.2363 41.7228 34.3901 41.6516L36.7687 43.5519C36.895 43.6534 37.0489 43.7041 37.2027 43.7041C37.357 43.7041 37.5113 43.6534 37.6381 43.551L39.9865 41.6641C40.1327 41.7304 40.623 41.8901 40.726 41.9182L39.556 46.6333H34.8444ZM43.7234 42.6155V46.6333H40.9787L42.0682 42.2435C42.4559 42.3311 43.6159 42.5848 43.7234 42.6155ZM46.1851 44.6733C46.2903 45.404 46.4055 46.1152 46.4919 46.6332H45.1051V43.2239C45.6224 43.5545 46.0916 44.0249 46.1851 44.6733ZM38.8305 40.8318L37.2014 42.1411L35.5357 40.81C35.8065 40.5131 36.0287 40.1674 36.1952 39.7824C36.5118 39.8381 36.8393 39.8759 37.1883 39.8759C37.5261 39.8759 37.8436 39.8398 38.1518 39.7873C38.3173 40.1763 38.5471 40.5284 38.8305 40.8318ZM37.1883 38.5088C34.432 38.5088 33.0035 35.9489 32.8127 33.463V33.2796H41.5654L41.5658 33.4113C41.3727 35.9489 39.9442 38.5088 37.1883 38.5088ZM39.7139 29.0145C40.8605 29.351 41.6773 30.3291 41.7951 31.5067L41.8356 31.9126H39.3149V28.8975L39.7139 29.0145ZM37.9332 27.9491V31.9126H36.4214L36.43 27.9491H37.9332ZM32.5491 31.4978C32.6705 30.3264 33.4874 29.3527 34.629 29.0171L35.046 28.8947L35.0397 31.9125H32.5059L32.5491 31.4978Z" fill="#222220"/>
<path id="Vector_2" d="M12.3347 12.1421C12.0981 12.3077 11.974 12.5872 12.0046 12.8008L12.5398 38.6766L12.6842 38.8564C12.9213 39.1528 12.9245 39.1572 19.6223 39.8604L19.3556 42.1087C19.3137 42.462 19.4698 42.8083 19.7631 43.0121C20.7113 43.6699 21.7611 44.0023 22.7214 43.9957C25.2244 43.9782 25.4129 42.6873 25.4129 42.6873C25.4129 42.6873 28.7208 17.1188 28.5184 15.9952C28.3367 14.9876 27.5414 14.24 26.6148 13.8813C23.0417 12.4964 13.9369 12.0576 12.9352 12.0131C12.7283 11.9757 12.5119 12.0185 12.3347 12.1421ZM24.0901 42.1372C23.4105 42.8359 21.9932 42.7887 20.7567 42.0241L23.4239 19.5475C23.4347 19.4612 23.4847 19.414 23.5251 19.3891C23.5633 19.3659 23.6426 19.3339 23.7478 19.3713C24.758 19.7416 25.9796 19.8466 26.9368 19.5306L24.0901 42.1372ZM26.111 15.1541C26.8244 15.431 27.082 16.0377 27.1892 16.3691C27.4203 17.0837 27.0776 17.8136 26.9962 17.9204C26.6579 18.369 25.4642 18.5417 24.2272 18.0896C23.7504 17.9142 23.2314 17.9641 22.8032 18.2231C22.3831 18.4785 22.1096 18.9031 22.0521 19.3882L19.7833 38.5022C17.8244 38.2958 15.046 37.9931 13.904 37.8472L13.3953 13.4051C15.5728 13.5209 23.1248 13.997 26.111 15.1541Z" fill="#222220"/>
</g>
</g>
</svg>
