<svg width="60" height="60" viewBox="0 0 60 60" fill="none" xmlns="http://www.w3.org/2000/svg">
<circle cx="30" cy="30" r="30" fill="white"/>
<path d="M27.566 34.7591H41.8439C43.0953 34.7591 44.1139 33.7409 44.1139 32.4896V26.0342H46.9402C47.3559 26.0342 47.7235 25.7716 47.8984 25.3497C48.0875 24.894 48.0029 24.376 47.6896 24.0627L36.1945 12.4844C35.5679 11.8586 34.567 11.84 33.9601 12.4452L22.4697 24.0824C22.1573 24.3956 22.0718 24.9056 22.257 25.3524C22.4314 25.7734 22.7995 26.0342 23.2178 26.0342H25.2956V32.4896C25.2955 33.7409 26.3142 34.7591 27.566 34.7591ZM36.6061 33.392H33.4162V28.1774C33.4162 28.0519 33.5186 27.9495 33.6441 27.9495H36.3783C36.5038 27.9495 36.6061 28.0519 36.6061 28.1774L36.6061 33.392ZM42.7468 32.4896C42.7468 32.9871 42.3415 33.392 41.8439 33.392H37.9732V28.1774C37.9732 27.298 37.2576 26.5824 36.3782 26.5824H33.644C32.7646 26.5824 32.0491 27.298 32.0491 28.1774V33.392H27.5659C27.0679 33.392 26.6626 32.987 26.6626 32.4896V25.5607L35.0422 17.1089L42.8878 24.9545C42.805 25.0676 42.7468 25.1997 42.7468 25.3506V32.4896H42.7468ZM34.9293 13.4091C35.0062 13.3334 35.1465 13.3709 35.2266 13.4492L46.3635 24.6671H44.5336L36.0088 16.1423C35.4962 15.6305 34.6618 15.6305 34.1487 16.1423L25.624 24.6671H23.8136L34.9293 13.4091Z" fill="#222220"/>
<path d="M12.866 12C12.3885 12 12 12.3881 12 12.866V47.135C12 47.6119 12.3885 48 12.866 48H18.8809C19.3584 48 19.7469 47.6119 19.7469 47.1349V12.866C19.7469 12.3881 19.3584 12 18.8809 12H12.866ZM13.3671 46.6329V13.3671H18.3797V16.557H16.3291C15.9517 16.557 15.6456 16.8632 15.6456 17.2406C15.6456 17.618 15.9517 17.9241 16.3291 17.9241H18.3798V20.2026H16.3291C15.9517 20.2026 15.6456 20.5087 15.6456 20.8862C15.6456 21.2635 15.9517 21.5697 16.3291 21.5697H18.3798V23.8482H16.3291C15.9517 23.8482 15.6456 24.1544 15.6456 24.5318C15.6456 24.9092 15.9517 25.2153 16.3291 25.2153H18.3798V27.4938H16.3291C15.9517 27.4938 15.6456 27.8 15.6456 28.1774C15.6456 28.5548 15.9517 28.8609 16.3291 28.8609H18.3798V31.1394H16.3291C15.9517 31.1394 15.6456 31.4456 15.6456 31.823C15.6456 32.2004 15.9517 32.5065 16.3291 32.5065H18.3798V34.785H16.3291C15.9517 34.785 15.6456 35.0912 15.6456 35.4686C15.6456 35.846 15.9517 36.1521 16.3291 36.1521H18.3798V38.4306H16.3291C15.9517 38.4306 15.6456 38.7368 15.6456 39.1142C15.6456 39.4916 15.9517 39.7977 16.3291 39.7977H18.3798V42.0762H16.3291C15.9517 42.0762 15.6456 42.3824 15.6456 42.7598C15.6456 43.1372 15.9517 43.4433 16.3291 43.4433H18.3798V46.6332H13.3671V46.6329Z" fill="#222220"/>
<path d="M47.046 41.165H29.0268C28.831 41.165 23.469 43.7274 23.469 43.7274C23.1424 43.8903 22.9395 44.2178 22.9395 44.5836C22.9395 44.9485 23.1424 45.2761 23.4686 45.4389C23.4686 45.4389 28.8315 48.0004 29.0268 48.0004H47.046C47.5733 48.0004 48.0027 47.5714 48.0027 47.0436V42.1227C48.0027 41.5949 47.5733 41.165 47.046 41.165ZM24.8139 44.5836L28.0696 42.9548V46.2115L24.8139 44.5836ZM29.4367 42.5321H43.29V46.6334H29.4367V42.5321ZM46.6356 46.6334H44.6571V42.5321H46.6356V46.6334Z" fill="#222220"/>
</svg>
