<svg width="60" height="60" viewBox="0 0 60 60" fill="none" xmlns="http://www.w3.org/2000/svg">
<g id="icon">
<circle id="Ellipse 3207" cx="30" cy="30" r="30" fill="white"/>
<g id="Group">
<path id="Vector" d="M28.3783 33.1728H37.8969C38.7312 33.1728 39.4103 32.494 39.4103 31.6597V27.3561H41.2945C41.5716 27.3561 41.8166 27.1811 41.9332 26.8998C42.0593 26.596 42.0029 26.2507 41.7941 26.0418L34.1306 18.3229C33.7129 17.9058 33.0457 17.8933 32.641 18.2968L24.9808 26.0549C24.7725 26.2638 24.7155 26.6038 24.839 26.9016C24.9553 27.1823 25.2006 27.3561 25.4795 27.3561H26.8647V31.6597C26.8647 32.494 27.5438 33.1728 28.3783 33.1728ZM34.405 32.2614H32.2785V28.7849C32.2785 28.7013 32.3467 28.633 32.4304 28.633H34.2532C34.3368 28.633 34.4051 28.7013 34.4051 28.7849L34.405 32.2614ZM38.4989 31.6597C38.4989 31.9914 38.2286 32.2614 37.8969 32.2614H35.3164V28.7849C35.3164 28.1987 34.8394 27.7216 34.2531 27.7216H32.4303C31.8441 27.7216 31.367 28.1987 31.367 28.7849V32.2614H28.3783C28.0463 32.2614 27.776 31.9914 27.776 31.6597V27.0405L33.3625 21.406L38.5929 26.6364C38.5377 26.7117 38.4988 26.7998 38.4988 26.9004V31.6597H38.4989ZM33.2872 18.9394C33.3385 18.889 33.432 18.9139 33.4854 18.9661L40.91 26.4447H39.69L34.0069 20.7616C33.6651 20.4204 33.1088 20.4204 32.7668 20.7616L27.0836 26.4447H25.8767L33.2872 18.9394Z" fill="#222220"/>
<path id="Vector_2" d="M18.5774 18C18.259 18 18 18.2587 18 18.5774V41.4233C18 41.7413 18.259 42 18.5774 42H22.5873C22.9056 42 23.1646 41.7413 23.1646 41.4233V18.5774C23.1646 18.2587 22.9056 18 22.5873 18H18.5774ZM18.9114 41.0886V18.9114H22.2532V21.038H20.8861C20.6345 21.038 20.4304 21.2421 20.4304 21.4937C20.4304 21.7453 20.6345 21.9494 20.8861 21.9494H22.2532V23.4684H20.8861C20.6345 23.4684 20.4304 23.6725 20.4304 23.9241C20.4304 24.1757 20.6345 24.3798 20.8861 24.3798H22.2532V25.8988H20.8861C20.6345 25.8988 20.4304 26.1029 20.4304 26.3545C20.4304 26.6061 20.6345 26.8102 20.8861 26.8102H22.2532V28.3292H20.8861C20.6345 28.3292 20.4304 28.5333 20.4304 28.7849C20.4304 29.0365 20.6345 29.2406 20.8861 29.2406H22.2532V30.7596H20.8861C20.6345 30.7596 20.4304 30.9637 20.4304 31.2153C20.4304 31.4669 20.6345 31.671 20.8861 31.671H22.2532V33.19H20.8861C20.6345 33.19 20.4304 33.3941 20.4304 33.6457C20.4304 33.8973 20.6345 34.1014 20.8861 34.1014H22.2532V35.6204H20.8861C20.6345 35.6204 20.4304 35.8245 20.4304 36.0761C20.4304 36.3277 20.6345 36.5318 20.8861 36.5318H22.2532V38.0508H20.8861C20.6345 38.0508 20.4304 38.2549 20.4304 38.5065C20.4304 38.7581 20.6345 38.9622 20.8861 38.9622H22.2532V41.0888H18.9114V41.0886Z" fill="#222220"/>
<path id="Vector_3" d="M41.362 37.4429H29.3493C29.2187 37.4429 25.6441 39.1511 25.6441 39.1511C25.4263 39.2597 25.291 39.4781 25.291 39.7219C25.291 39.9652 25.4263 40.1836 25.6438 40.2921C25.6438 40.2921 29.219 41.9998 29.3493 41.9998H41.362C41.7136 41.9998 41.9999 41.7138 41.9999 41.3619V38.0813C41.9999 37.7295 41.7136 37.4429 41.362 37.4429ZM26.5406 39.7219L28.7111 38.6361V40.8072L26.5406 39.7219ZM29.6225 38.3543H38.8581V41.0885H29.6225V38.3543ZM41.0885 41.0884H39.7694V38.3542H41.0885V41.0884Z" fill="#222220"/>
</g>
</g>
</svg>
