<svg width="60" height="60" viewBox="0 0 60 60" fill="none" xmlns="http://www.w3.org/2000/svg">
<circle cx="30" cy="30" r="30" fill="white"/>
<path fill-rule="evenodd" clip-rule="evenodd" d="M43 42.0659V12H21.8678C18.6572 12.0047 16 14.6203 16 17.9161V48H43V45.2308H18.7C18.7 43.5177 20.1011 42.0659 21.9063 42.0659H43ZM18.7 17.9161C18.7 16.2095 20.0911 14.7692 21.8765 14.7692H40.3V39.2967H21.9063C20.7303 39.2967 19.6272 39.6447 18.7 40.2474V17.9161Z" fill="#222220"/>
<path d="M24.3573 25.3799C25.0682 24.8275 25.6578 25.2085 26.4449 26.1197C26.5332 26.2225 26.6521 26.1022 26.7199 26.0435C26.787 25.9841 27.8254 25.0492 27.8764 25.0066C27.9267 24.9616 27.9877 24.8778 27.9077 24.7841C27.715 24.5458 27.5263 24.3042 27.3416 24.0596C25.9641 22.2577 31.1099 21.0357 30.3198 21.0166C29.9175 21.0059 28.3039 20.9869 28.0623 21.0136C27.0848 21.1164 25.8575 22.0299 25.2396 22.4558C24.4312 23.0089 24.1295 23.3335 24.08 23.3784C23.8514 23.5781 24.0434 24.039 23.629 24.4024C23.1909 24.7856 22.9174 24.4954 22.6637 24.7178C22.5379 24.8291 22.186 25.0927 22.0854 25.1803C21.9841 25.2694 21.9658 25.4195 22.0694 25.5391C22.0694 25.5391 23.0324 26.6027 23.1132 26.6972C23.1932 26.7901 23.4111 26.8709 23.5452 26.7513C23.68 26.6324 24.0267 26.33 24.0846 26.2766C24.144 26.2264 24.0465 25.6207 24.3573 25.3799ZM28.7061 25.7738C28.6147 25.6679 28.5012 25.6648 28.4037 25.7517L27.3111 26.7056C27.2689 26.7439 27.2432 26.797 27.2394 26.8538C27.2356 26.9106 27.2539 26.9667 27.2906 27.0103L33.6096 34.2017C33.7574 34.3716 34.0134 34.3891 34.1818 34.2421L34.9208 33.6227C35.0021 33.5511 35.0519 33.4502 35.0593 33.3421C35.0668 33.2339 35.0312 33.1273 34.9604 33.0452L28.7061 25.7738ZM37.1318 22.7133C37.0754 22.337 36.8803 22.4154 36.779 22.5747C36.6777 22.7354 36.2297 23.4143 36.0453 23.7221C35.8625 24.0268 35.4114 24.6295 34.5719 24.0344C33.6972 23.4165 34.0012 22.9853 34.1536 22.695C34.3067 22.4032 34.7768 21.585 34.8446 21.4836C34.9124 21.3808 34.8332 21.0821 34.5619 21.2071C34.29 21.332 32.6397 21.988 32.4112 22.9289C32.1773 23.8859 32.607 24.7414 31.7636 25.5909L30.7404 26.6576L31.7681 27.8507L33.0283 26.6545C33.3285 26.3528 33.97 26.0595 34.5505 26.1921C35.7947 26.4732 36.4735 26.0062 36.8826 25.2336C37.2499 24.5434 37.1889 23.0897 37.1318 22.7133ZM24.0556 33.1229C23.9794 33.1997 23.9366 33.3035 23.9366 33.4116C23.9366 33.5198 23.9794 33.6236 24.0556 33.7004L24.7802 34.409C24.9386 34.5682 25.1901 34.5011 25.3485 34.3419L29.0871 30.6666L27.942 29.3607L24.0556 33.1229Z" fill="#222220"/>
</svg>
