<svg width="60" height="60" viewBox="0 0 60 60" fill="none" xmlns="http://www.w3.org/2000/svg">
<circle cx="30" cy="30" r="30" fill="white"/>
<path d="M28.4087 14.1032C24.5059 12.5645 14.2605 12.0618 12.8759 12L12.2119 12.1687C12.0583 12.3145 11.9385 12.5724 12.0342 12.8825V41.7591L12.0346 41.9985L12.1825 42.1849C12.4212 42.4843 12.4278 42.4931 20.7779 43.2935L20.4707 45.9267C20.4285 46.2898 20.5857 46.6458 20.8841 46.8595C21.9216 47.591 23.0709 47.8925 24.1171 47.954C26.0987 48.0706 27.018 46.5327 27.018 46.5327L30.4949 18.4493C30.663 17.8221 30.6595 17.1119 30.4677 16.4317C30.1614 15.347 29.411 14.499 28.4087 14.1032ZM25.7264 45.9895C24.9395 46.8438 23.2675 46.7925 21.8346 45.8676L24.8048 20.4086C24.8206 20.2726 24.8987 20.1984 24.961 20.1595C25.058 20.1004 25.1778 20.0906 25.2897 20.1313C26.4457 20.5615 27.8531 20.6702 28.9115 20.2611L25.7264 45.9895ZM28.9414 18.6366C28.4969 19.2347 27.0385 19.3363 25.7571 18.8592C25.2546 18.671 24.7077 18.724 24.2566 19.0032C23.8147 19.2753 23.5268 19.7302 23.4658 20.2497L20.9349 41.9457C18.4203 41.7045 14.7379 41.3379 13.3823 41.1763L13.377 13.3843C15.9018 13.516 24.5902 14.0548 27.9167 15.3666C28.7474 15.6943 29.0239 16.419 29.1704 16.8029C29.4561 17.551 29.0397 18.505 28.9414 18.6366Z" fill="#222220"/>
<path d="M41.6255 47.9999H47.1454C47.6164 47.9999 47.9995 47.6148 47.9995 47.1404V17.6525C47.9995 17.1782 47.6164 16.793 47.1454 16.793H41.6255C41.1542 16.793 40.7715 17.1781 40.7715 17.6525V47.1404C40.7715 47.6148 41.1541 47.9999 41.6255 47.9999ZM42.1196 18.1498H46.6512V20.1258H45.2675C44.8954 20.1258 44.5934 20.4297 44.5934 20.8042C44.5934 21.1788 44.8954 21.4827 45.2675 21.4827H46.6512V23.9419H45.2675C44.8954 23.9419 44.5934 24.2458 44.5934 24.6203C44.5934 24.9949 44.8954 25.2987 45.2675 25.2987H46.6512V27.7589H45.2675C44.8954 27.7589 44.5934 28.0628 44.5934 28.4373C44.5934 28.8118 44.8954 29.1157 45.2675 29.1157H46.6512V31.5749H45.2675C44.8954 31.5749 44.5934 31.8788 44.5934 32.2534C44.5934 32.6279 44.8954 32.9318 45.2675 32.9318H46.6512V35.3919H45.2675C44.8954 35.3919 44.5934 35.6958 44.5934 36.0704C44.5934 36.4449 44.8954 36.7488 45.2675 36.7488H46.6512V39.2089H45.2675C44.8954 39.2089 44.5934 39.5128 44.5934 39.8873C44.5934 40.2619 44.8954 40.5658 45.2675 40.5658H46.6512V43.025H45.2675C44.8954 43.025 44.5934 43.3289 44.5934 43.7035C44.5934 44.078 44.8954 44.3819 45.2675 44.3819H46.6512V46.6433H42.1196V18.1498Z" fill="#222220"/>
<path d="M36.3815 29.1831C36.0814 28.5824 35.1106 28.5788 34.8083 29.1848C34.8083 29.1848 32.8633 33.3652 32.8633 33.5309V47.0506C32.8633 47.5744 33.2868 48.0002 33.8072 48.0002H37.3834C37.9035 48.0002 38.3269 47.5744 38.3269 47.0506V33.5309C38.3269 33.3653 36.3815 29.1831 36.3815 29.1831ZM34.2114 33.9381H36.9788V44.1091H34.2114V33.9381ZM35.5951 30.6344L36.5623 32.5814H34.6283L35.5951 30.6344ZM36.9788 46.6434H34.2114V45.4659H36.9788V46.6434Z" fill="#222220"/>
</svg>
