<svg width="60" height="60" viewBox="0 0 60 60" fill="none" xmlns="http://www.w3.org/2000/svg">
<g id="icon">
<circle id="Ellipse 3207" cx="30" cy="30" r="30" fill="white"/>
<g id="Group">
<path id="Vector" d="M47.008 32.1287C44.4921 31.7068 41.9022 32.0212 39.558 33.0348L38.4646 33.5073C38.4646 33.5073 37.0148 32.6492 36.8418 32.5675C35.9399 32.1402 31.4997 31.1187 31.0225 30.9695C30.0771 30.6728 29.3077 29.9466 28.9397 29.0339C31.857 27.7534 33.4032 24.4441 33.6498 21.1165V20.6182H34.8897C35.2634 20.6182 35.5657 20.3126 35.5657 19.936C35.5657 19.5593 35.2633 19.2538 34.8897 19.2538H34.0446L33.951 18.2967C33.7313 16.0484 32.184 14.1583 30.0375 13.5163L28.8051 13.1476V12.6822C28.8051 12.3054 28.5024 12 28.129 12H24.2808C23.9082 12 23.6058 12.3045 23.6052 12.6804L23.6043 13.1432L22.3436 13.5207C20.2056 14.1611 18.6614 16.0394 18.4327 18.278L18.333 19.2538H17.5051C17.1318 19.2538 16.829 19.5594 16.829 19.936C16.829 20.3126 17.1319 20.6182 17.5051 20.6182H18.7771L18.778 21.168C19.0218 24.4351 20.5505 27.7165 23.4344 29.0112C23.0704 29.9434 22.3367 30.67 21.3701 30.9712C20.5487 31.227 17.3603 31.9314 17.3603 31.9314C17.3598 31.9314 17.3594 31.9314 17.3594 31.9314C16.9187 32.03 13.0424 32.9831 12.5952 36.1437C12.3254 38.0446 12.0107 39.8487 12.0103 39.8523C11.9755 40.0503 12.0301 40.2547 12.1582 40.4092C12.2867 40.5637 12.4764 40.6526 12.6762 40.6526H28.9292L28.9584 46.5267C28.9594 46.7212 29.0424 46.9061 29.1868 47.0351C29.3392 47.1712 29.541 47.2314 29.7419 47.1982C30.7845 47.0261 34.2166 46.7953 37.5112 47.7331C37.7322 47.796 38.2672 47.9058 38.5791 47.968C38.7356 47.9992 38.8942 48.0076 39.0532 47.9932C39.0532 47.9932 42.3309 46.5132 47.2236 47.257C47.647 47.3214 48 46.9052 48 46.4735V33.3119C48.0001 32.7239 47.5832 32.2264 47.008 32.1287ZM29.6532 14.8239C31.2796 15.3107 32.4381 16.7257 32.6053 18.4295L32.6863 19.2538H28.8051V14.5703L29.6532 14.8239ZM27.453 13.3645V19.2538H24.9432L24.956 13.3645H27.453ZM19.778 18.4162C19.9506 16.7213 21.1086 15.3134 22.7284 14.8283L23.6013 14.5672L23.5911 19.2538H19.6927L19.778 18.4162ZM20.1284 21.1165V20.6182H32.2986L32.2995 21.065C32.0337 24.6324 30.0486 28.2308 26.2131 28.2308C22.3776 28.2308 20.3925 24.6324 20.1284 21.1165ZM26.2131 29.5953C26.721 29.5953 27.1972 29.5371 27.6519 29.4434C27.8984 30.1034 28.2827 30.6862 28.7726 31.1627L26.2311 33.2453L23.6488 31.1405C24.1277 30.6666 24.5022 30.0901 24.7426 29.438C25.2064 29.5358 25.6932 29.5953 26.2131 29.5953ZM19.7252 32.7985L21.4814 39.2884H17.2155V33.3848C17.4567 33.3097 19.1649 32.9286 19.7252 32.7985ZM13.9333 36.3374C14.0957 35.1915 14.9914 34.4307 15.8633 33.9523V39.2883H13.4773C13.5953 38.5732 13.7731 37.4682 13.9333 36.3374ZM22.8829 39.2884L21.0404 32.4787C21.3137 32.4077 22.2711 32.0856 22.507 31.9649L25.8077 34.6542C25.9314 34.7545 26.0819 34.8052 26.2324 34.8052C26.3834 34.8052 26.5344 34.7545 26.6585 34.6524C26.6585 34.6524 28.9678 32.9164 28.9292 32.9164V39.2884H22.8829ZM32.6718 45.6343C31.8752 45.6343 31.0719 45.6894 30.2814 45.7968V33.4531C32.5032 33.104 34.7753 33.3972 36.8392 34.289L38.1415 34.8526V46.5012C38.1415 46.5012 34.4487 45.6343 32.6718 45.6343ZM46.6479 45.7995C44.2552 45.4677 41.815 45.6334 39.4937 46.2765V34.5475L40.0906 34.2889C42.1549 33.3962 44.4295 33.1075 46.6479 33.4521V45.7995Z" fill="#222220"/>
<path id="Vector_2" d="M35.2124 39.2886H32.5081C32.1348 39.2886 31.832 39.5942 31.832 39.9708C31.832 40.3474 32.1349 40.6529 32.5081 40.6529H35.2124C35.5856 40.6529 35.8884 40.3474 35.8884 39.9708C35.8884 39.5941 35.5856 39.2886 35.2124 39.2886Z" fill="#222220"/>
<path id="Vector_3" d="M35.2124 42.0166H32.5081C32.1348 42.0166 31.832 42.3222 31.832 42.6988C31.832 43.0754 32.1349 43.381 32.5081 43.381H35.2124C35.5856 43.381 35.8884 43.0754 35.8884 42.6988C35.8884 42.3222 35.5856 42.0166 35.2124 42.0166Z" fill="#222220"/>
<path id="Vector_4" d="M44.2251 39.2886H41.5208C41.1475 39.2886 40.8447 39.5942 40.8447 39.9708C40.8447 40.3474 41.1476 40.6529 41.5208 40.6529H44.2251C44.5983 40.6529 44.9011 40.3474 44.9011 39.9708C44.9011 39.5941 44.5983 39.2886 44.2251 39.2886Z" fill="#222220"/>
<path id="Vector_5" d="M35.2124 36.5596H32.5081C32.1348 36.5596 31.832 36.8652 31.832 37.2418C31.832 37.6183 32.1349 37.9239 32.5081 37.9239H35.2124C35.5856 37.9239 35.8884 37.6183 35.8884 37.2418C35.8884 36.8652 35.5856 36.5596 35.2124 36.5596Z" fill="#222220"/>
<path id="Vector_6" d="M44.2251 36.5596H41.5208C41.1475 36.5596 40.8447 36.8652 40.8447 37.2418C40.8447 37.6183 41.1476 37.9239 41.5208 37.9239H44.2251C44.5983 37.9239 44.9011 37.6183 44.9011 37.2418C44.9011 36.8652 44.5983 36.5596 44.2251 36.5596Z" fill="#222220"/>
<path id="Vector_7" d="M42.4222 42.0166H41.5208C41.1475 42.0166 40.8447 42.3222 40.8447 42.6988C40.8447 43.0754 41.1476 43.381 41.5208 43.381H42.4222C42.7955 43.381 43.0983 43.0754 43.0983 42.6988C43.0983 42.3222 42.7955 42.0166 42.4222 42.0166Z" fill="#222220"/>
</g>
</g>
</svg>
